<svg width="24" height="24" viewBox="0 0 24 24" fill="none" xmlns="http://www.w3.org/2000/svg">
<path d="M12.96 6.55988C17.44 7.19988 20 11.9999 20 11.9999C20 11.9999 19.36 13.5999 18.08 14.8799M14.88 16.7999C7.2 19.3599 4 11.9999 4 11.9999C4 11.9999 4.64 9.75988 7.84 7.83988" stroke="#989B9E" stroke-width="1.5" stroke-linecap="round" stroke-linejoin="round"/>
<path d="M12.7999 13.3863C12.4532 13.5864 12.0441 13.6493 11.6534 13.5626C11.2627 13.4758 10.9186 13.2458 10.6891 12.9179C10.4593 12.5901 10.3608 12.188 10.4129 11.7911C10.4651 11.3942 10.6641 11.0312 10.9707 10.7739L11.9999 12.0001L12.7999 13.3863Z" fill="#989B9E" stroke="#989B9E" stroke-width="1.5" stroke-linecap="round" stroke-linejoin="round"/>
<path d="M6.55991 4L17.4399 20" stroke="#989B9E" stroke-width="1.5" stroke-linecap="round" stroke-linejoin="round"/>
</svg>
