<svg width="53" height="53" viewBox="0 0 53 53" fill="none" xmlns="http://www.w3.org/2000/svg">
<path d="M0.5 16.75C0.5 7.91344 7.66344 0.75 16.5 0.75H36.5C45.3366 0.75 52.5 7.91344 52.5 16.75V36.75C52.5 45.5866 45.3366 52.75 36.5 52.75H16.5C7.66344 52.75 0.5 45.5866 0.5 36.75V16.75Z" fill="#E2F5FF"/>
<path fill-rule="evenodd" clip-rule="evenodd" d="M27.3756 8.71455C27.1308 8.52037 26.8272 8.4153 26.5147 8.41664C26.2023 8.41798 25.8996 8.52564 25.6564 8.72192L23.1444 10.7174C22.9142 10.9057 22.6276 11.0116 22.3303 11.0182L18.9911 11.1381C18.6791 11.1473 18.3795 11.2622 18.1415 11.4641C17.9035 11.666 17.7412 11.9428 17.6812 12.249L17.0394 15.3918C16.9842 15.6838 16.8333 15.9491 16.6104 16.1458L14.1283 18.3844C13.895 18.5919 13.7391 18.8726 13.6863 19.1803C13.6335 19.4881 13.6869 19.8047 13.8377 20.0781L15.3665 22.8984C15.5116 23.158 15.5661 23.4586 15.5212 23.7526L15.0591 27.062C15.0138 27.371 15.0749 27.6863 15.2324 27.9561C15.3898 28.2258 15.6343 28.434 15.9256 28.5466L18.9096 29.7226C19.1877 29.8277 19.4226 30.023 19.5768 30.2772L21.3508 33.1093C21.5144 33.3754 21.7637 33.5779 22.0577 33.6834C22.3518 33.7889 22.673 33.7911 22.9684 33.6897L26.0109 32.6738C26.2918 32.5761 26.5973 32.5746 26.8791 32.6697L30.0579 33.6991C30.3543 33.7977 30.6754 33.7925 30.9684 33.6843C31.2614 33.5761 31.5089 33.3715 31.6702 33.104L33.3484 30.3697C33.5008 30.1143 33.734 29.9169 34.0111 29.8089L37.108 28.5544C37.3983 28.4392 37.6408 28.2287 37.7956 27.9575C37.9504 27.6863 38.0083 27.3705 37.9598 27.062L37.4858 23.8901C37.4384 23.5965 37.4903 23.2955 37.6332 23.0347L39.1984 20.0826C39.347 19.8079 39.3976 19.4907 39.3421 19.1834C39.2865 18.876 39.128 18.5967 38.8927 18.3913L36.4912 16.2629C36.2661 16.0685 36.1122 15.8046 36.054 15.513L35.3582 12.2454C35.2953 11.9394 35.1302 11.6639 34.89 11.4643C34.6498 11.2646 34.3488 11.1526 34.0365 11.1467L30.8299 11.0604C30.5319 11.057 30.2437 10.9538 30.0112 10.7673L27.3756 8.71455ZM31.8995 14.5345C30.3818 13.2892 28.4792 12.6086 26.516 12.6088C25.4016 12.6075 24.2979 12.8264 23.2683 13.253C22.2388 13.6795 21.3036 14.3052 20.5166 15.0942C19.1284 16.4825 18.2645 18.3091 18.0721 20.2629C17.8797 22.2166 18.3707 24.1767 19.4614 25.809C20.5522 27.4414 22.1752 28.645 24.0539 29.2148C25.9326 29.7847 27.9508 29.6854 29.7646 28.934C31.5783 28.1826 33.0754 26.8256 34.0008 25.0941C34.9261 23.3626 35.2225 21.3639 34.8393 19.4384C34.4562 17.5129 33.4172 15.7799 31.8995 14.5345Z" fill="url(#paint0_linear_2971_13050)"/>
<path fill-rule="evenodd" clip-rule="evenodd" d="M31.7701 15.8388C32.9858 17.0545 33.7425 18.6541 33.911 20.3651C34.0796 22.0761 33.6496 23.7926 32.6945 25.2222C31.7393 26.6517 30.318 27.7058 28.6728 28.2049C27.0275 28.704 25.2601 28.6172 23.6717 27.9592C22.0833 27.3012 20.7722 26.1129 19.9617 24.5966C19.1513 23.0803 18.8917 21.3299 19.2272 19.6437C19.5627 17.9574 20.4725 16.4397 21.8015 15.349C23.1306 14.2584 24.7967 13.6623 26.516 13.6624C27.492 13.6613 28.4585 13.8529 29.3602 14.2264C30.2618 14.5999 31.0808 15.1479 31.7701 15.8388ZM28.3007 19.0692L26.9622 17.2055C26.9162 17.1319 26.8514 17.072 26.7761 17.0289C26.7008 16.9858 26.6159 16.962 26.5291 16.9597C26.4424 16.9573 26.3564 16.9765 26.2788 17.0155C26.2012 17.0544 26.1345 17.112 26.0846 17.183L24.7772 19.036L22.5771 19.7376C22.4954 19.7609 22.4205 19.8037 22.359 19.8624C22.2974 19.921 22.251 19.9937 22.2238 20.0742C22.1965 20.1547 22.1892 20.2406 22.2025 20.3246C22.2158 20.4086 22.2492 20.488 22.3 20.5562L23.6585 22.3712L23.6463 24.6634C23.6396 24.75 23.6546 24.8369 23.6898 24.9163C23.7251 24.9957 23.7795 25.0651 23.8482 25.1183C23.9169 25.1715 23.9977 25.2068 24.0834 25.2211C24.1691 25.2353 24.257 25.2281 24.3392 25.2L26.4845 24.4697L28.6969 25.202C28.752 25.22 28.8096 25.229 28.8676 25.2286C28.9365 25.2278 29.0047 25.2133 29.0681 25.1861C29.1315 25.1589 29.1889 25.1194 29.237 25.07C29.2851 25.0206 29.3231 24.9622 29.3486 24.8981C29.3741 24.834 29.3867 24.7655 29.3858 24.6965L29.3547 22.4305L30.7345 20.5521C30.7843 20.4847 30.8172 20.4062 30.8304 20.3234C30.8436 20.2406 30.8368 20.1558 30.8104 20.0762C30.7841 19.9966 30.739 19.9245 30.679 19.8659C30.619 19.8074 30.5458 19.764 30.4656 19.7396L28.3007 19.0692Z" fill="url(#paint1_linear_2971_13050)"/>
<path fill-rule="evenodd" clip-rule="evenodd" d="M34.4302 30.7766L34.4106 30.7864C34.3419 30.81 34.2845 30.8585 34.2497 30.9223L32.5715 33.6561C32.2861 34.1245 31.8509 34.4827 31.3364 34.6727C30.8219 34.8627 30.2583 34.8733 29.737 34.7028L26.5578 33.6733C26.5454 33.669 26.5328 33.6653 26.5201 33.6623V42.881C26.52 42.9491 26.5388 43.0159 26.5743 43.0739C26.6099 43.132 26.6608 43.179 26.7215 43.2099C26.7821 43.2408 26.8502 43.2542 26.918 43.2488C26.9859 43.2433 27.0509 43.2192 27.1058 43.179L30.2576 40.877C30.3205 40.8302 30.3968 40.8049 30.4752 40.8049C30.5536 40.8049 30.6299 40.8302 30.6927 40.877L33.8445 43.179C33.8995 43.2192 33.9645 43.2433 34.0323 43.2488C34.1002 43.2542 34.1682 43.2408 34.2289 43.2099C34.2896 43.179 34.3405 43.132 34.376 43.0739C34.4116 43.0159 34.4303 42.9491 34.4302 42.881V30.7766ZM22.776 37.2287L25.4628 39.1894L25.4632 33.9685L23.302 34.6901C22.7823 34.8644 22.219 34.8585 21.703 34.6734C21.187 34.4882 20.7484 34.1346 20.4581 33.6697L18.6857 30.8396C18.665 30.8032 18.6371 30.7713 18.6038 30.7459V39.2323C18.6037 39.3005 18.6224 39.3673 18.658 39.4254C18.6935 39.4836 18.7445 39.5307 18.8053 39.5616C18.866 39.5924 18.9341 39.6059 19.002 39.6004C19.07 39.5948 19.135 39.5706 19.19 39.5303L22.3418 37.2287C22.4045 37.1819 22.4806 37.1566 22.5589 37.1566C22.6372 37.1566 22.7133 37.1819 22.776 37.2287Z" fill="url(#paint2_linear_2971_13050)"/>
<path d="M27.5516 19.8252C27.6183 19.9182 27.7138 19.9867 27.8234 20.02L29.4504 20.5239L28.4034 21.9496C28.3302 22.0497 28.2948 22.1725 28.3035 22.2962L28.3269 23.9712L26.6486 23.4157C26.5317 23.3772 26.405 23.3808 26.2905 23.426L24.6986 23.9675L24.7089 22.1996C24.7097 22.0854 24.6729 21.974 24.6041 21.8828L23.5808 20.5173L25.2664 19.9807C25.376 19.9462 25.4711 19.8764 25.5369 19.7822L26.5193 18.3905L27.55 19.8264L27.5516 19.8252Z" fill="url(#paint3_linear_2971_13050)"/>
<path fill-rule="evenodd" clip-rule="evenodd" d="M38.255 13.8513C38.0606 13.7794 37.8585 13.7229 37.6503 13.6831C37.635 13.6802 37.6197 13.6773 37.6043 13.6746C37.4652 13.6498 37.4652 13.4502 37.6043 13.4254C37.6197 13.4227 37.635 13.4198 37.6503 13.4169C37.8585 13.3771 38.0606 13.3206 38.255 13.2487C38.3714 13.2057 38.485 13.1572 38.5956 13.1035C39.3615 12.7317 39.9817 12.1115 40.3535 11.3456C40.4072 11.235 40.4557 11.1214 40.4987 11.005C40.5706 10.8106 40.6271 10.6085 40.6669 10.4003C40.6698 10.385 40.6727 10.3697 40.6754 10.3543C40.7002 10.2152 40.8998 10.2152 40.9246 10.3543C40.9273 10.3697 40.9302 10.385 40.9331 10.4003C40.9729 10.6085 41.0294 10.8106 41.1013 11.005C41.1443 11.1214 41.1928 11.235 41.2465 11.3456C41.6183 12.1115 42.2385 12.7317 43.0044 13.1035C43.115 13.1572 43.2286 13.2057 43.345 13.2487C43.5394 13.3206 43.7415 13.3771 43.9497 13.4169C43.965 13.4198 43.9803 13.4227 43.9957 13.4254C44.1348 13.4502 44.1348 13.6498 43.9957 13.6746C43.9803 13.6773 43.965 13.6802 43.9497 13.6831C43.7415 13.7229 43.5394 13.7794 43.345 13.8513C43.2286 13.8943 43.115 13.9428 43.0044 13.9965C42.2385 14.3683 41.6183 14.9885 41.2465 15.7544C41.1928 15.865 41.1443 15.9786 41.1013 16.095C41.0294 16.2894 40.9729 16.4915 40.9331 16.6997C40.9302 16.715 40.9273 16.7303 40.9246 16.7457C40.8998 16.8848 40.7002 16.8848 40.6754 16.7457C40.6727 16.7303 40.6698 16.715 40.6669 16.6997C40.6271 16.4915 40.5706 16.2894 40.4987 16.095C40.4557 15.9786 40.4072 15.865 40.3535 15.7544C39.9817 14.9885 39.3615 14.3683 38.5956 13.9965C38.485 13.9428 38.3714 13.8943 38.255 13.8513Z" fill="url(#paint4_linear_2971_13050)"/>
<path fill-rule="evenodd" clip-rule="evenodd" d="M8.71179 18.3509C8.57136 18.299 8.42544 18.2582 8.27505 18.2294C8.26401 18.2273 8.25295 18.2253 8.24186 18.2233C8.14139 18.2054 8.14139 18.0613 8.24186 18.0433C8.25295 18.0414 8.26401 18.0393 8.27505 18.0372C8.42544 18.0085 8.57136 17.9677 8.71179 17.9157C8.79582 17.8847 8.87789 17.8496 8.95776 17.8109C9.51091 17.5424 9.95887 17.0944 10.2274 16.5413C10.2661 16.4614 10.3012 16.3793 10.3322 16.2953C10.3842 16.1549 10.425 16.0089 10.4537 15.8585C10.4558 15.8475 10.4579 15.8364 10.4599 15.8254C10.4778 15.7249 10.6219 15.7249 10.6398 15.8254C10.6418 15.8364 10.6438 15.8475 10.6459 15.8585C10.6747 16.0089 10.7155 16.1549 10.7674 16.2953C10.7985 16.3793 10.8335 16.4614 10.8723 16.5413C11.1408 17.0944 11.5888 17.5424 12.1419 17.8109C12.2218 17.8496 12.3039 17.8847 12.3879 17.9157C12.5283 17.9677 12.6742 18.0085 12.8246 18.0372C12.8357 18.0393 12.8467 18.0414 12.8578 18.0433C12.9583 18.0613 12.9583 18.2054 12.8578 18.2233C12.8467 18.2253 12.8357 18.2273 12.8246 18.2294C12.6742 18.2582 12.5283 18.299 12.3879 18.3509C12.3039 18.382 12.2218 18.417 12.1419 18.4558C11.5888 18.7243 11.1408 19.1723 10.8723 19.7254C10.8335 19.8053 10.7985 19.8873 10.7674 19.9714C10.7155 20.1118 10.6747 20.2577 10.6459 20.4081C10.6438 20.4192 10.6418 20.4302 10.6398 20.4413C10.6219 20.5418 10.4778 20.5418 10.4599 20.4413C10.4579 20.4302 10.4558 20.4192 10.4537 20.4081C10.425 20.2577 10.3842 20.1118 10.3322 19.9714C10.3012 19.8873 10.2661 19.8053 10.2274 19.7254C9.95887 19.1723 9.51091 18.7243 8.95776 18.4558C8.87789 18.417 8.79582 18.382 8.71179 18.3509Z" fill="url(#paint5_linear_2971_13050)"/>
<defs>
<linearGradient id="paint0_linear_2971_13050" x1="26.5153" y1="8.41663" x2="26.5153" y2="43.25" gradientUnits="userSpaceOnUse">
<stop stop-color="#0054A5"/>
<stop offset="1" stop-color="#0092D4"/>
</linearGradient>
<linearGradient id="paint1_linear_2971_13050" x1="39.364" y1="25.8333" x2="13.6665" y2="25.8333" gradientUnits="userSpaceOnUse">
<stop stop-color="#19C76D"/>
<stop offset="1" stop-color="#9DCE15"/>
</linearGradient>
<linearGradient id="paint2_linear_2971_13050" x1="26.5153" y1="8.41663" x2="26.5153" y2="43.25" gradientUnits="userSpaceOnUse">
<stop stop-color="#0054A5"/>
<stop offset="1" stop-color="#0092D4"/>
</linearGradient>
<linearGradient id="paint3_linear_2971_13050" x1="26.5153" y1="8.41663" x2="26.5153" y2="43.25" gradientUnits="userSpaceOnUse">
<stop stop-color="#0054A5"/>
<stop offset="1" stop-color="#0092D4"/>
</linearGradient>
<linearGradient id="paint4_linear_2971_13050" x1="44.1" y1="13.55" x2="37.5" y2="13.55" gradientUnits="userSpaceOnUse">
<stop stop-color="#19C76D"/>
<stop offset="1" stop-color="#9DCE15"/>
</linearGradient>
<linearGradient id="paint5_linear_2971_13050" x1="12.9332" y1="18.1333" x2="8.1665" y2="18.1333" gradientUnits="userSpaceOnUse">
<stop stop-color="#19C76D"/>
<stop offset="1" stop-color="#9DCE15"/>
</linearGradient>
</defs>
</svg>
