<svg width="53" height="52" viewBox="0 0 53 52" fill="none" xmlns="http://www.w3.org/2000/svg">
<path d="M0.5 26C0.5 11.6406 12.1406 0 26.5 0C40.8594 0 52.5 11.6406 52.5 26C52.5 40.3594 40.8594 52 26.5 52C12.1406 52 0.5 40.3594 0.5 26Z" fill="url(#paint0_linear_3514_2968)"/>
<path d="M15.3889 22.2559V19.5922C15.3889 16.9393 17.6222 14.7977 20.3889 14.7977H23.1667" stroke="white" stroke-width="1.5" stroke-linecap="round" stroke-linejoin="round"/>
<path d="M29.8334 14.7977H32.6111C35.3778 14.7977 37.6111 16.9393 37.6111 19.5922V22.2559" stroke="white" stroke-width="1.5" stroke-linecap="round" stroke-linejoin="round"/>
<path d="M37.6111 29.714V31.3122C37.6111 33.9651 35.3778 36.1067 32.6111 36.1067H30.9444" stroke="white" stroke-width="1.5" stroke-linecap="round" stroke-linejoin="round"/>
<path d="M23.1667 36.1063H20.3889C17.6222 36.1063 15.3889 33.9648 15.3889 31.3118V28.6482" stroke="white" stroke-width="1.5" stroke-linecap="round" stroke-linejoin="round"/>
<path d="M24.8333 20.1247V22.2556C24.8333 23.321 24.2778 23.8537 23.1667 23.8537H20.9444C19.8333 23.8537 19.2778 23.321 19.2778 22.2556V20.1247C19.2778 19.0592 19.8333 18.5265 20.9444 18.5265H23.1667C24.2778 18.5265 24.8333 19.0592 24.8333 20.1247Z" stroke="white" stroke-width="1.5" stroke-linecap="round" stroke-linejoin="round"/>
<path d="M33.7222 20.1247V22.2556C33.7222 23.321 33.1667 23.8537 32.0555 23.8537H29.8333C28.7222 23.8537 28.1667 23.321 28.1667 22.2556V20.1247C28.1667 19.0592 28.7222 18.5265 29.8333 18.5265H32.0555C33.1667 18.5265 33.7222 19.0592 33.7222 20.1247Z" stroke="white" stroke-width="1.5" stroke-linecap="round" stroke-linejoin="round"/>
<path d="M24.8333 28.6481V30.779C24.8333 31.8444 24.2778 32.3772 23.1667 32.3772H20.9444C19.8333 32.3772 19.2778 31.8444 19.2778 30.779V28.6481C19.2778 27.5827 19.8333 27.0499 20.9444 27.0499H23.1667C24.2778 27.0499 24.8333 27.5827 24.8333 28.6481Z" stroke="white" stroke-width="1.5" stroke-linecap="round" stroke-linejoin="round"/>
<path d="M33.7222 28.6481V30.779C33.7222 31.8444 33.1667 32.3772 32.0555 32.3772H29.8333C28.7222 32.3772 28.1667 31.8444 28.1667 30.779V28.6481C28.1667 27.5827 28.7222 27.0499 29.8333 27.0499H32.0555C33.1667 27.0499 33.7222 27.5827 33.7222 28.6481Z" stroke="white" stroke-width="1.5" stroke-linecap="round" stroke-linejoin="round"/>
<defs>
<linearGradient id="paint0_linear_3514_2968" x1="1.124" y1="2.06819" x2="56.0083" y2="4.94734" gradientUnits="userSpaceOnUse">
<stop stop-color="#44A5D8"/>
<stop offset="1" stop-color="#15C770"/>
</linearGradient>
</defs>
</svg>
