<svg width="18" height="22" viewBox="0 0 18 22" fill="none" xmlns="http://www.w3.org/2000/svg">
<path fill-rule="evenodd" clip-rule="evenodd" d="M9.125 0C7.86522 0 6.65704 0.500445 5.76624 1.39124C4.87544 2.28204 4.37499 3.49022 4.37499 4.75C4.37499 6.00978 4.87544 7.21796 5.76624 8.10876C6.65704 8.99955 7.86522 9.5 9.125 9.5C10.3848 9.5 11.593 8.99955 12.4838 8.10876C13.3745 7.21796 13.875 6.00978 13.875 4.75C13.875 3.49022 13.3745 2.28204 12.4838 1.39124C11.593 0.500445 10.3848 0 9.125 0ZM5.87499 4.75C5.87499 3.88805 6.2174 3.0614 6.8269 2.4519C7.43639 1.84241 8.26304 1.5 9.125 1.5C9.98695 1.5 10.8136 1.84241 11.4231 2.4519C12.0326 3.0614 12.375 3.88805 12.375 4.75C12.375 5.61195 12.0326 6.4386 11.4231 7.0481C10.8136 7.65759 9.98695 8 9.125 8C8.26304 8 7.43639 7.65759 6.8269 7.0481C6.2174 6.4386 5.87499 5.61195 5.87499 4.75ZM9.125 11C6.812 11 4.67999 11.526 3.10099 12.414C1.54499 13.29 0.374995 14.616 0.374995 16.25V16.352C0.373995 17.514 0.372995 18.972 1.65199 20.014C2.28099 20.526 3.16199 20.891 4.35199 21.131C5.54399 21.373 7.099 21.5 9.125 21.5C11.151 21.5 12.705 21.373 13.899 21.131C15.089 20.891 15.969 20.526 16.599 20.014C17.878 18.972 17.876 17.514 17.875 16.352V16.25C17.875 14.616 16.705 13.29 15.15 12.414C13.57 11.526 11.439 11 9.125 11ZM1.87499 16.25C1.87499 15.399 2.49699 14.475 3.83599 13.722C5.15199 12.982 7.02 12.5 9.126 12.5C11.23 12.5 13.098 12.982 14.414 13.722C15.754 14.475 16.375 15.399 16.375 16.25C16.375 17.558 16.335 18.294 15.651 18.85C15.281 19.152 14.661 19.447 13.601 19.661C12.544 19.875 11.099 20 9.125 20C7.151 20 5.705 19.875 4.64899 19.661C3.58899 19.447 2.96899 19.152 2.59899 18.851C1.91499 18.294 1.87499 17.558 1.87499 16.25Z" fill="#0054A5"/>
</svg>
