<svg width="25" height="24" viewBox="0 0 25 24" fill="none" xmlns="http://www.w3.org/2000/svg">
<path d="M11.75 18C11.75 18.1989 11.829 18.3897 11.9697 18.5303C12.1103 18.671 12.3011 18.75 12.5 18.75C12.6989 18.75 12.8897 18.671 13.0303 18.5303C13.171 18.3897 13.25 18.1989 13.25 18V15C13.25 14.8011 13.171 14.6103 13.0303 14.4697C12.8897 14.329 12.6989 14.25 12.5 14.25C12.3011 14.25 12.1103 14.329 11.9697 14.4697C11.829 14.6103 11.75 14.8011 11.75 15V18Z" fill="#989B9E"/>
<path fill-rule="evenodd" clip-rule="evenodd" d="M12.5 1.25C11.775 1.25 11.113 1.45 10.39 1.787C9.688 2.114 8.878 2.597 7.862 3.202L6.406 4.069C5.287 4.736 4.396 5.267 3.72 5.775C3.023 6.3 2.5 6.84 2.16 7.551C1.818 8.262 1.726 9.007 1.755 9.876C1.784 10.717 1.931 11.74 2.115 13.022L2.408 15.054C2.645 16.704 2.834 18.013 3.115 19.032C3.405 20.082 3.817 20.917 4.56 21.556C5.302 22.196 6.19 22.481 7.276 22.618C8.332 22.75 9.663 22.75 11.342 22.75H13.658C15.338 22.75 16.668 22.75 17.724 22.618C18.81 22.481 19.698 22.196 20.44 21.557C21.183 20.917 21.595 20.083 21.885 19.032C22.166 18.012 22.355 16.704 22.592 15.054L22.884 13.022C23.069 11.74 23.216 10.717 23.244 9.876C23.274 9.006 23.182 8.262 22.841 7.551C22.5 6.84 21.977 6.3 21.28 5.775C20.605 5.267 19.713 4.736 18.594 4.069L17.138 3.202C16.122 2.597 15.312 2.114 14.611 1.787C13.887 1.449 13.225 1.25 12.5 1.25ZM8.596 4.511C9.653 3.881 10.399 3.438 11.024 3.146C11.633 2.862 12.071 2.75 12.5 2.75C12.93 2.75 13.367 2.862 13.976 3.146C14.601 3.438 15.346 3.881 16.404 4.511L17.789 5.336C18.954 6.03 19.775 6.52 20.379 6.974C20.966 7.417 21.289 7.783 21.489 8.199C21.688 8.615 21.771 9.093 21.746 9.825C21.72 10.575 21.586 11.516 21.394 12.851L21.114 14.788C20.868 16.502 20.692 17.716 20.439 18.633C20.192 19.529 19.894 20.048 19.462 20.42C19.029 20.793 18.468 21.013 17.537 21.13C16.586 21.249 15.349 21.25 13.607 21.25H11.394C9.651 21.25 8.414 21.249 7.463 21.13C6.533 21.013 5.971 20.793 5.538 20.42C5.106 20.048 4.808 19.529 4.561 18.633C4.308 17.716 4.131 16.502 3.885 14.788L3.606 12.851C3.414 11.516 3.28 10.574 3.254 9.825C3.229 9.093 3.312 8.615 3.512 8.199C3.712 7.783 4.033 7.417 4.622 6.974C5.225 6.52 6.046 6.03 7.211 5.336L8.596 4.511Z" fill="#989B9E"/>
</svg>
