<svg width="52" height="52" viewBox="0 0 52 52" fill="none" xmlns="http://www.w3.org/2000/svg">
<path d="M0 16C0 7.16344 7.16344 0 16 0H36C44.8366 0 52 7.16344 52 16V36C52 44.8366 44.8366 52 36 52H16C7.16344 52 0 44.8366 0 36V16Z" fill="#E2F5FF"/>
<path fill-rule="evenodd" clip-rule="evenodd" d="M26.8758 7.96458C26.631 7.7704 26.3273 7.66533 26.0149 7.66667C25.7024 7.66801 25.3997 7.77567 25.1566 7.97195L22.6446 9.96739C22.4144 10.1557 22.1278 10.2616 21.8305 10.2682L18.4912 10.3882C18.1793 10.3973 17.8797 10.5123 17.6417 10.7141C17.4036 10.916 17.2413 11.1928 17.1814 11.4991L16.5396 14.6418C16.4844 14.9339 16.3334 15.1992 16.1106 15.3958L13.6285 17.6344C13.3952 17.8419 13.2393 18.1226 13.1865 18.4304C13.1337 18.7381 13.1871 19.0547 13.3379 19.3282L14.8667 22.1484C15.0118 22.408 15.0662 22.7086 15.0214 23.0026L14.5593 26.312C14.514 26.6211 14.5751 26.9363 14.7325 27.2061C14.89 27.4758 15.1344 27.6841 15.4258 27.7966L18.4098 28.9726C18.6879 29.0777 18.9228 29.273 19.077 29.5272L20.851 32.3593C21.0145 32.6254 21.2639 32.8279 21.5579 32.9334C21.8519 33.0389 22.1731 33.0412 22.4686 32.9397L25.5111 31.9238C25.792 31.8261 26.0974 31.8246 26.3792 31.9197L29.558 32.9492C29.8544 33.0477 30.1755 33.0425 30.4686 32.9343C30.7616 32.8262 31.0091 32.6215 31.1704 32.354L32.8486 29.6197C33.0009 29.3643 33.2341 29.167 33.5113 29.059L36.6082 27.8044C36.8985 27.6892 37.1409 27.4788 37.2957 27.2076C37.4505 26.9363 37.5085 26.6205 37.46 26.312L36.986 23.1402C36.9386 22.8466 36.9904 22.5455 37.1333 22.2847L38.6986 19.3327C38.8471 19.0579 38.8978 18.7408 38.8422 18.4334C38.7867 18.126 38.6282 17.8467 38.3928 17.6414L35.9913 15.5129C35.7662 15.3185 35.6124 15.0547 35.5542 14.763L34.8583 11.4954C34.7955 11.1894 34.6304 10.914 34.3902 10.7143C34.1499 10.5146 33.8489 10.4026 33.5366 10.3968L30.33 10.3104C30.032 10.307 29.7438 10.2038 29.5114 10.0173L26.8758 7.96458ZM31.3997 13.7846C29.882 12.5392 27.9794 11.8587 26.0162 11.8589C24.9018 11.8576 23.7981 12.0765 22.7685 12.503C21.7389 12.9295 20.8038 13.5553 20.0168 14.3443C18.6285 15.7325 17.7646 17.5591 17.5722 19.5129C17.3798 21.4667 17.8708 23.4267 18.9616 25.0591C20.0524 26.6914 21.6754 27.895 23.5541 28.4649C25.4328 29.0347 27.451 28.9354 29.2647 28.1841C31.0785 27.4327 32.5756 26.0756 33.5009 24.3441C34.4263 22.6127 34.7226 20.6139 34.3395 18.6884C33.9563 16.7629 32.9174 15.0299 31.3997 13.7846Z" fill="url(#paint0_linear_3514_6462)"/>
<path fill-rule="evenodd" clip-rule="evenodd" d="M31.2702 15.0888C32.486 16.3045 33.2426 17.9041 33.4112 19.6151C33.5797 21.3261 33.1498 23.0426 32.1946 24.4722C31.2395 25.9017 29.8182 26.9559 28.1729 27.4549C26.5277 27.954 24.7603 27.8672 23.1719 27.2092C21.5835 26.5513 20.2723 25.3629 19.4619 23.8466C18.6515 22.3303 18.3919 20.5799 18.7274 18.8937C19.0628 17.2074 19.9726 15.6897 21.3017 14.5991C22.6308 13.5084 24.2969 12.9124 26.0162 12.9125C26.9921 12.9113 27.9587 13.103 28.8603 13.4764C29.762 13.8499 30.581 14.3979 31.2702 15.0888ZM27.8008 18.3192L26.4623 16.4555C26.4163 16.3819 26.3516 16.3221 26.2763 16.279C26.2009 16.2359 26.1161 16.2121 26.0293 16.2097C25.9425 16.2074 25.8565 16.2265 25.779 16.2655C25.7014 16.3045 25.6347 16.362 25.5848 16.433L24.2774 18.286L22.0773 18.9876C21.9955 19.0109 21.9207 19.0538 21.8591 19.1124C21.7976 19.171 21.7512 19.2437 21.724 19.3242C21.6967 19.4047 21.6894 19.4907 21.7027 19.5746C21.7159 19.6586 21.7494 19.7381 21.8002 19.8063L23.1587 21.6212L23.1464 23.9134C23.1398 24 23.1548 24.0869 23.19 24.1663C23.2253 24.2458 23.2797 24.3152 23.3484 24.3684C23.4171 24.4216 23.4979 24.4569 23.5836 24.4711C23.6693 24.4854 23.7572 24.4781 23.8394 24.45L25.9847 23.7198L28.197 24.4521C28.2521 24.4701 28.3098 24.479 28.3677 24.4787C28.4367 24.4778 28.5049 24.4634 28.5682 24.4361C28.6316 24.4089 28.689 24.3695 28.7372 24.3201C28.7853 24.2706 28.8232 24.2122 28.8487 24.1481C28.8743 24.084 28.8869 24.0155 28.8859 23.9465L28.8548 21.6805L30.2346 19.8022C30.2845 19.7347 30.3174 19.6563 30.3306 19.5735C30.3438 19.4907 30.3369 19.4059 30.3106 19.3263C30.2842 19.2467 30.2392 19.1745 30.1792 19.116C30.1191 19.0574 30.0459 19.0141 29.9657 18.9897L27.8008 18.3192Z" fill="url(#paint1_linear_3514_6462)"/>
<path fill-rule="evenodd" clip-rule="evenodd" d="M33.9304 30.0266L33.9108 30.0364C33.8421 30.0601 33.7847 30.1085 33.7499 30.1723L32.0717 32.9062C31.7863 33.3745 31.351 33.7328 30.8365 33.9227C30.322 34.1127 29.7584 34.1233 29.2371 33.9528L26.0579 32.9234C26.0456 32.919 26.033 32.9154 26.0203 32.9123V42.1311C26.0202 42.1991 26.0389 42.2659 26.0745 42.3239C26.11 42.382 26.161 42.4291 26.2216 42.4599C26.2823 42.4908 26.3503 42.5043 26.4182 42.4988C26.486 42.4933 26.5511 42.4692 26.606 42.429L29.7578 40.127C29.8207 40.0802 29.897 40.0549 29.9753 40.0549C30.0537 40.0549 30.13 40.0802 30.1929 40.127L33.3447 42.429C33.3996 42.4692 33.4646 42.4933 33.5325 42.4988C33.6003 42.5043 33.6684 42.4908 33.7291 42.4599C33.7897 42.4291 33.8407 42.382 33.8762 42.3239C33.9117 42.2659 33.9305 42.1991 33.9304 42.1311V30.0266ZM22.2762 36.4787L24.963 38.4394L24.9634 33.2185L22.8022 33.9401C22.2824 34.1144 21.7191 34.1085 21.2031 33.9234C20.6872 33.7383 20.2486 33.3847 19.9582 32.9197L18.1859 30.0896C18.1651 30.0532 18.1373 30.0214 18.104 29.9959V38.4824C18.1038 38.5505 18.1226 38.6174 18.1581 38.6755C18.1937 38.7336 18.2447 38.7807 18.3054 38.8116C18.3662 38.8425 18.4343 38.8559 18.5022 38.8504C18.5701 38.8449 18.6352 38.8206 18.6901 38.7803L21.8419 36.4787C21.9046 36.4319 21.9808 36.4066 22.0591 36.4066C22.1373 36.4066 22.2135 36.4319 22.2762 36.4787Z" fill="url(#paint2_linear_3514_6462)"/>
<path d="M27.0518 19.0752C27.1185 19.1683 27.214 19.2368 27.3236 19.27L28.9506 19.7739L27.9036 21.1996C27.8304 21.2997 27.795 21.4225 27.8037 21.5463L27.827 23.2212L26.1488 22.6658C26.0319 22.6272 25.9052 22.6308 25.7906 22.676L24.1988 23.2175L24.209 21.4497C24.2099 21.3354 24.1731 21.2241 24.1042 21.1329L23.0809 19.7674L24.7665 19.2307C24.8761 19.1962 24.9713 19.1264 25.0371 19.0322L26.0195 17.6405L27.0501 19.0764L27.0518 19.0752Z" fill="url(#paint3_linear_3514_6462)"/>
<path fill-rule="evenodd" clip-rule="evenodd" d="M37.755 13.1013C37.5606 13.0294 37.3585 12.9729 37.1503 12.9331C37.135 12.9302 37.1197 12.9273 37.1043 12.9246C36.9652 12.8998 36.9652 12.7002 37.1043 12.6754C37.1197 12.6727 37.135 12.6698 37.1503 12.6669C37.3585 12.6271 37.5606 12.5706 37.755 12.4987C37.8714 12.4557 37.985 12.4072 38.0956 12.3535C38.8615 11.9817 39.4817 11.3615 39.8535 10.5956C39.9072 10.485 39.9557 10.3714 39.9987 10.255C40.0706 10.0606 40.1271 9.85852 40.1669 9.6503C40.1698 9.63501 40.1727 9.61969 40.1754 9.60433C40.2002 9.46522 40.3998 9.46522 40.4246 9.60433C40.4273 9.61969 40.4302 9.63501 40.4331 9.6503C40.4729 9.85852 40.5294 10.0606 40.6013 10.255C40.6443 10.3714 40.6928 10.485 40.7465 10.5956C41.1183 11.3615 41.7385 11.9817 42.5044 12.3535C42.615 12.4072 42.7286 12.4557 42.845 12.4987C43.0394 12.5706 43.2415 12.6271 43.4497 12.6669C43.465 12.6698 43.4803 12.6727 43.4957 12.6754C43.6348 12.7002 43.6348 12.8998 43.4957 12.9246C43.4803 12.9273 43.465 12.9302 43.4497 12.9331C43.2415 12.9729 43.0394 13.0294 42.845 13.1013C42.7286 13.1443 42.615 13.1928 42.5044 13.2465C41.7385 13.6183 41.1183 14.2385 40.7465 15.0044C40.6928 15.115 40.6443 15.2286 40.6013 15.345C40.5294 15.5394 40.4729 15.7415 40.4331 15.9497C40.4302 15.965 40.4273 15.9803 40.4246 15.9957C40.3998 16.1348 40.2002 16.1348 40.1754 15.9957C40.1727 15.9803 40.1698 15.965 40.1669 15.9497C40.1271 15.7415 40.0706 15.5394 39.9987 15.345C39.9557 15.2286 39.9072 15.115 39.8535 15.0044C39.4817 14.2385 38.8615 13.6183 38.0956 13.2465C37.985 13.1928 37.8714 13.1443 37.755 13.1013Z" fill="url(#paint4_linear_3514_6462)"/>
<path fill-rule="evenodd" clip-rule="evenodd" d="M8.21195 17.6009C8.07152 17.549 7.9256 17.5082 7.77521 17.4794C7.76417 17.4773 7.75311 17.4753 7.74202 17.4733C7.64155 17.4554 7.64155 17.3113 7.74202 17.2933C7.75311 17.2914 7.76417 17.2893 7.77521 17.2872C7.9256 17.2585 8.07152 17.2177 8.21195 17.1657C8.29599 17.1347 8.37805 17.0996 8.45793 17.0609C9.01107 16.7924 9.45903 16.3444 9.72754 15.7913C9.76631 15.7114 9.80135 15.6293 9.8324 15.5453C9.88432 15.4049 9.92515 15.2589 9.95389 15.1085C9.95599 15.0975 9.95803 15.0864 9.96001 15.0754C9.97794 14.9749 10.1221 14.9749 10.14 15.0754C10.142 15.0864 10.144 15.0975 10.1461 15.1085C10.1748 15.2589 10.2157 15.4049 10.2676 15.5453C10.2987 15.6293 10.3337 15.7114 10.3725 15.7913C10.641 16.3444 11.0889 16.7924 11.6421 17.0609C11.7219 17.0996 11.804 17.1347 11.888 17.1657C12.0285 17.2177 12.1744 17.2585 12.3248 17.2872C12.3358 17.2893 12.3469 17.2914 12.358 17.2933C12.4585 17.3113 12.4585 17.4554 12.358 17.4733C12.3469 17.4753 12.3358 17.4773 12.3248 17.4794C12.1744 17.5082 12.0285 17.549 11.888 17.6009C11.804 17.632 11.7219 17.667 11.6421 17.7058C11.0889 17.9743 10.641 18.4223 10.3725 18.9754C10.3337 19.0553 10.2987 19.1373 10.2676 19.2214C10.2157 19.3618 10.1748 19.5077 10.1461 19.6581C10.144 19.6692 10.142 19.6802 10.14 19.6913C10.1221 19.7918 9.97794 19.7918 9.96001 19.6913C9.95803 19.6802 9.95599 19.6692 9.95389 19.6581C9.92515 19.5077 9.88432 19.3618 9.8324 19.2214C9.80135 19.1373 9.76631 19.0553 9.72754 18.9754C9.45903 18.4223 9.01107 17.9743 8.45793 17.7058C8.37805 17.667 8.29599 17.632 8.21195 17.6009Z" fill="url(#paint5_linear_3514_6462)"/>
<defs>
<linearGradient id="paint0_linear_3514_6462" x1="26.0154" y1="7.66666" x2="26.0154" y2="42.5" gradientUnits="userSpaceOnUse">
<stop stop-color="#0054A5"/>
<stop offset="1" stop-color="#0092D4"/>
</linearGradient>
<linearGradient id="paint1_linear_3514_6462" x1="38.8642" y1="25.0833" x2="13.1667" y2="25.0833" gradientUnits="userSpaceOnUse">
<stop stop-color="#19C76D"/>
<stop offset="1" stop-color="#9DCE15"/>
</linearGradient>
<linearGradient id="paint2_linear_3514_6462" x1="26.0154" y1="7.66666" x2="26.0154" y2="42.5" gradientUnits="userSpaceOnUse">
<stop stop-color="#0054A5"/>
<stop offset="1" stop-color="#0092D4"/>
</linearGradient>
<linearGradient id="paint3_linear_3514_6462" x1="26.0154" y1="7.66666" x2="26.0154" y2="42.5" gradientUnits="userSpaceOnUse">
<stop stop-color="#0054A5"/>
<stop offset="1" stop-color="#0092D4"/>
</linearGradient>
<linearGradient id="paint4_linear_3514_6462" x1="43.6" y1="12.8" x2="37" y2="12.8" gradientUnits="userSpaceOnUse">
<stop stop-color="#19C76D"/>
<stop offset="1" stop-color="#9DCE15"/>
</linearGradient>
<linearGradient id="paint5_linear_3514_6462" x1="12.4333" y1="17.3833" x2="7.66667" y2="17.3833" gradientUnits="userSpaceOnUse">
<stop stop-color="#19C76D"/>
<stop offset="1" stop-color="#9DCE15"/>
</linearGradient>
</defs>
</svg>
