<svg width="25" height="24" viewBox="0 0 25 24" fill="none" xmlns="http://www.w3.org/2000/svg">
<path fill-rule="evenodd" clip-rule="evenodd" d="M3.68408 10.0454C3.68408 9.64076 4.01168 9.31274 4.41579 9.31274H20.0255C20.4297 9.31274 20.7573 9.64076 20.7573 10.0454V17.8603C20.7573 19.3661 20.516 20.6032 19.6893 21.431C18.8625 22.2588 17.6271 22.5003 16.1231 22.5003H8.31823C6.81428 22.5003 5.5788 22.2588 4.75205 21.431C3.9253 20.6032 3.68408 19.3661 3.68408 17.8603V10.0454ZM5.1475 10.778V17.8603C5.1475 19.285 5.39408 20.0016 5.78684 20.3949C6.1796 20.7881 6.89535 21.035 8.31823 21.035H16.1231C17.546 21.035 18.2617 20.7881 18.6545 20.3949C19.0473 20.0016 19.2938 19.285 19.2938 17.8603V10.778H5.1475Z" fill="#0054A5"/>
<path fill-rule="evenodd" clip-rule="evenodd" d="M3.9546 6.20958C3.81189 6.37735 3.71341 6.66429 3.71341 7.11434V8.0912C3.71341 8.54124 3.81189 8.82818 3.9546 8.99595C4.0782 9.14125 4.33329 9.31227 4.93293 9.31227H19.5671C20.1288 9.31227 20.3925 9.14611 20.5291 8.98937C20.6815 8.81445 20.7866 8.52334 20.7866 8.0912V7.11434C20.7866 6.68219 20.6815 6.39108 20.5291 6.21617C20.3925 6.05942 20.1288 5.89327 19.5671 5.89327H4.93293C4.33329 5.89327 4.0782 6.06428 3.9546 6.20958ZM2.84052 5.25947C3.31936 4.69655 4.03988 4.42798 4.93293 4.42798H19.5671C20.4395 4.42798 21.1514 4.70141 21.6319 5.25289C22.0965 5.78619 22.25 6.47194 22.25 7.11434V8.0912C22.25 8.73359 22.0965 9.41934 21.6319 9.95265C21.1514 10.5041 20.4395 10.7776 19.5671 10.7776H4.93293C4.03988 10.7776 3.31936 10.509 2.84052 9.94606C2.38079 9.40561 2.25 8.71569 2.25 8.0912V7.11434C2.25 6.48984 2.38079 5.79992 2.84052 5.25947Z" fill="#0054A5"/>
<path fill-rule="evenodd" clip-rule="evenodd" d="M8.72776 3.02178C8.65253 2.94646 8.5207 2.94646 8.44547 3.02178L7.06011 4.40892C7.05394 4.41509 7.04829 4.42151 7.04314 4.42813H10.1323L8.72776 3.02178ZM7.41068 1.98566C8.05741 1.33811 9.11582 1.33811 9.76255 1.98566L12.4162 4.64272C12.6255 4.85225 12.6881 5.16737 12.5748 5.44114C12.4616 5.71491 12.1948 5.89342 11.8988 5.89342H6.51344C6.30865 5.89342 6.11323 5.80749 5.97467 5.6565C5.37741 5.00571 5.3971 4.00182 6.02532 3.3728L7.41068 1.98566Z" fill="#0054A5"/>
<path fill-rule="evenodd" clip-rule="evenodd" d="M16.0448 3.02178C15.9696 2.94646 15.8377 2.94646 15.7625 3.02178L14.358 4.42813H17.4471C17.442 4.42151 17.4363 4.41509 17.4302 4.40892L16.0448 3.02178ZM14.7277 1.98566C15.3745 1.33811 16.4329 1.33811 17.0796 1.98566L18.465 3.3728C19.0932 4.00182 19.1129 5.00571 18.5156 5.6565C18.377 5.80749 18.1816 5.89342 17.9768 5.89342H12.5915C12.2955 5.89342 12.0287 5.71491 11.9155 5.44114C11.8022 5.16737 11.8648 4.85225 12.0741 4.64272L14.7277 1.98566Z" fill="#0054A5"/>
<path fill-rule="evenodd" clip-rule="evenodd" d="M8.53284 10.0454C8.53284 9.64076 8.86043 9.31274 9.26454 9.31274H15.1475C15.5516 9.31274 15.8792 9.64076 15.8792 10.0454V15.0567C15.8792 16.4272 14.3563 17.2293 13.2294 16.4771L13.2263 16.475L12.3601 15.8903C12.288 15.8427 12.1858 15.8362 12.0932 15.8952L11.172 16.5036C10.0411 17.2304 8.53284 16.4389 8.53284 15.0664V10.0454ZM9.99625 10.778V15.0664C9.99625 15.256 10.203 15.3825 10.3788 15.2721L11.2963 14.6662C11.8662 14.297 12.6015 14.2904 13.1729 14.6717L13.176 14.6738L14.0422 15.2586C14.203 15.3647 14.4158 15.2487 14.4158 15.0567V10.778H9.99625Z" fill="#0054A5"/>
</svg>
