<svg width="25" height="24" viewBox="0 0 25 24" fill="none" xmlns="http://www.w3.org/2000/svg">
<path d="M12.125 18C12.125 18.1989 12.204 18.3897 12.3447 18.5303C12.4853 18.671 12.6761 18.75 12.875 18.75C13.0739 18.75 13.2647 18.671 13.4053 18.5303C13.546 18.3897 13.625 18.1989 13.625 18V15C13.625 14.8011 13.546 14.6103 13.4053 14.4697C13.2647 14.329 13.0739 14.25 12.875 14.25C12.6761 14.25 12.4853 14.329 12.3447 14.4697C12.204 14.6103 12.125 14.8011 12.125 15V18Z" fill="#0054A5"/>
<path fill-rule="evenodd" clip-rule="evenodd" d="M12.875 1.25C12.15 1.25 11.488 1.45 10.765 1.787C10.063 2.114 9.253 2.597 8.237 3.202L6.781 4.069C5.662 4.736 4.771 5.267 4.095 5.775C3.398 6.3 2.875 6.84 2.535 7.551C2.193 8.262 2.101 9.007 2.13 9.876C2.159 10.717 2.306 11.74 2.49 13.022L2.783 15.054C3.02 16.704 3.209 18.013 3.49 19.032C3.78 20.082 4.192 20.917 4.935 21.556C5.677 22.196 6.565 22.481 7.651 22.618C8.707 22.75 10.038 22.75 11.717 22.75H14.033C15.713 22.75 17.043 22.75 18.099 22.618C19.185 22.481 20.073 22.196 20.815 21.557C21.558 20.917 21.97 20.083 22.26 19.032C22.541 18.012 22.73 16.704 22.967 15.054L23.259 13.022C23.444 11.74 23.591 10.717 23.619 9.876C23.649 9.006 23.557 8.262 23.216 7.551C22.875 6.84 22.352 6.3 21.655 5.775C20.98 5.267 20.088 4.736 18.969 4.069L17.513 3.202C16.497 2.597 15.687 2.114 14.986 1.787C14.262 1.449 13.6 1.25 12.875 1.25ZM8.971 4.511C10.028 3.881 10.774 3.438 11.399 3.146C12.008 2.862 12.446 2.75 12.875 2.75C13.305 2.75 13.742 2.862 14.351 3.146C14.976 3.438 15.721 3.881 16.779 4.511L18.164 5.336C19.329 6.03 20.15 6.52 20.754 6.974C21.341 7.417 21.664 7.783 21.864 8.199C22.063 8.615 22.146 9.093 22.121 9.825C22.095 10.575 21.961 11.516 21.769 12.851L21.489 14.788C21.243 16.502 21.067 17.716 20.814 18.633C20.567 19.529 20.269 20.048 19.837 20.42C19.404 20.793 18.843 21.013 17.912 21.13C16.961 21.249 15.724 21.25 13.982 21.25H11.769C10.026 21.25 8.789 21.249 7.838 21.13C6.908 21.013 6.346 20.793 5.913 20.42C5.481 20.048 5.183 19.529 4.936 18.633C4.683 17.716 4.506 16.502 4.26 14.788L3.981 12.851C3.789 11.516 3.655 10.574 3.629 9.825C3.604 9.093 3.687 8.615 3.887 8.199C4.087 7.783 4.408 7.417 4.997 6.974C5.6 6.52 6.421 6.03 7.586 5.336L8.971 4.511Z" fill="#0054A5"/>
</svg>
