<svg width="25" height="24" viewBox="0 0 25 24" fill="none" xmlns="http://www.w3.org/2000/svg">
<path d="M13.125 6C13.125 5.80109 13.046 5.61032 12.9053 5.46967C12.7647 5.32902 12.5739 5.25 12.375 5.25C12.1761 5.25 11.9853 5.32902 11.8447 5.46967C11.704 5.61032 11.625 5.80109 11.625 6V10C11.625 10.1989 11.704 10.3897 11.8447 10.5303C11.9853 10.671 12.1761 10.75 12.375 10.75C12.5739 10.75 12.7647 10.671 12.9053 10.5303C13.046 10.3897 13.125 10.1989 13.125 10V6Z" fill="#989B9E"/>
<path fill-rule="evenodd" clip-rule="evenodd" d="M4.625 9C4.625 6.94457 5.44151 4.97333 6.89492 3.51992C8.34832 2.06652 10.3196 1.25 12.375 1.25C14.4304 1.25 16.4017 2.06652 17.8551 3.51992C19.3085 4.97333 20.125 6.94457 20.125 9V9.704C20.125 10.401 20.331 11.082 20.718 11.662L21.866 13.385C23.2 15.385 22.182 18.103 19.863 18.735C19.108 18.941 18.346 19.115 17.579 19.258L17.577 19.263C16.808 21.315 14.753 22.75 12.375 22.75C9.997 22.75 7.942 21.315 7.173 19.263L7.171 19.258C6.40281 19.1151 5.64083 18.9406 4.887 18.735C2.568 18.103 1.55 15.385 2.884 13.385L4.032 11.662C4.4186 11.0822 4.62494 10.4009 4.625 9.704V9ZM8.998 19.537C11.241 19.805 13.508 19.805 15.751 19.537C15.041 20.558 13.804 21.25 12.375 21.25C10.946 21.25 9.709 20.558 8.998 19.537ZM12.375 2.75C10.7174 2.75 9.12768 3.40848 7.95558 4.58058C6.78348 5.75269 6.125 7.3424 6.125 9V9.704C6.1249 10.697 5.83089 11.6678 5.28 12.494L4.132 14.217C3.95433 14.4835 3.84254 14.7883 3.80583 15.1065C3.76912 15.4246 3.80854 15.747 3.92086 16.0469C4.03317 16.3468 4.21515 16.6157 4.45181 16.8315C4.68846 17.0473 4.97301 17.2038 5.282 17.288C9.92619 18.5546 14.8248 18.5546 19.469 17.288C19.778 17.2039 20.0625 17.0476 20.2992 16.8319C20.5358 16.6162 20.7178 16.3473 20.8302 16.0475C20.9425 15.7476 20.9819 15.4254 20.9452 15.1073C20.9085 14.7892 20.7967 14.4844 20.619 14.218L19.469 12.494C18.9185 11.6677 18.6248 10.6969 18.625 9.704V9C18.625 7.3424 17.9665 5.75269 16.7944 4.58058C15.6223 3.40848 14.0326 2.75 12.375 2.75Z" fill="#989B9E"/>
</svg>
