<svg width="25" height="24" viewBox="0 0 25 24" fill="none" xmlns="http://www.w3.org/2000/svg">
<path fill-rule="evenodd" clip-rule="evenodd" d="M4.05908 10.0454C4.05908 9.64076 4.38668 9.31274 4.79079 9.31274H20.4005C20.8047 9.31274 21.1323 9.64076 21.1323 10.0454V17.8603C21.1323 19.3661 20.891 20.6032 20.0643 21.431C19.2375 22.2588 18.0021 22.5003 16.4981 22.5003H8.69323C7.18928 22.5003 5.9538 22.2588 5.12705 21.431C4.3003 20.6032 4.05908 19.3661 4.05908 17.8603V10.0454ZM5.5225 10.778V17.8603C5.5225 19.285 5.76908 20.0016 6.16184 20.3949C6.5546 20.7881 7.27035 21.035 8.69323 21.035H16.4981C17.921 21.035 18.6367 20.7881 19.0295 20.3949C19.4223 20.0016 19.6688 19.285 19.6688 17.8603V10.778H5.5225Z" fill="#989B9E"/>
<path fill-rule="evenodd" clip-rule="evenodd" d="M4.3296 6.2097C4.18689 6.37748 4.08841 6.66441 4.08841 7.11446V8.09132C4.08841 8.54136 4.18689 8.8283 4.3296 8.99608C4.4532 9.14137 4.70829 9.31239 5.30793 9.31239H19.9421C20.5038 9.31239 20.7675 9.14623 20.9041 8.98949C21.0565 8.81457 21.1616 8.52347 21.1616 8.09132V7.11446C21.1616 6.68231 21.0565 6.39121 20.9041 6.21629C20.7675 6.05954 20.5038 5.89339 19.9421 5.89339H5.30793C4.70829 5.89339 4.4532 6.0644 4.3296 6.2097ZM3.21552 5.25959C3.69436 4.69667 4.41488 4.4281 5.30793 4.4281H19.9421C20.8145 4.4281 21.5264 4.70153 22.0069 5.25301C22.4715 5.78631 22.625 6.47206 22.625 7.11446V8.09132C22.625 8.73371 22.4715 9.41947 22.0069 9.95277C21.5264 10.5042 20.8145 10.7777 19.9421 10.7777H5.30793C4.41488 10.7777 3.69436 10.5091 3.21552 9.94618C2.75579 9.40574 2.625 8.71581 2.625 8.09132V7.11446C2.625 6.48996 2.75579 5.80004 3.21552 5.25959Z" fill="#989B9E"/>
<path fill-rule="evenodd" clip-rule="evenodd" d="M9.10276 3.02178C9.02753 2.94646 8.8957 2.94646 8.82047 3.02178L7.43511 4.40892C7.42894 4.41509 7.42329 4.42151 7.41814 4.42813H10.5073L9.10276 3.02178ZM7.78568 1.98566C8.43241 1.33811 9.49082 1.33811 10.1375 1.98566L12.7912 4.64272C13.0005 4.85225 13.0631 5.16737 12.9498 5.44114C12.8366 5.71491 12.5698 5.89342 12.2738 5.89342H6.88844C6.68365 5.89342 6.48823 5.80749 6.34967 5.6565C5.75241 5.00571 5.7721 4.00182 6.40032 3.3728L7.78568 1.98566Z" fill="#989B9E"/>
<path fill-rule="evenodd" clip-rule="evenodd" d="M16.4198 3.02178C16.3446 2.94646 16.2127 2.94646 16.1375 3.02178L14.733 4.42813H17.8221C17.817 4.42151 17.8113 4.41509 17.8052 4.40892L16.4198 3.02178ZM15.1027 1.98566C15.7494 1.33811 16.8079 1.33811 17.4546 1.98566L18.8399 3.3728C19.4682 4.00182 19.4879 5.00571 18.8906 5.6565C18.752 5.80749 18.5566 5.89342 18.3518 5.89342H12.9665C12.6705 5.89342 12.4037 5.71491 12.2904 5.44114C12.1772 5.16737 12.2398 4.85225 12.4491 4.64272L15.1027 1.98566Z" fill="#989B9E"/>
<path fill-rule="evenodd" clip-rule="evenodd" d="M8.90784 10.0454C8.90784 9.64076 9.23543 9.31274 9.63954 9.31274H15.5225C15.9266 9.31274 16.2542 9.64076 16.2542 10.0454V15.0567C16.2542 16.4272 14.7313 17.2293 13.6044 16.4771L13.6013 16.475L12.7351 15.8903C12.663 15.8427 12.5608 15.8362 12.4682 15.8952L11.547 16.5036C10.4161 17.2304 8.90784 16.4389 8.90784 15.0664V10.0454ZM10.3713 10.778V15.0664C10.3713 15.256 10.578 15.3825 10.7538 15.2721L11.6713 14.6662C12.2412 14.297 12.9765 14.2904 13.5479 14.6717L13.551 14.6738L14.4172 15.2586C14.578 15.3647 14.7908 15.2487 14.7908 15.0567V10.778H10.3713Z" fill="#989B9E"/>
</svg>
