<svg width="18" height="16" viewBox="0 0 18 16" fill="none" xmlns="http://www.w3.org/2000/svg">
<path fill-rule="evenodd" clip-rule="evenodd" d="M0.875 4.875C0.875 2.43523 2.92741 0.5 5.40667 0.5C6.86353 0.5 8.1686 1.16567 9 2.2093C9.83146 1.16563 11.1367 0.5 12.5942 0.5C15.0718 0.5 17.125 2.43523 17.125 4.875C17.125 8.14569 15.0935 10.8011 13.1762 12.5884C12.2073 13.4916 11.2411 14.1983 10.5179 14.6791C10.1557 14.9199 9.85294 15.105 9.63922 15.2308C9.53233 15.2937 9.44759 15.3418 9.38871 15.3746C9.35927 15.391 9.33628 15.4037 9.3202 15.4124L9.30133 15.4226L9.29589 15.4255L9.29418 15.4264C9.29396 15.4266 9.29316 15.427 9 14.875C8.70684 15.427 8.70664 15.4269 8.70641 15.4268L8.70411 15.4255L8.69867 15.4226L8.6798 15.4124C8.66372 15.4037 8.64073 15.391 8.61129 15.3746C8.55241 15.3418 8.46767 15.2937 8.36078 15.2308C8.14706 15.105 7.84429 14.9199 7.4821 14.6791C6.75894 14.1983 5.79267 13.4916 4.82382 12.5884C2.90652 10.8011 0.875 8.14569 0.875 4.875ZM9 14.875L8.70641 15.4268C8.88973 15.5241 9.10985 15.5243 9.29316 15.427L9 14.875ZM9 14.1565C9.00176 14.1555 9.00353 14.1545 9.00531 14.1534C9.20175 14.0378 9.48492 13.8648 9.82585 13.6381C10.5089 13.184 11.4177 12.5188 12.3238 11.6741C14.1565 9.96561 15.875 7.62098 15.875 4.875C15.875 3.17311 14.4299 1.75 12.5942 1.75C11.2251 1.75 10.0654 2.54536 9.57103 3.65657C9.47066 3.88215 9.2469 4.0275 9 4.0275C8.7531 4.0275 8.52934 3.88215 8.42897 3.65657C7.93453 2.54529 6.7748 1.75 5.40667 1.75C3.56926 1.75 2.125 3.17311 2.125 4.875C2.125 7.62098 3.84348 9.96561 5.67618 11.6741C6.58233 12.5188 7.49106 13.184 8.17414 13.6381C8.51508 13.8648 8.79825 14.0378 8.99469 14.1534C8.99647 14.1545 8.99824 14.1555 9 14.1565Z" fill="#989B9E"/>
</svg>
