<svg width="22" height="20" viewBox="0 0 22 20" fill="none" xmlns="http://www.w3.org/2000/svg">
<path d="M10.6154 19.6526L10.6078 19.6493L10.584 19.6363L10.4952 19.5876C10.4172 19.5442 10.3085 19.4818 10.1691 19.4002C8.52014 18.4201 6.97907 17.2691 5.57142 15.966C3.07867 13.6401 0.4375 10.1886 0.4375 5.93758C0.4375 2.76558 3.10683 0.250077 6.32867 0.250077C7.22432 0.24569 8.10943 0.443279 8.91818 0.828149C9.72693 1.21302 10.4385 1.77527 11 2.47308C11.5616 1.77512 12.2734 1.21279 13.0823 0.827913C13.8913 0.443037 14.7766 0.245527 15.6724 0.250077C18.8932 0.250077 21.5625 2.76558 21.5625 5.93758C21.5625 10.1897 18.9213 13.6412 16.4286 15.9649C15.022 17.2692 13.4808 18.4204 11.8309 19.3991C11.6938 19.4802 11.5555 19.5593 11.416 19.6363L11.3922 19.6493L11.3846 19.6537L11.3813 19.6547C11.2639 19.7172 11.133 19.7498 11 19.7498C10.867 19.7498 10.7361 19.7172 10.6187 19.6547L10.6154 19.6526Z" fill="#FF4842"/>
</svg>
