<svg width="20" height="20" viewBox="0 0 20 20" fill="none" xmlns="http://www.w3.org/2000/svg">
<circle cx="10" cy="10" r="10" fill="url(#paint0_linear_3514_3821)"/>
<circle cx="10" cy="10" r="9.375" stroke="#44A5D8" stroke-opacity="0.5" stroke-width="1.25"/>
<path d="M11.0024 13.9342C11.2986 14.1368 11.6627 14.2147 12.0158 14.1508C13.0814 13.9859 12.5103 12.1951 12.3109 11.4969C12.0778 10.6792 11.6747 9.71347 11.9258 8.86129C12.0193 8.63305 12.1783 8.43765 12.3829 8.2998C12.5874 8.16196 12.8282 8.08785 13.0748 8.08685C14.3236 8.08685 14.6781 9.81568 14.6781 10.7731C14.6781 11.8468 14.3891 14.1098 12.5961 14.4762C11.4842 14.7038 11.0518 13.9777 11.0018 13.9342" fill="white"/>
<path d="M13.8659 14.189C13.8659 14.189 13.0142 15.0455 12.0375 14.9058C9.33572 14.521 10.7684 11.7447 11.0429 10.3363C11.3705 8.68083 11.6881 6.66481 11.0429 5.04519C10.8297 4.54289 10.4315 4.14181 9.9308 3.925C9.43006 3.70818 8.86511 3.69225 8.35294 3.88048C6.89689 4.41774 6.46752 6.66481 6.32447 8.04813C6.27805 8.47613 6.2532 8.90618 6.25 9.33667C6.25 11.4684 7.23519 16.25 10.6616 16.25C12.7759 16.25 13.6458 14.332 13.8655 14.189" fill="white"/>
<defs>
<linearGradient id="paint0_linear_3514_3821" x1="9.86607" y1="-2.5" x2="10" y2="20" gradientUnits="userSpaceOnUse">
<stop stop-color="#0C64F2"/>
<stop offset="1" stop-color="#44A5D8"/>
</linearGradient>
</defs>
</svg>
