<svg width="25" height="24" viewBox="0 0 25 24" fill="none" xmlns="http://www.w3.org/2000/svg">
<path d="M8.85199 19.9875C9.28714 20.5377 9.84164 20.9819 10.4736 21.2864C11.1056 21.591 11.7985 21.748 12.5 21.7455C13.2015 21.748 13.8944 21.591 14.5264 21.2864C15.1583 20.9819 15.7128 20.5377 16.148 19.9875C13.7271 20.3156 11.2729 20.3156 8.85199 19.9875Z" fill="white"/>
<path fill-rule="evenodd" clip-rule="evenodd" d="M19.25 9.704V9C19.25 5.134 16.227 2 12.5 2C8.773 2 5.75 5.134 5.75 9V9.704C5.75 10.549 5.51 11.375 5.058 12.078L3.95 13.801C2.939 15.375 3.711 17.514 5.47 18.011C10.0662 19.313 14.9338 19.313 19.53 18.011C21.289 17.514 22.061 15.375 21.05 13.801L19.942 12.078C19.4885 11.3693 19.249 10.5454 19.25 9.704ZM12.5 5.25C12.6989 5.25 12.8897 5.32902 13.0303 5.46967C13.171 5.61032 13.25 5.80109 13.25 6V10C13.25 10.1989 13.171 10.3897 13.0303 10.5303C12.8897 10.671 12.6989 10.75 12.5 10.75C12.3011 10.75 12.1103 10.671 11.9697 10.5303C11.829 10.3897 11.75 10.1989 11.75 10V6C11.75 5.80109 11.829 5.61032 11.9697 5.46967C12.1103 5.32902 12.3011 5.25 12.5 5.25Z" fill="white"/>
</svg>
