<svg width="53" height="52" viewBox="0 0 53 52" fill="none" xmlns="http://www.w3.org/2000/svg">
<path d="M0.5 16C0.5 7.16344 7.66344 0 16.5 0H36.5C45.3366 0 52.5 7.16344 52.5 16V36C52.5 44.8366 45.3366 52 36.5 52H16.5C7.66344 52 0.5 44.8366 0.5 36V16Z" fill="#E2F5FF"/>
<path d="M41.967 27.0337C41.6936 27.0334 41.4315 26.9243 41.2382 26.7309C41.0449 26.5376 40.9361 26.2759 40.9358 26.0025C40.9318 22.1747 39.4094 18.5048 36.7027 15.7982C33.996 13.0915 30.3262 11.5691 26.4984 11.5651C26.2249 11.5651 25.9623 11.4564 25.7689 11.263C25.5755 11.0696 25.4671 10.8074 25.4671 10.5339C25.4671 10.2604 25.5755 9.99814 25.7689 9.80475C25.9623 9.61135 26.2249 9.50262 26.4984 9.50262C30.8744 9.50262 35.071 11.2409 38.1653 14.3352C41.2596 17.4296 42.9982 21.6265 42.9982 26.0025C42.9982 26.276 42.8895 26.5382 42.6961 26.7316C42.5027 26.925 42.2405 27.0337 41.967 27.0337Z" fill="url(#paint0_linear_3609_7228)"/>
<path d="M37.842 27.0338C37.5686 27.0334 37.3066 26.9243 37.1132 26.731C36.9199 26.5377 36.8112 26.2759 36.8108 26.0025C36.8075 23.2685 35.7198 20.6473 33.7866 18.714C31.8533 16.7808 29.2324 15.6934 26.4984 15.6901C26.2249 15.6901 25.9623 15.5814 25.7689 15.388C25.5755 15.1946 25.4671 14.9324 25.4671 14.6589C25.4671 14.3854 25.5755 14.1231 25.7689 13.9297C25.9623 13.7364 26.2249 13.6276 26.4984 13.6276C29.7794 13.6309 32.9251 14.9357 35.2451 17.2558C37.5652 19.5758 38.87 22.7215 38.8733 26.0025C38.8733 26.276 38.7645 26.5382 38.5712 26.7316C38.3778 26.925 38.1155 27.0338 37.842 27.0338Z" fill="url(#paint1_linear_3609_7228)"/>
<path d="M33.7171 27.0338C33.4436 27.0338 33.181 26.9251 32.9876 26.7317C32.7942 26.5383 32.6858 26.2761 32.6858 26.0026C32.684 24.3621 32.0314 22.7892 30.8714 21.6292C29.7114 20.4692 28.1388 19.8169 26.4984 19.8151C26.2249 19.8151 25.9623 19.7064 25.7689 19.513C25.5755 19.3196 25.4671 19.0574 25.4671 18.7839C25.4671 18.5104 25.5755 18.2481 25.7689 18.0547C25.9623 17.8614 26.2249 17.7526 26.4984 17.7526C28.6856 17.7552 30.7824 18.625 32.329 20.1716C33.8756 21.7182 34.7458 23.8153 34.7483 26.0026C34.7483 26.2761 34.6396 26.5383 34.4462 26.7317C34.2528 26.9251 33.9906 27.0338 33.7171 27.0338Z" fill="url(#paint2_linear_3609_7228)"/>
<path d="M42.9999 33.1938C43.0066 34.7293 42.6284 36.2423 41.8999 37.5941C41.107 39.0757 39.927 40.3142 38.4859 41.1786C37.0448 42.0429 35.3965 42.5007 33.7161 42.5025C32.6393 42.5005 31.5711 42.3094 30.5602 41.9386C25.9701 40.2648 21.8017 37.6076 18.3471 34.1526C14.8926 30.6975 12.2356 26.5285 10.5625 21.9381C10.0345 20.5051 9.8748 18.9621 10.0979 17.4513C10.3123 16.0138 10.8587 14.6466 11.6941 13.4572C12.5295 12.2679 13.6308 11.2893 14.9103 10.5998C16.2618 9.8708 17.7746 9.49285 19.3102 9.5001C19.546 9.50016 19.7744 9.58093 19.9578 9.72904C20.1412 9.87715 20.2683 10.0834 20.318 10.3138L21.9363 17.8669C21.9731 18.035 21.9672 18.2092 21.9192 18.3744C21.8712 18.5396 21.7825 18.6906 21.6614 18.8128L18.8963 21.5762C21.513 26.7721 25.7303 30.9894 30.9261 33.606L33.6912 30.8426C33.813 30.7209 33.9636 30.6316 34.129 30.5835C34.2943 30.5354 34.4691 30.5299 34.6372 30.5674L42.1899 32.1861C42.4198 32.2361 42.6256 32.3632 42.773 32.5466C42.9204 32.73 43.0006 32.9585 42.9999 33.1938Z" fill="url(#paint3_linear_3609_7228)"/>
<path d="M16.9249 11.8855C15.3895 11.8797 13.8771 12.2576 12.525 12.9852C12.2251 13.1477 11.934 13.3265 11.6532 13.5203L11.6875 13.4692C12.5252 12.2769 13.6285 11.2955 14.9104 10.6024C16.262 9.87347 17.7751 9.49553 19.3107 9.50273C19.5464 9.50278 19.7748 9.58356 19.9582 9.73167C20.1416 9.87978 20.2688 10.086 20.3184 10.3164L21.9368 17.8695C21.9734 18.0376 21.9673 18.2118 21.9193 18.377C21.8713 18.5422 21.7829 18.6932 21.6618 18.8155L19.2774 21.1995C19.3986 21.0773 19.4872 20.927 19.5352 20.7618C19.5833 20.5966 19.5891 20.4217 19.5524 20.2536L17.934 12.7025C17.8848 12.4714 17.7579 12.2637 17.5741 12.1151C17.3904 11.9664 17.1613 11.8853 16.9249 11.8855Z" fill="url(#paint4_linear_3609_7228)"/>
<path d="M30.9198 33.6114L29.5449 34.9797C29.2433 35.281 28.8507 35.4744 28.428 35.5296C28.0053 35.5848 27.5763 35.4989 27.2074 35.2852C23.0517 32.8941 19.6031 29.4451 17.2126 25.289C16.9995 24.92 16.914 24.4909 16.9692 24.0684C17.0244 23.6459 17.2174 23.2531 17.5181 22.9512L18.886 21.5829C21.5043 26.7787 25.7229 30.9955 30.9198 33.6114Z" fill="url(#paint5_linear_3609_7228)"/>
<path d="M42.9986 33.1933C43.0053 34.7288 42.6271 36.2418 41.8986 37.5935C41.2049 38.8754 40.2231 39.9791 39.0304 40.8168L38.9794 40.8511C39.1731 40.5708 39.3507 40.2793 39.5115 39.9789C40.2396 38.6271 40.6178 37.1149 40.6115 35.5794C40.6119 35.3433 40.5311 35.1143 40.3826 34.9308C40.2341 34.7473 40.0271 34.6206 39.7961 34.5716L32.2434 32.9529C32.0757 32.9166 31.9016 32.923 31.7369 32.9711C31.5721 33.0191 31.422 33.1074 31.3001 33.2282L33.6846 30.8448C33.8065 30.7233 33.957 30.6344 34.1223 30.5863C34.2876 30.5383 34.4624 30.533 34.6305 30.5702L42.1832 32.1882C42.414 32.2374 42.6209 32.3646 42.7693 32.5481C42.9178 32.7316 42.9988 32.9607 42.9986 33.1967V33.1933Z" fill="url(#paint6_linear_3609_7228)"/>
<defs>
<linearGradient id="paint0_linear_3609_7228" x1="25.6775" y1="10.1999" x2="44.181" y2="11.1706" gradientUnits="userSpaceOnUse">
<stop stop-color="#44A5D8"/>
<stop offset="1" stop-color="#15C770"/>
</linearGradient>
<linearGradient id="paint1_linear_3609_7228" x1="25.628" y1="14.1608" x2="39.7778" y2="14.9031" gradientUnits="userSpaceOnUse">
<stop stop-color="#44A5D8"/>
<stop offset="1" stop-color="#15C770"/>
</linearGradient>
<linearGradient id="paint2_linear_3609_7228" x1="25.5785" y1="18.1218" x2="35.3745" y2="18.6356" gradientUnits="userSpaceOnUse">
<stop stop-color="#44A5D8"/>
<stop offset="1" stop-color="#15C770"/>
</linearGradient>
<linearGradient id="paint3_linear_3609_7228" x1="41.3498" y1="26.0013" x2="25.6718" y2="40.828" gradientUnits="userSpaceOnUse">
<stop stop-color="#A1CF12"/>
<stop offset="1" stop-color="#19C76D"/>
</linearGradient>
<linearGradient id="paint4_linear_3609_7228" x1="11.6532" y1="15.4502" x2="19.5496" y2="15.4502" gradientUnits="userSpaceOnUse">
<stop stop-color="#004692"/>
<stop offset="1" stop-color="#0094D5"/>
</linearGradient>
<linearGradient id="paint5_linear_3609_7228" x1="16.9529" y1="28.6827" x2="27.653" y2="28.6827" gradientUnits="userSpaceOnUse">
<stop stop-color="#004692"/>
<stop offset="1" stop-color="#0094D5"/>
</linearGradient>
<linearGradient id="paint6_linear_3609_7228" x1="31.3001" y1="35.7858" x2="40.2624" y2="35.7858" gradientUnits="userSpaceOnUse">
<stop stop-color="#004692"/>
<stop offset="1" stop-color="#0094D5"/>
</linearGradient>
</defs>
</svg>
