<svg width="11" height="13" viewBox="0 0 11 13" fill="none" xmlns="http://www.w3.org/2000/svg">
<path d="M5.99989 11.6214C8.71238 11.6214 10.9113 9.57186 10.9113 7.04362C10.9113 4.51537 8.71238 2.46582 5.99989 2.46582C3.28741 2.46582 1.0885 4.51537 1.0885 7.04362C1.0885 9.57186 3.28741 11.6214 5.99989 11.6214Z" fill="#FDDB00"/>
<path d="M4.84265 11.4928C4.90113 11.5058 4.9596 11.5184 5.01891 11.5298V5.78125H4.84265V11.4928Z" fill="#FFDE00"/>
<path d="M9.70435 10.049V4.58691H9.52515V10.2307C9.58614 10.1714 9.6463 10.1108 9.70435 10.049Z" fill="#FFDE00"/>
<path d="M8.75153 10.8364C8.93598 10.72 9.11236 10.5913 9.27947 10.4511V5.11523H8.75153V10.8364Z" fill="#FFDE00"/>
<path d="M1.72961 9.30499C2.17748 10.0298 2.81103 10.6217 3.5646 11.0192V5.50586H1.72961V9.30499Z" fill="#FFDE00"/>
<path d="M4.00421 11.2266C4.17654 11.2982 4.35264 11.3602 4.53174 11.4126V5.78223H4.00421V11.2266Z" fill="#FFDE00"/>
<path d="M6.16664 11.3167C6.77594 11.3477 7.38497 11.2506 7.95438 11.0315C8.52379 10.8125 9.04091 10.4764 9.47231 10.045C9.90371 9.6136 10.2398 9.09649 10.4589 8.52708C10.6779 7.95767 10.7751 7.34863 10.744 6.73933C10.6818 5.45691 10.1444 4.24358 9.23657 3.33567C8.32874 2.42776 7.11545 1.89028 5.83304 1.82794C5.22367 1.79683 4.61455 1.89394 4.04506 2.113C3.47557 2.33205 2.95838 2.66816 2.52692 3.09962C2.09547 3.53107 1.75935 4.04826 1.5403 4.61775C1.32125 5.18724 1.22414 5.79636 1.25524 6.40573C1.31759 7.68814 1.85507 8.90143 2.76298 9.80926C3.67089 10.7171 4.88422 11.2545 6.16664 11.3167Z" fill="#FFFE00"/>
<path d="M6.16664 11.2444C6.77594 11.2755 7.38497 11.1783 7.95438 10.9593C8.52379 10.7402 9.04091 10.4041 9.47231 9.97274C9.90371 9.54134 10.2398 9.02422 10.4589 8.45481C10.6779 7.8854 10.7751 7.27637 10.744 6.66706C10.6818 5.38465 10.1444 4.17132 9.23657 3.2634C8.32874 2.35549 7.11545 1.81802 5.83304 1.75567C5.22367 1.72457 4.61455 1.82168 4.04506 2.04073C3.47557 2.25978 2.95838 2.5959 2.52692 3.02735C2.09547 3.4588 1.75935 3.97599 1.5403 4.54548C1.32125 5.11497 1.22414 5.72409 1.25524 6.33347C1.31759 7.61588 1.85507 8.82916 2.76298 9.737C3.67089 10.6448 4.88422 11.1822 6.16664 11.2444Z" fill="#FFDE00"/>
<path opacity="0.6" d="M6.31202 1.93262L1.09943 6.791C1.16129 7.6864 1.49752 8.54099 2.06235 9.2385L8.93788 2.83034C8.16223 2.29447 7.25339 1.98375 6.31202 1.93262V1.93262Z" fill="#FFFB00"/>
<path opacity="0.6" d="M10.8928 6.11583C10.8467 5.6013 10.7084 5.09927 10.4843 4.63379L3.9975 10.6797C4.5041 10.8895 5.04087 11.0173 5.58765 11.0584L10.8928 6.11583Z" fill="#FFFB00"/>
<path opacity="0.6" d="M10.0039 3.84826C9.92819 3.7515 9.85078 3.65727 9.76917 3.56641L2.85242 10.0133C2.94959 10.0894 3.05098 10.1613 3.15488 10.2299L10.0039 3.84826Z" fill="#FFFB00"/>
<path opacity="0.36" d="M9.10179 9.39074C9.50628 9.02555 9.82963 8.57954 10.051 8.08154C10.2723 7.58355 10.3866 7.04466 10.3866 6.4997C10.3866 5.95475 10.2723 5.41585 10.051 4.91786C9.82963 4.41987 9.50628 3.97386 9.10179 3.60866C8.25251 2.83803 7.14675 2.41116 5.99994 2.41122C4.85314 2.41127 3.74742 2.83825 2.89821 3.60896C2.49372 3.97415 2.17037 4.42016 1.94905 4.91816C1.72773 5.41615 1.61338 5.95504 1.61338 6.5C1.61338 7.04496 1.72773 7.58385 1.94905 8.08184C2.17037 8.57984 2.49372 9.02585 2.89821 9.39104C3.74749 10.1617 4.85325 10.5885 6.00006 10.5885C7.14686 10.5884 8.25258 10.1615 9.10179 9.39074Z" fill="#FFFF66"/>
<path d="M5.99989 1.98921C8.69811 1.98921 10.8911 4.01855 10.9104 6.53251V6.49928C10.8823 3.98995 8.6918 1.9707 5.99947 1.9707C3.30715 1.9707 1.11669 3.98995 1.0885 6.50012V6.53336C1.10785 4.01813 3.30126 1.98879 5.99989 1.98921Z" fill="#FFFF00"/>
<path d="M9.83063 7.14809C10.182 5.17617 8.7518 3.31177 6.63605 2.98425C4.5203 2.65673 2.52057 3.99027 2.16876 5.96212C1.81696 7.93396 3.24807 9.79809 5.36375 10.126C7.47944 10.454 9.47924 9.12 9.83063 7.14809Z" fill="#FFF900"/>
<path d="M8.75361 9.06931C9.1107 8.74717 9.39619 8.35365 9.5916 7.91421C9.787 7.47477 9.88797 6.9992 9.88797 6.51827C9.88797 6.03734 9.787 5.56177 9.5916 5.12233C9.39619 4.68289 9.1107 4.28937 8.75361 3.96723C8.00443 3.28707 7.02882 2.91026 6.01695 2.91026C5.00508 2.91026 4.02946 3.28707 3.28029 3.96723C2.92353 4.28953 2.6384 4.68311 2.44331 5.12253C2.24823 5.56195 2.14754 6.03743 2.14777 6.5182C2.14799 6.99898 2.24912 7.47436 2.44461 7.9136C2.64011 8.35284 2.92561 8.74616 3.28267 9.06812C4.03155 9.74778 5.00659 10.1244 6.01791 10.1246C7.02922 10.1248 8.00442 9.74864 8.75361 9.06931Z" fill="url(#paint0_linear_4034_14288)"/>
<g style="mix-blend-mode:multiply">
<path d="M5.9999 9.96634C3.88726 9.96676 2.16123 8.39259 2.11664 6.42383V6.50039C2.11664 8.49944 3.85529 10.1182 5.9999 10.1182C8.14451 10.1182 9.88316 8.49776 9.88316 6.50039V6.42383C9.83857 8.39259 8.11296 9.96676 5.9999 9.96634Z" fill="#FFDE00"/>
</g>
<path d="M5.9999 2.94253C8.13146 2.94253 9.86423 4.54405 9.88232 6.5309V6.49935C9.84698 4.52427 8.11884 2.94043 5.99948 2.94043C3.88011 2.94043 2.15197 4.52427 2.11664 6.49935V6.53048C2.13473 4.54405 3.86833 2.94043 5.9999 2.94253Z" fill="#FFF128"/>
<path d="M9.5361 3.2427L10.2012 3.3159L9.53863 3.38405L9.48015 3.98814L9.40191 3.38237L8.73682 3.29613L9.39938 3.24102L9.45786 2.62305L9.5361 3.2427Z" fill="#FFFF98"/>
<path d="M2.71402 9.72122L3.37827 9.79442L2.71612 9.86257L2.65723 10.4667L2.5794 9.86088L1.91473 9.77464L2.5773 9.71954L2.63661 9.10156L2.71402 9.72122Z" fill="#FFFF98"/>
<path d="M3.24534 10.3548L3.49144 10.3822L3.24534 10.4074L3.22557 10.6308L3.19654 10.407L2.95087 10.3746L3.19612 10.3544L3.21758 10.126L3.24534 10.3548Z" fill="#FFFF98"/>
<path d="M10.4254 4.44643L10.804 4.48849L10.4254 4.52762L10.3918 4.87299L10.3467 4.52593L9.96814 4.47587L10.3467 4.44474L10.3804 4.0918L10.4254 4.44643Z" fill="#FFFF98"/>
<path d="M8.96607 2.41181L9.22563 2.44042L8.96733 2.46734L8.94462 2.70334L8.91349 2.4644L8.65393 2.43284L8.91265 2.41139L8.93578 2.16992L8.96607 2.41181Z" fill="#FFFF98"/>
<path d="M10.2172 2.59428L10.3855 2.61279L10.2172 2.63046L10.2029 2.78442L10.1815 2.63003L10.0132 2.60816L10.1815 2.59386L10.197 2.43652L10.2172 2.59428Z" fill="#FFFF98"/>
<path d="M8.56683 4.70605L6.79242 8.88126H5.40124L3.62683 4.70605H5.14926L6.15089 7.14598L7.17565 4.70605H8.56683Z" fill="url(#paint1_linear_4034_14288)"/>
<path d="M8.4718 4.5166L6.69739 8.69181H5.30621L3.5318 4.5166H5.05423L6.05586 6.95652L7.08062 4.5166H8.4718Z" fill="url(#paint2_linear_4034_14288)"/>
<path d="M8.28247 4.32812L6.50806 8.50333H5.11688L3.34247 4.32812H4.8649L5.86652 6.76805L6.89129 4.32812H8.28247Z" fill="#FFFB00"/>
<path d="M8.28247 4.32812L6.50806 8.50333H5.11688L3.34247 4.32812H4.8649L5.86652 6.76805L6.89129 4.32812H8.28247Z" fill="#FFFB00"/>
<path d="M4.59103 7.26613L5.69573 6.35074L5.86652 6.76805L6.22662 5.91155L8.13607 4.32812H8.28289L7.55596 6.03775L4.97764 8.17521L4.59103 7.26613ZM4.25155 6.46684L5.36171 5.53967L5.4631 5.78661L4.35461 6.7121L4.25155 6.46684ZM3.34247 4.32812H4.86532L5.06093 4.80517L3.9352 5.72267L3.34247 4.32812ZM6.89171 4.32812H7.21269L6.71881 4.73913L6.89171 4.32812Z" fill="url(#paint3_linear_4034_14288)"/>
<path opacity="0.36" d="M1.80153 4.18582C1.76182 4.20852 1.71651 4.21954 1.67081 4.2176C1.62511 4.21567 1.58089 4.20086 1.54324 4.17489C1.50699 4.15027 1.47917 4.11514 1.46352 4.07421C1.44788 4.03329 1.44516 3.98855 1.45574 3.94604C1.46762 3.90251 1.49215 3.86349 1.52622 3.83391C1.5603 3.80433 1.60238 3.78552 1.64715 3.77987C1.69203 3.77326 1.73787 3.77969 1.77919 3.79842C1.82052 3.81714 1.85558 3.84736 1.8802 3.88546C1.89556 3.91013 1.90573 3.93767 1.91009 3.96641C1.91444 3.99514 1.91289 4.02446 1.90553 4.05258C1.89817 4.08069 1.88515 4.10701 1.86727 4.12992C1.84938 4.15283 1.82702 4.17185 1.80153 4.18582Z" fill="white"/>
<path d="M1.71319 4.10253L1.68332 4.055C1.66178 4.13503 1.63508 4.21358 1.60339 4.29016C1.58404 4.32339 1.60339 4.22074 1.64546 4.05963L1.65009 4.0449C1.62527 4.05836 1.60087 4.07225 1.57563 4.08697C1.47004 4.1425 1.44017 4.15638 1.34762 4.20055C1.31575 4.21824 1.28145 4.23114 1.24582 4.23883L1.24371 4.23631C1.26315 4.21315 1.28704 4.19412 1.31397 4.18036C1.34636 4.15933 1.36445 4.14713 1.3981 4.1282C1.51715 4.05626 1.49906 4.06762 1.62232 3.99905C1.53669 3.97911 1.45239 3.95382 1.36992 3.92333C1.33458 3.90482 1.44311 3.92333 1.61349 3.96539L1.62863 3.96792C1.57731 3.88252 1.52767 3.79586 1.48055 3.70836C1.45995 3.6723 1.44236 3.63459 1.42797 3.59562C1.41198 3.53757 1.51 3.67092 1.64925 3.89262L1.67869 3.94015C1.70023 3.86013 1.72693 3.78158 1.75862 3.705C1.77797 3.67176 1.75862 3.77399 1.71655 3.93553L1.71193 3.94899C1.73675 3.93553 1.76157 3.92164 1.78639 3.90692C1.89198 3.85139 1.92184 3.83751 2.01481 3.79292C2.04675 3.77547 2.08104 3.76272 2.11662 3.75506H2.11914C2.0821 3.7902 2.0405 3.8202 1.99546 3.84424C1.921 3.89346 1.9088 3.90019 1.83266 3.94352L1.74053 3.9961C1.82474 4.01621 1.90764 4.0415 1.98873 4.07183C2.02407 4.09034 1.91595 4.07183 1.74516 4.02976L1.7317 4.02723C1.78302 4.11137 1.83308 4.19887 1.87978 4.28637C1.90124 4.32229 1.91954 4.36001 1.93446 4.39911C1.95129 4.45716 1.85243 4.32423 1.71319 4.10253Z" fill="#FFFF98"/>
<path opacity="0.36" d="M4.75596 7.87142C4.69853 7.85583 4.64716 7.82321 4.60864 7.77785C4.57011 7.73249 4.54624 7.67653 4.54015 7.61733C4.5358 7.55836 4.54959 7.49947 4.57967 7.44857C4.60975 7.39766 4.65467 7.35717 4.70842 7.33253C4.76296 7.30587 4.82392 7.29517 4.88428 7.30164C4.94464 7.30812 5.00195 7.33151 5.04959 7.36913C5.0958 7.4051 5.12972 7.45452 5.14667 7.51057C5.16362 7.56663 5.16277 7.62656 5.14424 7.68211C5.11641 7.75737 5.06071 7.81904 4.98867 7.85435C4.91662 7.88967 4.83375 7.89593 4.75722 7.87184L4.75596 7.87142Z" fill="white"/>
<path d="M4.76645 7.71499C4.78874 7.65105 4.78033 7.67292 4.79084 7.64516C4.6874 7.69508 4.58106 7.73877 4.47239 7.77599C4.41939 7.78777 4.54517 7.71541 4.75383 7.61445L4.77107 7.60646C4.73574 7.59468 4.69872 7.58332 4.66296 7.57112C4.51025 7.51769 4.47113 7.50381 4.34283 7.45501C4.29677 7.44008 4.25313 7.41854 4.21326 7.39107V7.38728C4.25456 7.38551 4.29583 7.39165 4.33483 7.40537C4.38531 7.41757 4.4135 7.42472 4.46314 7.43861C4.64403 7.48909 4.61584 7.48067 4.79463 7.53873C4.74207 7.44138 4.69611 7.34061 4.65707 7.2371C4.64487 7.18662 4.72101 7.30651 4.82744 7.50381L4.83586 7.5198C4.88129 7.39612 4.92841 7.27328 4.97973 7.15339C4.9995 7.10168 5.02386 7.05184 5.05251 7.00447C5.09668 6.938 5.04451 7.14792 4.93261 7.47436C4.91032 7.53831 4.91873 7.51643 4.90821 7.5442C5.01165 7.49413 5.11799 7.4503 5.22667 7.41295C5.27967 7.40159 5.15389 7.47394 4.94523 7.57448L4.92841 7.58122C4.96374 7.59342 5.00076 7.60435 5.03652 7.61655C5.1888 7.66914 5.22835 7.68302 5.35665 7.73308C5.40266 7.74775 5.4463 7.76901 5.48622 7.79618V7.80039C5.41722 7.79651 5.34904 7.78349 5.28346 7.76169C5.17072 7.7314 5.15347 7.72551 5.04157 7.69269C4.95028 7.66451 4.99571 7.67923 4.90485 7.65063C4.95762 7.74807 5.00372 7.84899 5.04283 7.95267C5.05503 8.00273 4.97889 7.88326 4.87246 7.68596L4.86404 7.6704C4.81903 7.79366 4.77191 7.91692 4.72059 8.03723C4.70064 8.08865 4.67644 8.13832 4.64824 8.18573C4.60112 8.25219 4.65455 8.04144 4.76645 7.71499Z" fill="#FFFF98"/>
<path opacity="0.36" d="M6.8976 7.82694C6.89064 7.81192 6.88681 7.79564 6.88634 7.7791C6.88587 7.76255 6.88878 7.74608 6.89488 7.7307C6.90098 7.71531 6.91014 7.70132 6.92182 7.68959C6.9335 7.67786 6.94744 7.66863 6.9628 7.66246C6.99428 7.64815 7.03006 7.6465 7.06271 7.65786C7.09537 7.66921 7.12241 7.6927 7.13822 7.72345C7.14533 7.73849 7.14929 7.75482 7.14985 7.77144C7.15042 7.78806 7.14758 7.80462 7.14151 7.8201C7.13545 7.83558 7.12628 7.84966 7.11457 7.86147C7.10286 7.87328 7.08887 7.88258 7.07344 7.88878C7.04073 7.90339 7.00364 7.90474 6.96995 7.89257C6.93817 7.88101 6.91219 7.85744 6.8976 7.82694Z" fill="white"/>
<path d="M6.95352 7.78466L6.98339 7.77162C6.9374 7.75512 6.89245 7.73588 6.84877 7.71399C6.82984 7.70137 6.89084 7.7182 6.98297 7.75185L6.99096 7.75479C6.98423 7.74049 6.9775 7.72661 6.97161 7.71231C6.94553 7.65257 6.93922 7.63574 6.91902 7.58316C6.9108 7.56517 6.90541 7.54601 6.90304 7.52637V7.52637C6.91569 7.53809 6.9256 7.55245 6.93207 7.56843C6.94216 7.58652 6.94805 7.59704 6.95773 7.61597C6.99306 7.68412 6.98675 7.67402 7.01957 7.74217C7.03719 7.69885 7.05757 7.6567 7.08056 7.61597C7.09403 7.59788 7.07594 7.65467 7.0406 7.74302L7.03766 7.75017C7.09108 7.72829 7.14619 7.70726 7.2013 7.68791C7.22414 7.67922 7.24763 7.67233 7.27155 7.66729C7.30689 7.66183 7.22149 7.706 7.08098 7.76741L7.04901 7.77877C7.09549 7.79556 7.14087 7.81523 7.18489 7.83767C7.20424 7.85029 7.14409 7.83346 7.04901 7.79981L7.04354 7.79686C7.04901 7.81117 7.05616 7.82505 7.06248 7.83935C7.08856 7.89993 7.09487 7.91591 7.11506 7.9685C7.12384 7.98644 7.12994 8.00557 7.13315 8.02529C7.11463 8.0037 7.09945 7.97945 7.08814 7.95335C7.06416 7.91129 7.06079 7.90498 7.03976 7.86291C7.02293 7.82589 7.03135 7.84356 7.01494 7.80822C6.99731 7.85154 6.97694 7.8937 6.95394 7.93442C6.9409 7.95251 6.95899 7.8953 6.99601 7.80822L6.99685 7.80149C6.94258 7.82336 6.88832 7.8444 6.83321 7.86291C6.81026 7.87195 6.78663 7.87913 6.76253 7.88436C6.72678 7.88899 6.81217 7.84482 6.95352 7.78466Z" fill="#FFFF98"/>
<defs>
<linearGradient id="paint0_linear_4034_14288" x1="4.91671" y1="5.41628" x2="17.1618" y2="17.6614" gradientUnits="userSpaceOnUse">
<stop stop-color="#FFE500"/>
<stop offset="0.16" stop-color="#FEC831"/>
<stop offset="1" stop-color="#FFF900"/>
</linearGradient>
<linearGradient id="paint1_linear_4034_14288" x1="5.26691" y1="6.09222" x2="10.2645" y2="8.9209" gradientUnits="userSpaceOnUse">
<stop stop-color="#FFAE00" stop-opacity="0"/>
<stop offset="1" stop-color="#FFAE00"/>
</linearGradient>
<linearGradient id="paint2_linear_4034_14288" x1="5.17188" y1="5.90277" x2="5.76723" y2="11.6596" gradientUnits="userSpaceOnUse">
<stop stop-color="#FFAE00" stop-opacity="0"/>
<stop offset="1" stop-color="#FFAE00"/>
</linearGradient>
<linearGradient id="paint3_linear_4034_14288" x1="7.64063" y1="7.99055" x2="5.70098" y2="5.12" gradientUnits="userSpaceOnUse">
<stop stop-color="#FFAE00" stop-opacity="0.6"/>
<stop offset="1" stop-color="#FFAE00" stop-opacity="0"/>
</linearGradient>
</defs>
</svg>
