<svg width="14" height="14" viewBox="0 0 14 14" fill="none" xmlns="http://www.w3.org/2000/svg">
<path d="M6.09115 10.7503C4.99566 10.7503 4.10401 9.79676 4.10401 8.62519V3.5H3.28581C2.57651 3.5 2 4.11645 2 4.87501V11.6253C2 12.3839 2.57651 13.0004 3.28581 13.0004H9.13021C9.83951 13.0004 10.416 12.3839 10.416 11.6253V10.7503H6.09115Z" fill="#26A9E0"/>
<path d="M12.2851 2.3751C12.2851 1.61554 11.7096 1 10.9994 1H6.09007C5.37983 1 4.80426 1.61554 4.80426 2.3751V8.62534C4.80426 9.3849 5.37983 10.0004 6.09007 10.0004H10.9994C11.7096 10.0004 12.2851 9.3849 12.2851 8.62534V2.3751Z" fill="#26A9E0"/>
</svg>
