<svg width="44" height="20" viewBox="0 0 44 20" fill="none" xmlns="http://www.w3.org/2000/svg">
<rect width="43.5208" height="20" rx="10" fill="url(#paint0_linear_3514_3948)"/>
<path fill-rule="evenodd" clip-rule="evenodd" d="M4.61166 6.91756C4.45414 6.85933 4.29045 6.81352 4.12176 6.78129C4.10938 6.77893 4.09697 6.77664 4.08453 6.77442C3.97182 6.75431 3.97182 6.59265 4.08453 6.57254C4.09697 6.57032 4.10938 6.56803 4.12176 6.56567C4.29045 6.53344 4.45414 6.48763 4.61166 6.4294C4.70593 6.39454 4.79799 6.35526 4.88759 6.31175C5.50807 6.01057 6.01057 5.50807 6.31177 4.88759C6.35526 4.79799 6.39456 4.70593 6.42939 4.61166C6.48763 4.45414 6.53344 4.29045 6.56567 4.12176C6.56802 4.10938 6.57032 4.09697 6.57254 4.08453C6.59265 3.97182 6.75431 3.97182 6.77442 4.08453C6.77664 4.09697 6.77893 4.10938 6.78129 4.12176C6.81352 4.29045 6.85933 4.45414 6.91756 4.61166C6.95242 4.70593 6.9917 4.79799 7.0352 4.88759C7.33639 5.50807 7.83889 6.01057 8.45938 6.31175C8.54897 6.35526 8.64103 6.39454 8.73529 6.4294C8.89282 6.48763 9.0565 6.53344 9.2252 6.56567C9.23759 6.56803 9.24999 6.57032 9.26243 6.57254C9.37514 6.59265 9.37514 6.75431 9.26243 6.77442C9.24999 6.77664 9.23759 6.77893 9.2252 6.78129C9.0565 6.81352 8.89282 6.85933 8.73529 6.91756C8.64103 6.95242 8.54897 6.9917 8.45938 7.03521C7.83889 7.33639 7.33639 7.83889 7.0352 8.45938C6.9917 8.54897 6.95242 8.64103 6.91756 8.73529C6.85933 8.89282 6.81352 9.0565 6.78129 9.2252C6.77893 9.23757 6.77664 9.24999 6.77442 9.26243C6.75431 9.37514 6.59265 9.37514 6.57254 9.26243C6.57032 9.24999 6.56802 9.23757 6.56567 9.2252C6.53344 9.0565 6.48763 8.89282 6.42939 8.73529C6.39456 8.64103 6.35526 8.54897 6.31177 8.45938C6.01057 7.83889 5.50807 7.33639 4.88759 7.03521C4.79799 6.9917 4.70593 6.95242 4.61166 6.91756ZM8.37763 10.9224C8.26746 10.8927 8.15577 10.8666 8.04266 10.8443C8.02497 10.8409 8.00727 10.8375 7.98954 10.8342L7.98416 10.8332L7.97689 10.8318C7.9657 10.8298 7.95341 10.8276 7.92883 10.8232L7.92025 10.8217C7.74001 10.7876 7.74001 10.5295 7.92025 10.4954L7.92883 10.4938C7.95341 10.4894 7.9657 10.4873 7.97689 10.4852L7.98416 10.4839L7.98954 10.4829C8.00727 10.4796 8.02497 10.4762 8.04264 10.4727C8.15575 10.4504 8.26746 10.4244 8.37763 10.3947C8.47173 10.3693 8.56471 10.3413 8.6565 10.3107C10.1415 9.8157 11.3101 8.64714 11.8051 7.16211C11.8357 7.07032 11.8637 6.97734 11.8891 6.88323C11.9188 6.77307 11.9448 6.66136 11.9671 6.54825C11.9706 6.53058 11.974 6.51288 11.9773 6.49515L11.9783 6.48977L11.9796 6.4825C11.9816 6.47144 11.9838 6.4593 11.9881 6.43527L11.9882 6.43444L11.9898 6.42586C12.0239 6.24562 12.282 6.24562 12.3161 6.42586L12.3176 6.43444C12.322 6.45902 12.3242 6.47131 12.3262 6.4825L12.3276 6.48977L12.3286 6.49515C12.3319 6.51288 12.3352 6.53058 12.3387 6.54825C12.361 6.66138 12.3871 6.77307 12.4167 6.88323C12.4421 6.97734 12.4701 7.07032 12.5007 7.16211C12.9957 8.64714 14.1643 9.8157 15.6493 10.3107C15.7411 10.3413 15.8341 10.3693 15.9282 10.3947C16.0384 10.4244 16.1501 10.4504 16.2632 10.4727C16.2809 10.4762 16.2986 10.4796 16.3163 10.4829L16.3217 10.4839L16.3289 10.4852C16.3401 10.4873 16.3524 10.4894 16.377 10.4938L16.3856 10.4954C16.5658 10.5295 16.5658 10.7876 16.3856 10.8217L16.377 10.8232L16.351 10.8279L16.3289 10.8318L16.3217 10.8332L16.3163 10.8342C16.2986 10.8375 16.2809 10.8409 16.2632 10.8443C16.1501 10.8666 16.0384 10.8927 15.9282 10.9224C15.8341 10.9477 15.7411 10.9757 15.6493 11.0063C14.1643 11.5013 12.9957 12.6699 12.5007 14.1549C12.4701 14.2467 12.4421 14.3397 12.4167 14.4338C12.3871 14.544 12.361 14.6557 12.3387 14.7688C12.3352 14.7865 12.3319 14.8042 12.3286 14.8219L12.3276 14.8273L12.3262 14.8346L12.3233 14.8509L12.3178 14.8817L12.3161 14.8912C12.282 15.0714 12.0239 15.0714 11.9898 14.8912L11.9882 14.8826C11.9839 14.8581 11.9816 14.8457 11.9796 14.8346L11.9783 14.8273L11.9773 14.8219C11.974 14.8042 11.9706 14.7865 11.9671 14.7688C11.9448 14.6557 11.9188 14.544 11.8891 14.4338C11.8637 14.3397 11.8357 14.2467 11.8051 14.1549C11.3101 12.6699 10.1415 11.5013 8.6565 11.0063C8.56471 10.9757 8.47173 10.9477 8.37763 10.9224ZM5.89209 14.3796C6.08153 14.4158 6.26098 14.4791 6.42629 14.5654C6.49983 14.6038 6.57056 14.6467 6.63813 14.6938C6.8264 14.8251 6.99011 14.9888 7.12138 15.1771C7.16849 15.2446 7.21143 15.3154 7.2498 15.3889C7.33611 15.5542 7.39942 15.7337 7.4356 15.9231C7.4371 15.9309 7.43856 15.9388 7.43995 15.9466C7.45265 16.0178 7.55475 16.0178 7.56746 15.9466C7.56885 15.9388 7.5703 15.9309 7.57179 15.9231C7.60799 15.7337 7.6713 15.5542 7.75759 15.3889C7.79598 15.3154 7.83892 15.2446 7.88603 15.1771C8.01729 14.9888 8.181 14.8251 8.36928 14.6938C8.43684 14.6467 8.50758 14.6038 8.5811 14.5654C8.74643 14.4791 8.92588 14.4158 9.11531 14.3796C9.12314 14.3781 9.13097 14.3766 9.13883 14.3752C9.21001 14.3625 9.21001 14.2604 9.13883 14.2477C9.13097 14.2463 9.12314 14.2449 9.11531 14.2434C8.92588 14.2072 8.74643 14.1439 8.5811 14.0576C8.50758 14.0192 8.43684 13.9763 8.36928 13.9292C8.181 13.7979 8.01729 13.6342 7.88603 13.4459C7.83892 13.3783 7.79598 13.3076 7.75759 13.2341C7.6713 13.0688 7.60799 12.8893 7.57179 12.6999C7.5703 12.692 7.56885 12.6842 7.56746 12.6764C7.55475 12.6052 7.45265 12.6052 7.43995 12.6764C7.43856 12.6842 7.4371 12.692 7.4356 12.6999C7.39942 12.8893 7.33611 13.0688 7.2498 13.2341C7.21143 13.3076 7.16849 13.3783 7.12138 13.4459C6.99011 13.6342 6.8264 13.7979 6.63813 13.9292C6.57056 13.9763 6.49983 14.0192 6.42629 14.0576C6.26098 14.1439 6.08153 14.2072 5.89209 14.2434C5.88427 14.2449 5.87644 14.2463 5.86857 14.2477C5.7974 14.2604 5.7974 14.3625 5.86857 14.3752C5.87644 14.3766 5.88427 14.3781 5.89209 14.3796Z" fill="white"/>
<path d="M19.1529 6.72727H21.0492L23.052 11.6136H23.1372L25.1401 6.72727H27.0364V14H25.5449V9.26634H25.4845L23.6024 13.9645H22.5868L20.7047 9.24858H20.6443V14H19.1529V6.72727ZM34.706 6.37216H35.679C35.679 7.06345 35.5286 7.59967 35.228 7.98082C34.9273 8.36198 34.4515 8.55256 33.8004 8.55256V7.77131C34.1461 7.77131 34.3828 7.6482 34.5106 7.40199C34.6409 7.15578 34.706 6.8125 34.706 6.37216ZM34.9865 10.3636C34.9865 11.1567 34.8362 11.8314 34.5355 12.3878C34.2372 12.9441 33.83 13.3691 33.3139 13.6626C32.8002 13.9538 32.2225 14.0994 31.581 14.0994C30.9347 14.0994 30.3546 13.9527 29.8409 13.6591C29.3272 13.3655 28.9212 12.9406 28.6229 12.3842C28.3246 11.8279 28.1754 11.1544 28.1754 10.3636C28.1754 9.57055 28.3246 8.89583 28.6229 8.33949C28.9212 7.78314 29.3272 7.35937 29.8409 7.06818C30.3546 6.77462 30.9347 6.62784 31.581 6.62784C32.2225 6.62784 32.8002 6.77462 33.3139 7.06818C33.83 7.35937 34.2372 7.78314 34.5355 8.33949C34.8362 8.89583 34.9865 9.57055 34.9865 10.3636ZM33.4276 10.3636C33.4276 9.84991 33.3506 9.41667 33.1967 9.06392C33.0452 8.71117 32.831 8.44366 32.554 8.26136C32.277 8.07907 31.9526 7.98793 31.581 7.98793C31.2093 7.98793 30.8849 8.07907 30.6079 8.26136C30.331 8.44366 30.1155 8.71117 29.9616 9.06392C29.8101 9.41667 29.7344 9.84991 29.7344 10.3636C29.7344 10.8774 29.8101 11.3106 29.9616 11.6634C30.1155 12.0161 30.331 12.2836 30.6079 12.4659C30.8849 12.6482 31.2093 12.7393 31.581 12.7393C31.9526 12.7393 32.277 12.6482 32.554 12.4659C32.831 12.2836 33.0452 12.0161 33.1967 11.6634C33.3506 11.3106 33.4276 10.8774 33.4276 10.3636ZM31.0376 6.02415L31.7905 4.40838H33.1896L32.1065 6.02415H31.0376ZM37.9757 6.72727V14H36.438V6.72727H37.9757Z" fill="white"/>
<defs>
<linearGradient id="paint0_linear_3514_3948" x1="0" y1="0" x2="15.2359" y2="32.4169" gradientUnits="userSpaceOnUse">
<stop stop-color="#439CFB"/>
<stop offset="1" stop-color="#F187FB"/>
</linearGradient>
</defs>
</svg>
