<svg width="79" height="29" viewBox="0 0 79 29" fill="none" xmlns="http://www.w3.org/2000/svg">
<path d="M48.5828 19.3016C48.5828 17.247 48.1 15.6901 47.15 14.6714C46.1999 13.6528 44.7482 13.1392 42.836 13.1392H39.4224C38.3937 13.1392 37.8931 13.6494 37.8931 14.6999V23.9018C37.8931 24.9508 38.3937 25.463 39.4224 25.463H42.7858C44.6126 25.463 46.0522 24.9199 47.0597 23.8511C48.0672 22.7823 48.5828 21.2485 48.5828 19.3016ZM45.3575 22.0765C45.1123 22.4943 44.7577 22.8373 44.3319 23.0683C43.906 23.2992 43.4252 23.4095 42.9413 23.3872H40.47V15.2165H42.9239C44.9703 15.2165 46.0068 16.5904 46.0068 19.3016C46.0466 20.2684 45.8221 21.2277 45.3575 22.0765Z" fill="white"/>
<path d="M56.9204 24.0255C56.827 23.6667 56.7822 23.297 56.7872 22.9262V18.7547C56.7872 17.1095 55.4992 16.3086 52.8532 16.3086C51.8433 16.2659 50.8428 16.5192 49.975 17.0376C49.3271 17.4566 48.9993 17.9302 48.9993 18.4453C48.9978 18.5575 49.0208 18.6688 49.0666 18.7712C49.1125 18.8737 49.1801 18.9649 49.2649 19.0386C49.356 19.1236 49.4632 19.1895 49.5802 19.2325C49.6971 19.2756 49.8215 19.2948 49.946 19.2891C50.2154 19.273 50.4689 19.1562 50.6562 18.9618C50.8971 18.7223 51.1553 18.5008 51.4286 18.299C51.8528 18.0449 52.3405 17.9166 52.8348 17.9292C53.9529 17.9292 54.5173 18.3087 54.5173 19.0574C54.5173 19.4678 54.314 19.9785 53.3437 20.0862L51.8235 20.2566C50.9769 20.3096 50.1532 20.5537 49.4145 20.9706C49.0882 21.1958 48.8264 21.5023 48.655 21.8598C48.4836 22.2173 48.4086 22.6134 48.4374 23.0088C48.4313 23.3483 48.5032 23.6847 48.6475 23.9921C48.7918 24.2995 49.0046 24.5697 49.2697 24.782C49.7958 25.2176 50.4608 25.4502 51.1437 25.4376C51.768 25.4577 52.3891 25.3421 52.9643 25.0986C53.5394 24.8551 54.0548 24.4897 54.4748 24.0274L54.6568 23.8256L54.6713 24.0945C54.7133 25.0031 55.1584 25.4376 56.0293 25.4376C56.2916 25.4446 56.5478 25.3571 56.751 25.1909C56.8433 25.1214 56.9179 25.0312 56.9689 24.9275C57.0199 24.8239 57.0458 24.7097 57.0445 24.5942C57.0206 24.4009 56.979 24.2102 56.9204 24.0245V24.0255ZM54.5168 22.1065C54.518 22.3592 54.4633 22.6091 54.3566 22.8381C54.2498 23.0671 54.0937 23.2697 53.8993 23.4312C53.428 23.8341 52.8221 24.0446 52.2024 24.0207C51.8169 24.0393 51.4366 23.9257 51.1244 23.6987C50.9961 23.6061 50.8914 23.4845 50.8189 23.3438C50.7465 23.2031 50.7082 23.0473 50.7073 22.8891C50.7073 22.1727 51.2794 21.7247 52.4095 21.5557L53.3123 21.421C53.6782 21.3956 54.0301 21.27 54.3295 21.058L54.5168 20.8813V22.1065Z" fill="white"/>
<path d="M59.6393 17.4426C59.6393 17.1417 59.5198 16.8531 59.307 16.6404C59.0943 16.4276 58.8057 16.3081 58.5048 16.3081C58.204 16.3081 57.9154 16.4276 57.7026 16.6404C57.4899 16.8531 57.3704 17.1417 57.3704 17.4426V24.3055C57.3704 24.6064 57.4899 24.8949 57.7026 25.1077C57.9154 25.3204 58.204 25.44 58.5048 25.44C58.8057 25.44 59.0943 25.3204 59.307 25.1077C59.5198 24.8949 59.6393 24.6064 59.6393 24.3055V17.4426Z" fill="white"/>
<path d="M65.6443 16.621C65.392 16.408 65.0691 16.297 64.7391 16.3101C63.8069 16.3101 63.1658 16.9739 62.7796 18.3401L62.7569 18.4193H62.5242V17.3572C62.5335 17.216 62.5132 17.0745 62.4649 16.9415C62.4165 16.8085 62.3411 16.6871 62.2433 16.5848C62.0402 16.4086 61.7803 16.3115 61.5114 16.3115C61.2425 16.3115 60.9827 16.4086 60.7796 16.5848C60.681 16.6867 60.6048 16.808 60.5558 16.941C60.5069 17.074 60.4862 17.2158 60.4952 17.3572V24.3056C60.4952 24.6065 60.6147 24.895 60.8275 25.1078C61.0403 25.3205 61.3288 25.4401 61.6297 25.4401C61.9306 25.4401 62.2191 25.3205 62.4319 25.1078C62.6447 24.895 62.7642 24.6065 62.7642 24.3056V21.409C62.7642 19.5074 63.3247 18.5419 64.4307 18.5419H64.8743C65.6366 18.5419 65.9934 18.1808 65.9934 17.4074C65.9979 17.2584 65.9688 17.1102 65.9083 16.9739C65.8478 16.8376 65.7574 16.7167 65.6438 16.6201" fill="white"/>
<path d="M73.9913 18.0717C74.0901 17.8334 74.152 17.5814 74.1748 17.3244C74.1653 17.0972 74.0768 16.8804 73.9247 16.7113C73.8143 16.5768 73.6737 16.4703 73.5143 16.4006C73.3548 16.3309 73.1812 16.2999 73.0075 16.3101C72.4562 16.3101 72.0994 16.6442 71.9184 17.3341L70.3774 23.0523H70.1718L68.5449 17.1651C68.4896 16.9021 68.3386 16.6691 68.1212 16.5111C67.9039 16.3531 67.6356 16.2815 67.3684 16.3101C67.224 16.3058 67.0803 16.3308 66.9459 16.3838C66.8116 16.4367 66.6894 16.5165 66.5868 16.6181C66.4828 16.7176 66.4008 16.8376 66.346 16.9707C66.2912 17.1037 66.2649 17.2467 66.2687 17.3905C66.3175 17.7767 66.419 18.1543 66.5704 18.5129L69.1768 25.9204L69.1691 25.9503C69.144 26.1915 69.0294 26.4145 68.848 26.5754C68.6666 26.7362 68.4315 26.8232 68.1891 26.8193H67.9337C67.2279 26.8193 66.9011 27.1022 66.9011 27.7138C66.9011 28.408 67.3776 28.7455 68.3585 28.7455C68.672 28.7614 68.9856 28.7137 69.2802 28.6053C69.5748 28.4968 69.8444 28.3299 70.0728 28.1145C70.5503 27.5698 70.9029 26.9272 71.1059 26.2318L73.9913 18.0717Z" fill="white"/>
<path d="M17.3348 23.8251C17.3348 23.8251 15.452 25.7185 13.2931 25.4095C7.3209 24.5589 10.4878 18.4221 11.0946 15.3088C11.8188 11.6495 12.5207 7.19312 11.0946 3.61298C10.6234 2.50266 9.74319 1.61608 8.63631 1.13682C7.52943 0.657566 6.28063 0.622335 5.14849 1.03843C1.92993 2.22601 0.980829 7.19312 0.664622 10.2509C0.562009 11.197 0.507065 12.1476 0.5 13.0992C0.5 17.8114 2.67773 28.3809 10.2517 28.3809C14.9253 28.3809 16.8481 24.1413 17.3338 23.8251" fill="white"/>
<path d="M11.0051 23.2618C11.6598 23.7097 12.4645 23.8818 13.2451 23.7407C15.6005 23.3762 14.3381 19.4176 13.8973 17.8742C13.3822 16.0668 12.491 13.932 13.0462 12.0483C13.2528 11.5438 13.6044 11.1119 14.0565 10.8071C14.5086 10.5024 15.0408 10.3386 15.586 10.3364C18.3464 10.3364 19.1299 14.1579 19.1299 16.2744C19.1299 18.6476 18.4913 23.6499 14.5278 24.46C12.0701 24.963 11.1142 23.3579 11.0037 23.2618" fill="white"/>
<path fill-rule="evenodd" clip-rule="evenodd" d="M59.7098 14.3026C59.7099 14.5408 59.6393 14.7736 59.5071 14.9716C59.3749 15.1697 59.1869 15.3241 58.967 15.4153C58.747 15.5065 58.5049 15.5304 58.2713 15.4841C58.0378 15.4377 57.8232 15.3231 57.6547 15.1548C57.4863 14.9865 57.3715 14.772 57.325 14.5385C57.2784 14.3049 57.3022 14.0629 57.3932 13.8428C57.4843 13.6228 57.6385 13.4347 57.8365 13.3023C58.0344 13.1699 58.2671 13.0992 58.5053 13.0991C58.8246 13.0991 59.1308 13.2259 59.3566 13.4516C59.5825 13.6772 59.7095 13.9834 59.7098 14.3026Z" fill="white"/>
<path d="M36.7142 24.0255C36.6222 23.6664 36.5779 23.2968 36.5824 22.9262V18.7547C36.5824 17.1095 35.2944 16.3086 32.6484 16.3086C31.6385 16.2671 30.6386 16.5212 29.7711 17.04C29.1242 17.459 28.795 17.9326 28.795 18.4477C28.7937 18.5599 28.8169 18.6711 28.8628 18.7736C28.9087 18.876 28.9763 18.9673 29.061 19.041C29.1524 19.1259 29.2598 19.1917 29.3769 19.2347C29.494 19.2778 29.6185 19.2971 29.7431 19.2915C30.0124 19.275 30.2658 19.1582 30.4533 18.9642C30.6938 18.7243 30.952 18.5028 31.2257 18.3014C31.6492 18.0469 32.1366 17.9186 32.6305 17.9316C33.7471 17.9316 34.3139 18.3111 34.3139 19.0598C34.3139 19.4702 34.1107 19.9809 33.1403 20.0886L31.6187 20.259C30.7725 20.3121 29.9494 20.5562 29.2111 20.973C28.8848 21.1982 28.623 21.5047 28.4516 21.8622C28.2803 22.2197 28.2052 22.6158 28.234 23.0112C28.228 23.3507 28.2998 23.6871 28.4441 23.9945C28.5884 24.3019 28.8012 24.5721 29.0663 24.7844C29.5926 25.2188 30.2571 25.4505 30.9394 25.4375C31.5636 25.4578 32.1848 25.3421 32.7599 25.0987C33.3351 24.8552 33.8505 24.4897 34.2704 24.0274L34.4524 23.8256L34.464 24.0945C34.508 24.9997 34.9516 25.4375 35.824 25.4375C36.0871 25.4448 36.3441 25.3573 36.5481 25.1909C36.6402 25.1212 36.7148 25.031 36.7658 24.9274C36.8167 24.8238 36.8427 24.7096 36.8416 24.5942C36.8172 24.4008 36.775 24.2101 36.7156 24.0245L36.7142 24.0255ZM34.312 22.1065C34.3132 22.3592 34.2585 22.609 34.1518 22.8381C34.045 23.0671 33.8889 23.2697 33.6945 23.4312C33.2225 23.8339 32.6162 24.0443 31.9962 24.0207C31.6111 24.039 31.2313 23.9255 30.9196 23.6987C30.7909 23.6063 30.6859 23.4848 30.6133 23.3441C30.5406 23.2034 30.5023 23.0474 30.5016 22.8891C30.5016 22.1727 31.0751 21.7247 32.2047 21.5557L33.108 21.421C33.4728 21.3953 33.8235 21.2697 34.1218 21.058L34.31 20.8813L34.312 22.1065Z" fill="white"/>
<path d="M22.6659 17.4426C22.6659 17.1417 22.5464 16.8531 22.3337 16.6404C22.1209 16.4276 21.8323 16.3081 21.5315 16.3081C21.2306 16.3081 20.942 16.4276 20.7293 16.6404C20.5165 16.8531 20.397 17.1417 20.397 17.4426V24.3055C20.397 24.6064 20.5165 24.8949 20.7293 25.1077C20.942 25.3204 21.2306 25.44 21.5315 25.44C21.8323 25.44 22.1209 25.3204 22.3337 25.1077C22.5464 24.8949 22.6659 24.6064 22.6659 24.3055V17.4426Z" fill="white"/>
<path fill-rule="evenodd" clip-rule="evenodd" d="M22.7363 14.3026C22.737 14.5416 22.6667 14.7754 22.5344 14.9743C22.4021 15.1733 22.2137 15.3285 21.993 15.4203C21.7724 15.5121 21.5295 15.5363 21.2951 15.49C21.0607 15.4436 20.8454 15.3287 20.6763 15.1598C20.5073 14.9909 20.3922 14.7756 20.3457 14.5412C20.2991 14.3069 20.3231 14.064 20.4147 13.8433C20.5064 13.6226 20.6614 13.4341 20.8603 13.3016C21.0592 13.1691 21.2929 13.0986 21.5318 13.0991C21.8511 13.0991 22.1573 13.2259 22.3832 13.4516C22.609 13.6772 22.736 13.9834 22.7363 14.3026Z" fill="white"/>
<path d="M23.4629 17.4266C23.3669 17.4288 23.2714 17.4114 23.1823 17.3755C23.0933 17.3395 23.0125 17.2858 22.9449 17.2176C22.8403 17.1164 22.7686 16.9861 22.7391 16.8437C22.7097 16.7012 22.7238 16.5531 22.7797 16.4188C22.8356 16.2844 22.9307 16.1701 23.0526 16.0906C23.1744 16.0111 23.3174 15.9701 23.4629 15.973H23.9553V13.9387C23.9537 13.8049 23.9792 13.6721 24.0303 13.5484C24.0814 13.4246 24.157 13.3126 24.2527 13.2189C24.3457 13.1227 24.4574 13.0465 24.5809 12.9951C24.7045 12.9437 24.8372 12.9182 24.971 12.9201C25.1037 12.9177 25.2354 12.943 25.3577 12.9945C25.4799 13.0459 25.5901 13.1224 25.6812 13.2189C25.775 13.3135 25.8489 13.4259 25.8987 13.5495C25.9484 13.6732 25.973 13.8055 25.9708 13.9387V15.9755H27.7155C27.8125 15.973 27.9091 15.9899 27.9994 16.0253C28.0898 16.0607 28.1722 16.1138 28.2417 16.1816C28.3112 16.2493 28.3664 16.3303 28.4041 16.4197C28.4418 16.5091 28.4613 16.6052 28.4613 16.7022C28.4613 16.7993 28.4418 16.8954 28.4041 16.9848C28.3664 17.0742 28.3112 17.1552 28.2417 17.2229C28.1722 17.2907 28.0898 17.3438 27.9994 17.3792C27.9091 17.4146 27.8125 17.4315 27.7155 17.429H25.9708V22.751C25.943 23.0227 26.0102 23.2957 26.161 23.5234C26.4005 23.6959 26.6968 23.7705 26.9894 23.7319H27.3689C27.4817 23.7296 27.5939 23.75 27.6987 23.7921C27.8034 23.8342 27.8986 23.897 27.9785 23.9767C28.0584 24.0565 28.1214 24.1516 28.1636 24.2562C28.2058 24.3609 28.2265 24.4731 28.2243 24.5859C28.2273 24.6988 28.207 24.8111 28.1647 24.9158C28.1223 25.0204 28.0588 25.1152 27.9781 25.1942C27.8985 25.2742 27.8034 25.3372 27.6987 25.3793C27.5939 25.4213 27.4817 25.4416 27.3689 25.439H26.2059C25.6014 25.4794 25.0041 25.2882 24.5356 24.9041C24.321 24.6616 24.1589 24.3775 24.0592 24.0695C23.9595 23.7615 23.9245 23.4362 23.9563 23.114V17.4266H23.4629Z" fill="white"/>
<path d="M78.0773 14.5636C77.811 14.297 77.4606 14.131 77.0856 14.0938C76.7107 14.0567 76.3345 14.1507 76.0211 14.3598C75.7077 14.5689 75.4765 14.8802 75.3669 15.2407C75.2573 15.6011 75.276 15.9884 75.42 16.3366C75.5639 16.6848 75.8241 16.9723 76.1563 17.1502C76.4884 17.328 76.8719 17.3852 77.2415 17.312C77.6111 17.2388 77.9438 17.0397 78.1831 16.7486C78.4223 16.4576 78.5533 16.0926 78.5536 15.7158C78.5538 15.5019 78.5118 15.29 78.4301 15.0923C78.3484 14.8946 78.2285 14.7149 78.0773 14.5636ZM76.4895 15.5723H77.0991C77.2015 15.5763 77.3039 15.5631 77.4019 15.5332C77.4699 15.5093 77.5282 15.464 77.568 15.4039C77.6052 15.3467 77.6249 15.2799 77.6248 15.2117C77.6261 15.1646 77.617 15.1177 77.5982 15.0745C77.5794 15.0313 77.5513 14.9928 77.5159 14.9616C77.4157 14.8883 77.2925 14.8537 77.1688 14.8641H76.4884L76.4895 15.5723ZM76.206 16.7688V14.6305H77.1552C77.3024 14.6243 77.4495 14.6435 77.5902 14.6872C77.6906 14.7264 77.775 14.798 77.83 14.8908C77.8888 14.9883 77.9196 15.1001 77.9191 15.214C77.9225 15.3569 77.8691 15.4954 77.7705 15.599C77.6463 15.7149 77.4863 15.7849 77.3168 15.7975C77.3783 15.8248 77.4356 15.8607 77.487 15.9041C77.5767 15.9881 77.6553 16.0834 77.7206 16.1876L78.0903 16.77H77.7365L77.4529 16.3254C77.3713 16.1967 77.3015 16.0986 77.2494 16.03C77.2087 15.9751 77.16 15.9267 77.1048 15.8865C77.0652 15.8608 77.0217 15.8417 76.976 15.8298C76.9238 15.8223 76.8711 15.8193 76.8184 15.8207H76.4895V16.7711L76.206 16.7688ZM76.9273 13.9285C77.3405 13.9286 77.7409 14.0721 78.0603 14.3343C78.3796 14.5966 78.5981 14.9615 78.6786 15.3668C78.7591 15.7722 78.6965 16.1929 78.5016 16.5572C78.3067 16.9216 77.9914 17.2071 77.6096 17.3651C77.2278 17.5232 76.8029 17.5439 76.4075 17.4238C76.0121 17.3037 75.6706 17.0503 75.4411 16.7066C75.2116 16.3629 75.1084 15.9503 75.149 15.5391C75.1897 15.1278 75.3716 14.7434 75.6639 14.4513C75.8298 14.2854 76.0267 14.1538 76.2435 14.0641C76.4603 13.9744 76.6927 13.9283 76.9273 13.9285Z" fill="white"/>
</svg>
