<svg width="79" height="28" viewBox="0 0 79 28" fill="none" xmlns="http://www.w3.org/2000/svg">
<path d="M48.5828 18.5517C48.5828 16.497 48.1 14.9401 47.1499 13.9215C46.1999 12.9029 44.7482 12.3893 42.836 12.3893H39.4224C38.3937 12.3893 37.893 12.8995 37.893 13.95V23.1519C37.893 24.2009 38.3937 24.7131 39.4224 24.7131H42.7858C44.6126 24.7131 46.0521 24.17 47.0597 23.1012C48.0672 22.0324 48.5828 20.4986 48.5828 18.5517ZM45.3574 21.3266C45.1123 21.7444 44.7577 22.0873 44.3319 22.3183C43.906 22.5493 43.4252 22.6596 42.9412 22.6372H40.47V14.4666H42.9239C44.9703 14.4666 46.0068 15.8405 46.0068 18.5517C46.0466 19.5185 45.8221 20.4778 45.3574 21.3266Z" fill="white"/>
<path d="M56.9205 23.2755C56.8271 22.9167 56.7823 22.5469 56.7872 22.1762V18.0047C56.7872 16.3595 55.4993 15.5586 52.8533 15.5586C51.8433 15.5158 50.8429 15.7692 49.975 16.2875C49.3272 16.7066 48.9994 17.1802 48.9994 17.6953C48.9979 17.8075 49.0208 17.9187 49.0667 18.0212C49.1125 18.1237 49.1802 18.2149 49.2649 18.2886C49.3561 18.3736 49.4633 18.4395 49.5802 18.4825C49.6972 18.5255 49.8216 18.5448 49.9461 18.5391C50.2155 18.523 50.469 18.4062 50.6562 18.2118C50.8972 17.9723 51.1553 17.7508 51.4286 17.549C51.8528 17.2948 52.3406 17.1666 52.8349 17.1792C53.953 17.1792 54.5173 17.5586 54.5173 18.3074C54.5173 18.7177 54.3141 19.2285 53.3437 19.3362L51.8235 19.5066C50.9769 19.5595 50.1533 19.8036 49.4146 20.2206C49.0883 20.4458 48.8265 20.7523 48.6551 21.1098C48.4837 21.4673 48.4087 21.8634 48.4375 22.2588C48.4314 22.5983 48.5032 22.9347 48.6475 23.2421C48.7918 23.5495 49.0047 23.8197 49.2697 24.0319C49.7959 24.4676 50.4608 24.7002 51.1438 24.6875C51.768 24.7077 52.3892 24.5921 52.9643 24.3486C53.5394 24.1051 54.0548 23.7396 54.4748 23.2774L54.6568 23.0756L54.6713 23.3445C54.7133 24.2531 55.1584 24.6875 56.0293 24.6875C56.2917 24.6946 56.5479 24.607 56.751 24.4408C56.8433 24.3714 56.918 24.2812 56.969 24.1775C57.0199 24.0738 57.0458 23.9597 57.0446 23.8442C57.0206 23.6509 56.9791 23.4602 56.9205 23.2745V23.2755ZM54.5168 21.3565C54.5181 21.6092 54.4634 21.859 54.3566 22.0881C54.2499 22.3171 54.0937 22.5197 53.8994 22.6812C53.428 23.0841 52.8221 23.2945 52.2025 23.2706C51.817 23.2892 51.4366 23.1756 51.1245 22.9486C50.9961 22.8561 50.8915 22.7345 50.819 22.5938C50.7465 22.4531 50.7083 22.2973 50.7074 22.1391C50.7074 21.4226 51.2795 20.9746 52.4096 20.8057L53.3123 20.671C53.6783 20.6455 54.0302 20.5199 54.3295 20.3079L54.5168 20.1313V21.3565Z" fill="white"/>
<path d="M59.6394 16.6926C59.6394 16.3917 59.5199 16.1031 59.3071 15.8904C59.0943 15.6776 58.8058 15.5581 58.5049 15.5581C58.204 15.5581 57.9155 15.6776 57.7027 15.8904C57.4899 16.1031 57.3704 16.3917 57.3704 16.6926V23.5555C57.3704 23.8563 57.4899 24.1449 57.7027 24.3577C57.9155 24.5704 58.204 24.6899 58.5049 24.6899C58.8058 24.6899 59.0943 24.5704 59.3071 24.3577C59.5199 24.1449 59.6394 23.8563 59.6394 23.5555V16.6926Z" fill="white"/>
<path d="M65.6444 15.8709C65.3921 15.6578 65.0692 15.5469 64.7392 15.56C63.807 15.56 63.1659 16.2238 62.7797 17.59L62.757 17.6692H62.5243V16.6071C62.5336 16.4659 62.5133 16.3244 62.465 16.1914C62.4166 16.0584 62.3412 15.937 62.2434 15.8347C62.0403 15.6585 61.7804 15.5614 61.5115 15.5614C61.2426 15.5614 60.9828 15.6585 60.7797 15.8347C60.6811 15.9366 60.6049 16.0579 60.5559 16.1909C60.507 16.3239 60.4863 16.4657 60.4953 16.6071V23.5555C60.4953 23.8563 60.6148 24.1449 60.8276 24.3577C61.0404 24.5704 61.3289 24.6899 61.6298 24.6899C61.9307 24.6899 62.2192 24.5704 62.432 24.3577C62.6448 24.1449 62.7643 23.8563 62.7643 23.5555V20.6589C62.7643 18.7573 63.3248 17.7918 64.4308 17.7918H64.8744C65.6367 17.7918 65.9935 17.4307 65.9935 16.6573C65.998 16.5083 65.9689 16.3601 65.9084 16.2238C65.8479 16.0875 65.7575 15.9666 65.6439 15.8699" fill="white"/>
<path d="M73.9913 17.3216C74.0901 17.0833 74.152 16.8313 74.1748 16.5743C74.1652 16.3471 74.0768 16.1303 73.9247 15.9612C73.8143 15.8267 73.6736 15.7202 73.5142 15.6505C73.3548 15.5808 73.1812 15.5498 73.0075 15.56C72.4561 15.56 72.0994 15.8941 71.9184 16.5839L70.3774 22.3022H70.1717L68.5448 16.415C68.4895 16.152 68.3386 15.919 68.1212 15.761C67.9038 15.603 67.6355 15.5314 67.3684 15.56C67.224 15.5557 67.0803 15.5807 66.9459 15.6337C66.8115 15.6866 66.6894 15.7664 66.5868 15.868C66.4828 15.9674 66.4008 16.0875 66.346 16.2206C66.2912 16.3536 66.2648 16.4966 66.2686 16.6404C66.3175 17.0266 66.419 17.4042 66.5704 17.7628L69.1768 25.1703L69.169 25.2002C69.144 25.4414 69.0294 25.6644 68.848 25.8252C68.6666 25.9861 68.4315 26.0731 68.189 26.0692H67.9337C67.2279 26.0692 66.9011 26.3521 66.9011 26.9637C66.9011 27.6579 67.3775 27.9954 68.3585 27.9954C68.672 28.0113 68.9855 27.9636 69.2801 27.8552C69.5747 27.7467 69.8444 27.5798 70.0728 27.3644C70.5503 26.8196 70.9029 26.1771 71.1059 25.4817L73.9913 17.3216Z" fill="white"/>
<path d="M17.3348 23.0751C17.3348 23.0751 15.452 24.9685 13.2931 24.6595C7.3209 23.8089 10.4878 17.6721 11.0946 14.5588C11.8188 10.8995 12.5207 6.44312 11.0946 2.86298C10.6234 1.75266 9.74319 0.866081 8.63631 0.386824C7.52943 -0.0924339 6.28063 -0.127665 5.14849 0.288426C1.92993 1.47601 0.980829 6.44312 0.664622 9.50091C0.562009 10.447 0.507065 11.3976 0.5 12.3492C0.5 17.0614 2.67773 27.6309 10.2517 27.6309C14.9253 27.6309 16.8481 23.3913 17.3338 23.0751" fill="white"/>
<path d="M11.0052 22.5117C11.6599 22.9596 12.4646 23.1317 13.2452 22.9906C15.6006 22.6261 14.3382 18.6675 13.8974 17.1241C13.3823 15.3167 12.4912 13.1819 13.0463 11.2982C13.2529 10.7937 13.6045 10.3618 14.0566 10.0571C14.5087 9.75236 15.0409 9.58854 15.5861 9.58634C18.3465 9.58634 19.13 13.4079 19.13 15.5243C19.13 17.8975 18.4914 22.8999 14.5279 23.7099C12.0702 24.213 11.1143 22.6078 11.0038 22.5117" fill="white"/>
<path fill-rule="evenodd" clip-rule="evenodd" d="M59.7099 13.5527C59.71 13.7908 59.6394 14.0236 59.5072 14.2217C59.375 14.4197 59.187 14.5741 58.9671 14.6653C58.7471 14.7566 58.505 14.7805 58.2715 14.7341C58.0379 14.6878 57.8233 14.5732 57.6549 14.4049C57.4864 14.2366 57.3716 14.0221 57.3251 13.7885C57.2785 13.555 57.3023 13.3129 57.3933 13.0929C57.4844 12.8728 57.6386 12.6847 57.8366 12.5524C58.0345 12.42 58.2673 12.3493 58.5054 12.3492C58.8247 12.3492 59.1309 12.4759 59.3567 12.7016C59.5826 12.9273 59.7096 13.2334 59.7099 13.5527Z" fill="white"/>
<path d="M36.7141 23.2755C36.6222 22.9164 36.5779 22.5468 36.5823 22.1762V18.0047C36.5823 16.3595 35.2943 15.5586 32.6483 15.5586C31.6385 15.517 30.6385 15.7712 29.7711 16.2899C29.1242 16.709 28.795 17.1826 28.795 17.6977C28.7937 17.8099 28.8168 17.9211 28.8628 18.0236C28.9087 18.126 28.9763 18.2172 29.061 18.291C29.1524 18.3759 29.2598 18.4417 29.3769 18.4847C29.494 18.5277 29.6185 18.547 29.7431 18.5415C30.0124 18.525 30.2657 18.4082 30.4532 18.2142C30.6938 17.9743 30.952 17.7527 31.2257 17.5514C31.6492 17.2969 32.1366 17.1686 32.6305 17.1816C33.7471 17.1816 34.3139 17.561 34.3139 18.3098C34.3139 18.7201 34.1106 19.2309 33.1403 19.3386L31.6186 19.509C30.7725 19.5621 29.9494 19.8062 29.2111 20.223C28.8848 20.4482 28.623 20.7547 28.4516 21.1122C28.2802 21.4697 28.2052 21.8658 28.234 22.2612C28.2279 22.6007 28.2998 22.9371 28.4441 23.2445C28.5884 23.5519 28.8012 23.8221 29.0663 24.0344C29.5926 24.4688 30.257 24.7005 30.9394 24.6875C31.5636 24.7077 32.1848 24.5921 32.7599 24.3486C33.3351 24.1052 33.8504 23.7396 34.2704 23.2774L34.4524 23.0756L34.464 23.3445C34.5079 24.2497 34.9516 24.6875 35.8239 24.6875C36.0871 24.6948 36.3441 24.6073 36.5481 24.4408C36.6402 24.3712 36.7148 24.281 36.7657 24.1774C36.8167 24.0737 36.8427 23.9596 36.8416 23.8441C36.8171 23.6508 36.775 23.4601 36.7156 23.2745L36.7141 23.2755ZM34.3119 21.3565C34.3132 21.6092 34.2585 21.859 34.1517 22.0881C34.045 22.3171 33.8888 22.5197 33.6945 22.6812C33.2224 23.0839 32.6162 23.2943 31.9961 23.2706C31.6111 23.289 31.2313 23.1754 30.9196 22.9486C30.7909 22.8563 30.6859 22.7348 30.6132 22.5941C30.5406 22.4534 30.5023 22.2974 30.5015 22.139C30.5015 21.4226 31.075 20.9746 32.2047 20.8057L33.1079 20.671C33.4728 20.6452 33.8235 20.5196 34.1217 20.3079L34.31 20.1312L34.3119 21.3565Z" fill="white"/>
<path d="M22.6659 16.6926C22.6659 16.3917 22.5463 16.1031 22.3336 15.8904C22.1208 15.6776 21.8323 15.5581 21.5314 15.5581C21.2305 15.5581 20.9419 15.6776 20.7292 15.8904C20.5164 16.1031 20.3969 16.3917 20.3969 16.6926V23.5555C20.3969 23.8563 20.5164 24.1449 20.7292 24.3577C20.9419 24.5704 21.2305 24.6899 21.5314 24.6899C21.8323 24.6899 22.1208 24.5704 22.3336 24.3577C22.5463 24.1449 22.6659 23.8563 22.6659 23.5555V16.6926Z" fill="white"/>
<path fill-rule="evenodd" clip-rule="evenodd" d="M22.7363 13.5527C22.737 13.7916 22.6667 14.0254 22.5344 14.2244C22.4021 14.4234 22.2137 14.5786 21.9931 14.6704C21.7725 14.7622 21.5296 14.7864 21.2952 14.74C21.0608 14.6936 20.8454 14.5787 20.6764 14.4098C20.5074 14.2409 20.3923 14.0257 20.3457 13.7913C20.2991 13.5569 20.3232 13.314 20.4148 13.0933C20.5064 12.8726 20.6615 12.6841 20.8603 12.5516C21.0592 12.4192 21.2929 12.3487 21.5319 12.3492C21.8511 12.3492 22.1574 12.476 22.3832 12.7016C22.6091 12.9273 22.7361 13.2334 22.7363 13.5527Z" fill="white"/>
<path d="M23.4629 16.6766C23.3669 16.6788 23.2714 16.6614 23.1824 16.6255C23.0933 16.5895 23.0125 16.5358 22.9449 16.4676C22.8403 16.3665 22.7686 16.2361 22.7391 16.0937C22.7097 15.9512 22.7238 15.8031 22.7797 15.6688C22.8356 15.5345 22.9307 15.4201 23.0526 15.3406C23.1744 15.2611 23.3174 15.2201 23.4629 15.2231H23.9553V13.1887C23.9537 13.0549 23.9792 12.9221 24.0303 12.7984C24.0814 12.6746 24.1571 12.5626 24.2527 12.4689C24.3457 12.3727 24.4574 12.2965 24.5809 12.2451C24.7045 12.1937 24.8372 12.1682 24.971 12.1701C25.1037 12.1677 25.2354 12.193 25.3577 12.2445C25.48 12.296 25.5901 12.3724 25.6812 12.4689C25.775 12.5635 25.849 12.6759 25.8987 12.7996C25.9485 12.9232 25.973 13.0555 25.9708 13.1887V15.2255H27.7155C27.8125 15.223 27.9091 15.2399 27.9994 15.2753C28.0898 15.3107 28.1722 15.3638 28.2417 15.4316C28.3112 15.4993 28.3664 15.5803 28.4041 15.6697C28.4419 15.7591 28.4613 15.8552 28.4613 15.9523C28.4613 16.0493 28.4419 16.1454 28.4041 16.2348C28.3664 16.3242 28.3112 16.4052 28.2417 16.4729C28.1722 16.5407 28.0898 16.5938 27.9994 16.6292C27.9091 16.6646 27.8125 16.6816 27.7155 16.679H25.9708V22.001C25.943 22.2727 26.0102 22.5457 26.161 22.7734C26.4005 22.9459 26.6968 23.0205 26.9894 22.9819H27.3689C27.4818 22.9796 27.5939 23.0001 27.6987 23.0421C27.8035 23.0842 27.8986 23.147 27.9785 23.2267C28.0584 23.3065 28.1214 23.4016 28.1636 23.5062C28.2059 23.6109 28.2265 23.7231 28.2243 23.8359C28.2274 23.9488 28.207 24.0611 28.1647 24.1658C28.1223 24.2704 28.0588 24.3652 27.9781 24.4442C27.8985 24.5242 27.8034 24.5872 27.6987 24.6293C27.5939 24.6713 27.4817 24.6917 27.3689 24.689H26.2059C25.6014 24.7294 25.0042 24.5382 24.5356 24.1541C24.321 23.9116 24.1589 23.6275 24.0592 23.3195C23.9595 23.0115 23.9245 22.6862 23.9563 22.364V16.6766H23.4629Z" fill="white"/>
<path d="M78.0773 13.8136C77.8111 13.547 77.4606 13.381 77.0857 13.3439C76.7108 13.3067 76.3345 13.4007 76.0211 13.6098C75.7077 13.8189 75.4765 14.1302 75.3669 14.4907C75.2573 14.8512 75.2761 15.2385 75.42 15.5867C75.564 15.9349 75.8242 16.2224 76.1563 16.4002C76.4884 16.5781 76.872 16.6352 77.2415 16.562C77.6111 16.4888 77.9439 16.2897 78.1831 15.9987C78.4224 15.7076 78.5533 15.3426 78.5536 14.9659C78.5538 14.7519 78.5119 14.54 78.4301 14.3423C78.3484 14.1446 78.2285 13.965 78.0773 13.8136ZM76.4896 14.8224H77.0991C77.2016 14.8263 77.3039 14.8131 77.4019 14.7833C77.4699 14.7594 77.5282 14.714 77.5681 14.654C77.6052 14.5968 77.625 14.53 77.6248 14.4617C77.6261 14.4146 77.6171 14.3678 77.5983 14.3246C77.5794 14.2814 77.5513 14.2428 77.5159 14.2117C77.4158 14.1384 77.2925 14.1037 77.1689 14.1141H76.4884L76.4896 14.8224ZM76.206 16.0189V13.8805H77.1553C77.3024 13.8744 77.4496 13.8935 77.5902 13.9372C77.6906 13.9764 77.7751 14.0481 77.8301 14.1408C77.8889 14.2383 77.9197 14.3501 77.9191 14.464C77.9226 14.607 77.8691 14.7455 77.7705 14.849C77.6463 14.9649 77.4863 15.035 77.3169 15.0475C77.3784 15.0748 77.4356 15.1107 77.487 15.1541C77.5768 15.2382 77.6553 15.3335 77.7206 15.4376L78.0903 16.02H77.7365L77.453 15.5754C77.3713 15.4467 77.3016 15.3486 77.2494 15.28C77.2088 15.2251 77.16 15.1768 77.1048 15.1365C77.0652 15.1109 77.0218 15.0917 76.9761 15.0798C76.9239 15.0724 76.8712 15.0693 76.8185 15.0708H76.4896V16.0211L76.206 16.0189ZM76.9273 13.1785C77.3406 13.1787 77.741 13.3221 78.0603 13.5844C78.3797 13.8467 78.5982 14.2116 78.6786 14.6169C78.7591 15.0222 78.6966 15.4429 78.5016 15.8073C78.3067 16.1717 77.9915 16.4572 77.6096 16.6152C77.2278 16.7732 76.803 16.7939 76.4076 16.6738C76.0122 16.5538 75.6706 16.3003 75.4412 15.9566C75.2117 15.613 75.1085 15.2004 75.1491 14.7891C75.1897 14.3779 75.3717 13.9935 75.6639 13.7013C75.8298 13.5354 76.0268 13.4038 76.2436 13.3141C76.4604 13.2244 76.6927 13.1783 76.9273 13.1785Z" fill="white"/>
</svg>
