<svg width="163" height="79" viewBox="0 0 163 79" fill="none" xmlns="http://www.w3.org/2000/svg">
<path d="M100.1 39.1785C100.1 34.9225 99.1 31.6975 97.132 29.5875C95.164 27.4775 92.157 26.4135 88.196 26.4135H81.125C78.994 26.4135 77.957 27.4704 77.957 29.6465V48.7075C77.957 50.8805 78.994 51.9415 81.125 51.9415H88.092C91.876 51.9415 94.858 50.8164 96.945 48.6024C99.032 46.3884 100.1 43.2115 100.1 39.1785ZM93.419 44.9265C92.9112 45.792 92.1766 46.5024 91.2946 46.9809C90.4125 47.4593 89.4164 47.6878 88.414 47.6414H83.295V30.7164H88.378C92.617 30.7164 94.764 33.5625 94.764 39.1785C94.8466 41.1811 94.3816 43.1684 93.419 44.9265Z" fill="#0054A5"/>
<path d="M117.371 48.9635C117.178 48.2202 117.085 47.4544 117.095 46.6865V38.0455C117.095 34.6375 114.427 32.9785 108.946 32.9785C106.854 32.89 104.782 33.4148 102.984 34.4885C101.642 35.3565 100.963 36.3375 100.963 37.4045C100.96 37.637 101.007 37.8674 101.102 38.0796C101.197 38.2919 101.338 38.4809 101.513 38.6335C101.702 38.8095 101.924 38.9461 102.166 39.0352C102.409 39.1243 102.666 39.1642 102.924 39.1525C103.482 39.1191 104.007 38.8771 104.395 38.4745C104.894 37.9784 105.429 37.5195 105.995 37.1015C106.874 36.575 107.884 36.3094 108.908 36.3355C111.224 36.3355 112.393 37.1215 112.393 38.6725C112.393 39.5225 111.972 40.5805 109.962 40.8035L106.813 41.1565C105.059 41.2662 103.353 41.7718 101.823 42.6355C101.147 43.1019 100.605 43.7369 100.25 44.4774C99.8948 45.218 99.7394 46.0384 99.7991 46.8575C99.7865 47.5608 99.9353 48.2576 100.234 48.8943C100.533 49.5311 100.974 50.0908 101.523 50.5305C102.613 51.4329 103.99 51.9147 105.405 51.8885C106.698 51.9303 107.985 51.6907 109.176 51.1864C110.367 50.682 111.435 49.925 112.305 48.9675L112.682 48.5495L112.712 49.1065C112.799 50.9885 113.721 51.8885 115.525 51.8885C116.069 51.9031 116.599 51.7217 117.02 51.3775C117.211 51.2335 117.366 51.0467 117.471 50.832C117.577 50.6173 117.631 50.3807 117.628 50.1415C117.578 49.7411 117.492 49.3462 117.371 48.9615V48.9635ZM112.392 44.9885C112.395 45.5119 112.281 46.0294 112.06 46.5039C111.839 46.9783 111.516 47.3979 111.113 47.7325C110.137 48.567 108.882 49.003 107.598 48.9535C106.799 48.992 106.012 48.7567 105.365 48.2865C105.099 48.0947 104.882 47.8429 104.732 47.5514C104.582 47.26 104.503 46.9373 104.501 46.6095C104.501 45.1255 105.686 44.1975 108.027 43.8475L109.897 43.5685C110.655 43.5158 111.384 43.2556 112.004 42.8165L112.392 42.4505V44.9885Z" fill="#0054A5"/>
<path d="M123.003 35.3274C123.003 34.7042 122.756 34.1064 122.315 33.6657C121.874 33.225 121.276 32.9774 120.653 32.9774C120.03 32.9774 119.432 33.225 118.992 33.6657C118.551 34.1064 118.303 34.7042 118.303 35.3274V49.5434C118.303 50.1667 118.551 50.7644 118.992 51.2051C119.432 51.6458 120.03 51.8934 120.653 51.8934C121.276 51.8934 121.874 51.6458 122.315 51.2051C122.756 50.7644 123.003 50.1667 123.003 49.5434V35.3274Z" fill="#0054A5"/>
<path d="M135.442 33.6255C134.92 33.1842 134.251 32.9544 133.567 32.9815C131.636 32.9815 130.308 34.3565 129.508 37.1865L129.461 37.3505H128.979V35.1505C128.998 34.8581 128.956 34.5648 128.856 34.2894C128.756 34.014 128.6 33.7624 128.397 33.5505C127.977 33.1854 127.438 32.9844 126.881 32.9844C126.324 32.9844 125.786 33.1854 125.365 33.5505C125.161 33.7615 125.003 34.0128 124.902 34.2883C124.8 34.5638 124.758 34.8575 124.776 35.1505V49.5435C124.776 50.1668 125.024 50.7645 125.465 51.2052C125.905 51.6459 126.503 51.8935 127.126 51.8935C127.749 51.8935 128.347 51.6459 128.788 51.2052C129.229 50.7645 129.476 50.1668 129.476 49.5435V43.5435C129.476 39.6045 130.637 37.6045 132.928 37.6045H133.847C135.426 37.6045 136.165 36.8565 136.165 35.2545C136.175 34.9458 136.114 34.6388 135.989 34.3565C135.864 34.0742 135.677 33.8237 135.441 33.6235" fill="#0054A5"/>
<path d="M152.732 36.6305C152.937 36.1368 153.065 35.6148 153.112 35.0825C153.092 34.6118 152.909 34.1628 152.594 33.8125C152.365 33.5339 152.074 33.3134 151.744 33.1689C151.414 33.0245 151.054 32.9603 150.694 32.9815C149.552 32.9815 148.813 33.6735 148.438 35.1025L145.246 46.9475H144.82L141.45 34.7525C141.336 34.2078 141.023 33.7251 140.573 33.3979C140.122 33.0706 139.567 32.9223 139.013 32.9815C138.714 32.9725 138.416 33.0245 138.138 33.1341C137.86 33.2438 137.607 33.409 137.394 33.6195C137.179 33.8255 137.009 34.0742 136.895 34.3498C136.782 34.6254 136.727 34.9216 136.735 35.2195C136.836 36.0194 137.047 36.8017 137.36 37.5445L142.759 52.8885L142.743 52.9505C142.691 53.4501 142.454 53.912 142.078 54.2452C141.702 54.5784 141.215 54.7587 140.713 54.7505H140.184C138.722 54.7505 138.045 55.3365 138.045 56.6035C138.045 58.0415 139.032 58.7405 141.064 58.7405C141.714 58.7735 142.363 58.6747 142.973 58.4501C143.583 58.2254 144.142 57.8796 144.615 57.4335C145.604 56.3051 146.335 54.974 146.755 53.5335L152.732 36.6305Z" fill="#0054A5"/>
<path d="M35.372 48.5485C35.372 48.5485 31.472 52.4705 27 51.8305C14.629 50.0685 21.189 37.3565 22.446 30.9075C23.946 23.3275 25.4 14.0965 22.446 6.68045C21.4699 4.3805 19.6466 2.54403 17.3538 1.55128C15.061 0.55853 12.4742 0.485552 10.129 1.34745C3.46201 3.80745 1.496 14.0965 0.841003 20.4305C0.628448 22.3902 0.514634 24.3593 0.5 26.3305C0.5 36.0915 5.011 57.9855 20.7 57.9855C30.381 57.9855 34.364 49.2035 35.37 48.5485" fill="#0054A5"/>
<path d="M22.2608 47.3814C23.6169 48.3093 25.2839 48.6656 26.9008 48.3734C31.7798 47.6184 29.1648 39.4184 28.2518 36.2214C27.1848 32.4774 25.3388 28.0554 26.4888 24.1534C26.9168 23.1084 27.6451 22.2137 28.5815 21.5825C29.5179 20.9513 30.6205 20.612 31.7498 20.6074C37.4678 20.6074 39.0908 28.5234 39.0908 32.9074C39.0908 37.8234 37.7678 48.1854 29.5578 49.8634C24.4668 50.9054 22.4868 47.5804 22.2578 47.3814" fill="#26A9E0"/>
<path fill-rule="evenodd" clip-rule="evenodd" d="M123.149 28.8234C123.149 29.3167 123.003 29.799 122.729 30.2092C122.455 30.6194 122.066 30.9393 121.61 31.1282C121.155 31.3172 120.653 31.3668 120.17 31.2707C119.686 31.1747 119.241 30.9373 118.892 30.5887C118.543 30.24 118.306 29.7957 118.209 29.312C118.113 28.8282 118.162 28.3267 118.351 27.871C118.539 27.4152 118.859 27.0255 119.269 26.7513C119.679 26.4771 120.161 26.3306 120.654 26.3304C121.316 26.3304 121.95 26.593 122.418 27.0605C122.885 27.528 123.149 28.1621 123.149 28.8234Z" fill="#26A9E0"/>
<path d="M75.515 48.9634C75.3245 48.2197 75.2327 47.4541 75.242 46.6864V38.0454C75.242 34.6374 72.574 32.9784 67.093 32.9784C65.0012 32.8924 62.9298 33.419 61.133 34.4934C59.793 35.3614 59.111 36.3424 59.111 37.4094C59.1084 37.642 59.1563 37.8723 59.2514 38.0845C59.3465 38.2967 59.4866 38.4857 59.662 38.6384C59.8513 38.8143 60.0738 38.9507 60.3164 39.0398C60.5589 39.1289 60.8168 39.1689 61.075 39.1574C61.6328 39.1231 62.1575 38.8813 62.546 38.4794C63.0443 37.9825 63.5791 37.5235 64.146 37.1064C65.0232 36.5792 66.0328 36.3135 67.056 36.3404C69.369 36.3404 70.543 37.1264 70.543 38.6774C70.543 39.5274 70.122 40.5854 68.112 40.8084L64.96 41.1614C63.2073 41.2714 61.5022 41.7771 59.973 42.6404C59.2971 43.1069 58.7548 43.7419 58.3997 44.4824C58.0447 45.2229 57.8893 46.0434 57.949 46.8624C57.9364 47.5657 58.0852 48.2625 58.3841 48.8993C58.683 49.536 59.1239 50.0958 59.673 50.5354C60.7632 51.4354 62.1395 51.9153 63.553 51.8884C64.846 51.9303 66.1327 51.6908 67.3241 51.1864C68.5154 50.6821 69.583 49.925 70.453 48.9674L70.83 48.5494L70.854 49.1064C70.945 50.9814 71.864 51.8884 73.671 51.8884C74.2161 51.9036 74.7484 51.7222 75.171 51.3774C75.3618 51.2332 75.5162 51.0463 75.6218 50.8317C75.7274 50.617 75.7812 50.3806 75.779 50.1414C75.7283 49.7409 75.6409 49.346 75.518 48.9614L75.515 48.9634ZM70.539 44.9884C70.5416 45.5119 70.4283 46.0294 70.2071 46.5038C69.986 46.9783 69.6625 47.3979 69.26 47.7324C68.2821 48.5666 67.0263 49.0024 65.742 48.9534C64.9444 48.9915 64.1577 48.7562 63.512 48.2864C63.2454 48.0952 63.0279 47.8436 62.8774 47.5521C62.7268 47.2605 62.6475 46.9375 62.646 46.6094C62.646 45.1254 63.834 44.1974 66.174 43.8474L68.045 43.5684C68.8007 43.5151 69.5272 43.255 70.145 42.8164L70.535 42.4504L70.539 44.9884Z" fill="#0054A5"/>
<path d="M46.4148 35.3274C46.4148 34.7042 46.1673 34.1064 45.7265 33.6657C45.2858 33.225 44.6881 32.9774 44.0648 32.9774C43.4416 32.9774 42.8438 33.225 42.4031 33.6657C41.9624 34.1064 41.7148 34.7042 41.7148 35.3274V49.5434C41.7148 50.1667 41.9624 50.7644 42.4031 51.2051C42.8438 51.6458 43.4416 51.8934 44.0648 51.8934C44.6881 51.8934 45.2858 51.6458 45.7265 51.2051C46.1673 50.7644 46.4148 50.1667 46.4148 49.5434V35.3274Z" fill="#0054A5"/>
<path fill-rule="evenodd" clip-rule="evenodd" d="M46.561 28.8234C46.5624 29.3184 46.4168 29.8026 46.1428 30.2148C45.8687 30.6269 45.4784 30.9485 45.0214 31.1386C44.5645 31.3288 44.0613 31.379 43.5758 31.2829C43.0902 31.1868 42.6441 30.9488 42.294 30.5989C41.9438 30.2491 41.7054 29.8032 41.609 29.3177C41.5125 28.8322 41.5623 28.329 41.7521 27.8719C41.9419 27.4148 42.2631 27.0242 42.675 26.7498C43.0869 26.4754 43.5711 26.3295 44.066 26.3304C44.7274 26.3304 45.3617 26.593 45.8295 27.0605C46.2974 27.528 46.5605 28.1621 46.561 28.8234Z" fill="#0054A5"/>
<path d="M48.0659 35.2944C47.867 35.2989 47.6693 35.2629 47.4848 35.1884C47.3003 35.114 47.133 35.0027 46.9929 34.8614C46.7763 34.6519 46.6277 34.382 46.5667 34.0868C46.5057 33.7917 46.535 33.485 46.6508 33.2067C46.7666 32.9285 46.9636 32.6916 47.216 32.5269C47.4684 32.3622 47.7646 32.2773 48.0659 32.2834H49.0859V28.0694C49.0826 27.7922 49.1354 27.5171 49.2413 27.2609C49.3471 27.0046 49.5038 26.7724 49.7019 26.5784C49.8945 26.3791 50.1259 26.2213 50.3818 26.1149C50.6378 26.0084 50.9128 25.9555 51.1899 25.9594C51.4647 25.9545 51.7375 26.007 51.9908 26.1136C52.2441 26.2202 52.4724 26.3785 52.6609 26.5784C52.8553 26.7744 53.0085 27.0073 53.1115 27.2633C53.2146 27.5194 53.2654 27.7935 53.2609 28.0694V32.2884H56.8749C57.0759 32.2833 57.2759 32.3184 57.4631 32.3917C57.6502 32.465 57.8209 32.5751 57.9648 32.7154C58.1088 32.8557 58.2232 33.0234 58.3014 33.2087C58.3795 33.3939 58.4197 33.5929 58.4197 33.7939C58.4197 33.995 58.3795 34.194 58.3014 34.3792C58.2232 34.5644 58.1088 34.7322 57.9648 34.8725C57.8209 35.0128 57.6502 35.1228 57.4631 35.1962C57.2759 35.2695 57.0759 35.3046 56.8749 35.2994H53.2609V46.3234C53.2033 46.8863 53.3425 47.4517 53.6549 47.9234C54.151 48.2807 54.7648 48.4353 55.3709 48.3554H56.1569C56.3907 48.3505 56.6231 48.3929 56.8401 48.4801C57.0571 48.5672 57.2543 48.6973 57.4198 48.8625C57.5852 49.0277 57.7156 49.2246 57.8031 49.4415C57.8906 49.6583 57.9334 49.8906 57.9289 50.1244C57.9352 50.3582 57.8931 50.5908 57.8053 50.8076C57.7176 51.0244 57.586 51.2208 57.4189 51.3844C57.254 51.5501 57.057 51.6806 56.8401 51.7677C56.6231 51.8549 56.3907 51.897 56.1569 51.8914H53.7479C52.4957 51.9752 51.2586 51.579 50.2879 50.7834C49.8435 50.2812 49.5076 49.6927 49.3011 49.0546C49.0946 48.4166 49.022 47.7428 49.0879 47.0754V35.2944H48.0659Z" fill="#0054A5"/>
<path d="M12.1006 76.5596V68.6855H13.1694L17.3052 74.8677V68.6855H18.3042V76.5596H17.2354L13.0996 70.3721V76.5596H12.1006Z" fill="#0054A5"/>
<path d="M19.7598 77.0322L20.6997 77.1719C20.7391 77.4619 20.8483 77.6732 21.0273 77.8057C21.2673 77.9847 21.5949 78.0742 22.0103 78.0742C22.4578 78.0742 22.8034 77.9847 23.0469 77.8057C23.2904 77.6266 23.4551 77.376 23.541 77.0537C23.5911 76.8568 23.6144 76.4432 23.6108 75.813C23.1883 76.3107 22.6619 76.5596 22.0317 76.5596C21.2476 76.5596 20.6406 76.2767 20.2109 75.7109C19.7812 75.1452 19.5664 74.4666 19.5664 73.6753C19.5664 73.131 19.6649 72.6297 19.8618 72.1714C20.0588 71.7095 20.3434 71.3532 20.7158 71.1025C21.0918 70.8519 21.5322 70.7266 22.0371 70.7266C22.7103 70.7266 23.2653 70.9987 23.7021 71.543V70.8555H24.5938V75.7861C24.5938 76.6742 24.5024 77.3026 24.3198 77.6714C24.1408 78.0438 23.8543 78.3374 23.4604 78.5522C23.0701 78.7671 22.5885 78.8745 22.0156 78.8745C21.3353 78.8745 20.7856 78.7205 20.3667 78.4126C19.9478 78.1082 19.7454 77.6481 19.7598 77.0322ZM20.5601 73.6055C20.5601 74.3538 20.7087 74.8999 21.0059 75.2437C21.3031 75.5874 21.6755 75.7593 22.123 75.7593C22.5671 75.7593 22.9395 75.5892 23.2402 75.249C23.541 74.9053 23.6914 74.3682 23.6914 73.6377C23.6914 72.9395 23.5356 72.4131 23.2241 72.0586C22.9162 71.7041 22.5438 71.5269 22.1069 71.5269C21.6772 71.5269 21.312 71.7023 21.0112 72.0532C20.7104 72.4006 20.5601 72.918 20.5601 73.6055Z" fill="#0054A5"/>
<path d="M26.0601 76.5596V68.6855H27.0269V71.5107C27.478 70.988 28.0474 70.7266 28.7349 70.7266C29.1574 70.7266 29.5244 70.8107 29.8359 70.979C30.1475 71.1437 30.3695 71.3729 30.502 71.6665C30.638 71.9601 30.7061 72.3862 30.7061 72.9448V76.5596H29.7393V72.9448C29.7393 72.4614 29.6336 72.1105 29.4224 71.8921C29.2147 71.6701 28.9193 71.5591 28.5361 71.5591C28.2497 71.5591 27.9793 71.6343 27.7251 71.7847C27.4744 71.9315 27.2954 72.132 27.188 72.3862C27.0806 72.6405 27.0269 72.9914 27.0269 73.439V76.5596H26.0601Z" fill="#0054A5"/>
<path d="M32.5215 76.5596V70.8555H33.4883V76.5596H32.5215ZM31.2163 70.0122C31.2127 69.6398 31.3148 69.3426 31.5225 69.1206C31.7266 68.8986 31.988 68.7876 32.3066 68.7876C32.5286 68.7876 32.8312 68.8843 33.2144 69.0776C33.4256 69.1851 33.5939 69.2388 33.7192 69.2388C33.8338 69.2388 33.9215 69.2083 33.9824 69.1475C34.0433 69.083 34.0863 68.9577 34.1113 68.7715H34.8096C34.7988 69.1797 34.695 69.4858 34.498 69.6899C34.3047 69.894 34.0576 69.9961 33.7568 69.9961C33.5312 69.9961 33.234 69.8958 32.8652 69.6953C32.6253 69.5664 32.4499 69.502 32.3389 69.502C32.2171 69.502 32.1187 69.5449 32.0435 69.6309C31.9647 69.7168 31.9271 69.8439 31.9307 70.0122H31.2163Z" fill="#0054A5"/>
<path d="M38.9668 75.856C38.6087 76.1603 38.2632 76.3752 37.9302 76.5005C37.6007 76.6258 37.2463 76.6885 36.8667 76.6885C36.2401 76.6885 35.7585 76.5363 35.4219 76.2319C35.0853 75.924 34.917 75.5319 34.917 75.0557C34.917 74.7764 34.9797 74.5221 35.105 74.293C35.2339 74.0602 35.4004 73.874 35.6045 73.7344C35.8122 73.5947 36.0449 73.4891 36.3027 73.4175C36.4925 73.3674 36.779 73.319 37.1621 73.2725C37.9427 73.1794 38.5174 73.0684 38.8862 72.9395C38.8898 72.807 38.8916 72.7228 38.8916 72.687C38.8916 72.2931 38.8003 72.0156 38.6177 71.8545C38.3706 71.6361 38.0036 71.5269 37.5166 71.5269C37.0618 71.5269 36.7253 71.6074 36.5068 71.7686C36.292 71.9261 36.1327 72.2072 36.0288 72.6118L35.0835 72.4829C35.1694 72.0783 35.3109 71.7524 35.5078 71.5054C35.7048 71.2547 35.9894 71.0632 36.3618 70.9307C36.7342 70.7946 37.1657 70.7266 37.6562 70.7266C38.1432 70.7266 38.5389 70.7839 38.8433 70.8984C39.1476 71.013 39.3714 71.158 39.5146 71.3335C39.6579 71.5054 39.7581 71.7238 39.8154 71.9888C39.8477 72.1535 39.8638 72.4507 39.8638 72.8804V74.1694C39.8638 75.0682 39.8835 75.6375 39.9229 75.8774C39.9658 76.1138 40.0482 76.3411 40.1699 76.5596H39.1602C39.0599 76.359 38.9954 76.1245 38.9668 75.856ZM38.8862 73.6968C38.5353 73.84 38.009 73.9618 37.3071 74.062C36.9097 74.1193 36.6286 74.1838 36.4639 74.2554C36.2992 74.327 36.172 74.4326 36.0825 74.5723C35.993 74.7083 35.9482 74.8605 35.9482 75.0288C35.9482 75.2866 36.0449 75.5015 36.2383 75.6733C36.4352 75.8452 36.7217 75.9312 37.0977 75.9312C37.4701 75.9312 37.8013 75.8506 38.0913 75.6895C38.3813 75.5247 38.5944 75.3009 38.7305 75.0181C38.8343 74.7996 38.8862 74.4774 38.8862 74.0513V73.6968Z" fill="#0054A5"/>
<path d="M46.0137 76.5596L43.8438 70.8555H44.8643L46.0889 74.2715C46.2214 74.6403 46.3431 75.0234 46.4541 75.4209C46.54 75.1201 46.66 74.7585 46.814 74.3359L48.0815 70.8555H49.0752L46.916 76.5596H46.0137Z" fill="#0054A5"/>
<path d="M53.6675 76.5596V75.7217C53.2235 76.3662 52.6201 76.6885 51.8574 76.6885C51.5208 76.6885 51.2057 76.624 50.9121 76.4951C50.6221 76.3662 50.4054 76.2051 50.2622 76.0117C50.1226 75.8148 50.0241 75.5749 49.9668 75.292C49.9274 75.1022 49.9077 74.8014 49.9077 74.3896V70.8555H50.8745V74.019C50.8745 74.5239 50.8942 74.8641 50.9336 75.0396C50.9945 75.2938 51.1234 75.4943 51.3203 75.6411C51.5173 75.7843 51.7607 75.856 52.0508 75.856C52.3408 75.856 52.613 75.7826 52.8672 75.6357C53.1214 75.4854 53.3005 75.283 53.4043 75.0288C53.5117 74.771 53.5654 74.3986 53.5654 73.9116V70.8555H54.5322V76.5596H53.6675ZM51.4922 78.3052V77.2041H52.5933V78.3052H51.4922Z" fill="#0054A5"/>
<path d="M60.6982 76.5596L58.5283 70.8555H59.5488L60.7734 74.2715C60.9059 74.6403 61.0277 75.0234 61.1387 75.4209C61.2246 75.1201 61.3446 74.7585 61.4985 74.3359L62.7661 70.8555H63.7598L61.6006 76.5596H60.6982Z" fill="#0054A5"/>
<path d="M68.3521 76.5596V75.7217C67.908 76.3662 67.3047 76.6885 66.542 76.6885C66.2054 76.6885 65.8903 76.624 65.5967 76.4951C65.3066 76.3662 65.09 76.2051 64.9468 76.0117C64.8071 75.8148 64.7087 75.5749 64.6514 75.292C64.612 75.1022 64.5923 74.8014 64.5923 74.3896V70.8555H65.5591V74.019C65.5591 74.5239 65.5788 74.8641 65.6182 75.0396C65.679 75.2938 65.8079 75.4943 66.0049 75.6411C66.2018 75.7843 66.4453 75.856 66.7354 75.856C67.0254 75.856 67.2975 75.7826 67.5518 75.6357C67.806 75.4854 67.985 75.283 68.0889 75.0288C68.1963 74.771 68.25 74.3986 68.25 73.9116V70.8555H69.2168V76.5596H68.3521Z" fill="#0054A5"/>
<path d="M70.7368 76.5596V70.8555H71.6069V71.6665C72.0259 71.0399 72.631 70.7266 73.4224 70.7266C73.7661 70.7266 74.0812 70.7892 74.3677 70.9146C74.6577 71.0363 74.8743 71.1974 75.0176 71.3979C75.1608 71.5985 75.2611 71.8366 75.3184 72.1123C75.3542 72.2913 75.3721 72.6047 75.3721 73.0522V76.5596H74.4053V73.0898C74.4053 72.696 74.3677 72.4023 74.2925 72.209C74.2173 72.012 74.083 71.8563 73.8896 71.7417C73.6999 71.6235 73.4761 71.5645 73.2183 71.5645C72.8065 71.5645 72.4502 71.6951 72.1494 71.9565C71.8522 72.2179 71.7036 72.7139 71.7036 73.4443V76.5596H70.7368Z" fill="#0054A5"/>
<path d="M80.813 76.5596H79.916V68.6855H80.8828V71.4946C81.291 70.9826 81.812 70.7266 82.4458 70.7266C82.7967 70.7266 83.1279 70.7982 83.4395 70.9414C83.7546 71.0811 84.0124 71.2798 84.2129 71.5376C84.417 71.7918 84.5763 72.0998 84.6909 72.4614C84.8055 72.8231 84.8628 73.2098 84.8628 73.6216C84.8628 74.5991 84.6211 75.3547 84.1377 75.8882C83.6543 76.4217 83.0742 76.6885 82.3975 76.6885C81.7243 76.6885 81.1961 76.4074 80.813 75.8452V76.5596ZM80.8022 73.6646C80.8022 74.3485 80.8953 74.8426 81.0815 75.147C81.3859 75.6447 81.7977 75.8936 82.3169 75.8936C82.7394 75.8936 83.1047 75.7109 83.4126 75.3457C83.7205 74.9769 83.8745 74.429 83.8745 73.7021C83.8745 72.9574 83.7259 72.4077 83.4287 72.0532C83.1351 71.6987 82.7788 71.5215 82.3599 71.5215C81.9373 71.5215 81.5721 71.7059 81.2642 72.0747C80.9562 72.4399 80.8022 72.9699 80.8022 73.6646Z" fill="#0054A5"/>
<path d="M85.6846 73.7075C85.6846 72.6512 85.9782 71.8688 86.5654 71.3604C87.056 70.9378 87.654 70.7266 88.3594 70.7266C89.1436 70.7266 89.7845 70.9844 90.2822 71.5C90.7799 72.012 91.0288 72.721 91.0288 73.627C91.0288 74.361 90.9178 74.9393 90.6958 75.3618C90.4774 75.7808 90.1569 76.1066 89.7344 76.3394C89.3154 76.5721 88.8571 76.6885 88.3594 76.6885C87.5609 76.6885 86.9146 76.4325 86.4204 75.9204C85.9298 75.4084 85.6846 74.6707 85.6846 73.7075ZM86.6782 73.7075C86.6782 74.438 86.8376 74.9858 87.1562 75.3511C87.4749 75.7127 87.876 75.8936 88.3594 75.8936C88.8392 75.8936 89.2384 75.7109 89.5571 75.3457C89.8758 74.9805 90.0352 74.4237 90.0352 73.6753C90.0352 72.9699 89.874 72.4364 89.5518 72.0747C89.2331 71.7095 88.8356 71.5269 88.3594 71.5269C87.876 71.5269 87.4749 71.7077 87.1562 72.0693C86.8376 72.431 86.6782 72.9771 86.6782 73.7075ZM88.3701 69.2334L87.7632 70.1465H86.6567L87.8169 68.6426H88.8481L90.0566 70.1465H88.9609L88.3701 69.2334ZM88.8481 68.2505H88.0693L86.8286 66.7466H88.123L88.8481 68.2505Z" fill="#0054A5"/>
<path d="M92.1729 69.7974V68.6855H93.1396V69.7974H92.1729ZM92.1729 76.5596V70.8555H93.1396V76.5596H92.1729Z" fill="#0054A5"/>
<path d="M97.2915 74.8569L98.2476 74.7065C98.3013 75.0897 98.4499 75.3833 98.6934 75.5874C98.9404 75.7915 99.2842 75.8936 99.7246 75.8936C100.169 75.8936 100.498 75.804 100.713 75.625C100.928 75.4424 101.035 75.2293 101.035 74.9858C101.035 74.7674 100.94 74.5955 100.75 74.4702C100.618 74.3843 100.289 74.2751 99.7622 74.1426C99.0532 73.9635 98.5609 73.8096 98.2852 73.6807C98.013 73.5482 97.8053 73.3674 97.6621 73.1382C97.5225 72.9054 97.4526 72.6494 97.4526 72.3701C97.4526 72.1159 97.5099 71.8813 97.6245 71.6665C97.7427 71.4481 97.902 71.2673 98.1025 71.124C98.2529 71.013 98.457 70.9199 98.7148 70.8447C98.9762 70.766 99.2555 70.7266 99.5527 70.7266C100 70.7266 100.392 70.791 100.729 70.9199C101.069 71.0488 101.32 71.2243 101.481 71.4463C101.642 71.6647 101.753 71.9583 101.814 72.3271L100.869 72.4561C100.826 72.1624 100.7 71.9333 100.493 71.7686C100.289 71.6038 99.9985 71.5215 99.6226 71.5215C99.1786 71.5215 98.8617 71.5949 98.6719 71.7417C98.4821 71.8885 98.3872 72.0604 98.3872 72.2573C98.3872 72.3826 98.4266 72.4954 98.5054 72.5957C98.5841 72.6995 98.7077 72.7855 98.876 72.8535C98.9727 72.8893 99.2573 72.9717 99.73 73.1006C100.414 73.2832 100.89 73.4336 101.159 73.5518C101.431 73.6663 101.644 73.8346 101.798 74.0566C101.952 74.2786 102.029 74.5544 102.029 74.8838C102.029 75.2061 101.934 75.5104 101.744 75.7969C101.558 76.0798 101.288 76.3 100.933 76.4575C100.579 76.6115 100.178 76.6885 99.73 76.6885C98.9888 76.6885 98.423 76.5345 98.0327 76.2266C97.646 75.9186 97.3989 75.4621 97.2915 74.8569Z" fill="#0054A5"/>
<path d="M108.447 71.978V70.8555H109.484V71.7417C109.484 72.3039 109.419 72.696 109.291 72.918C108.961 73.4909 108.458 73.8132 107.781 73.8848V76.5596H106.917V75.7217C106.472 76.3662 105.869 76.6885 105.106 76.6885C104.773 76.6885 104.46 76.6258 104.167 76.5005C103.876 76.3716 103.66 76.2087 103.517 76.0117C103.373 75.8148 103.273 75.5749 103.216 75.292C103.176 75.0986 103.157 74.7979 103.157 74.3896V70.8555H104.124V74.019C104.124 74.5311 104.143 74.8713 104.183 75.0396C104.308 75.5838 104.68 75.856 105.3 75.856C105.597 75.856 105.871 75.7808 106.122 75.6304C106.376 75.48 106.555 75.2777 106.659 75.0234C106.763 74.7692 106.814 74.3986 106.814 73.9116V70.8555H107.781V73.4766C108.236 73.3978 108.576 73.1847 108.802 72.8374C108.902 72.687 108.952 72.4006 108.952 71.978H108.447ZM104.886 70.1465L105.601 68.6426H106.868L105.687 70.1465H104.886Z" fill="#0054A5"/>
<path d="M114.27 74.4702L115.22 74.5938C115.116 75.249 114.85 75.7629 114.42 76.1353C113.994 76.5041 113.469 76.6885 112.846 76.6885C112.066 76.6885 111.437 76.4342 110.961 75.9258C110.488 75.4137 110.252 74.6815 110.252 73.729C110.252 73.1131 110.354 72.5742 110.558 72.1123C110.762 71.6504 111.072 71.3049 111.487 71.0757C111.906 70.8429 112.361 70.7266 112.852 70.7266C113.471 70.7266 113.978 70.8841 114.372 71.1992C114.765 71.5107 115.018 71.9548 115.129 72.5312L114.189 72.6763C114.099 72.2931 113.94 72.0049 113.711 71.8115C113.485 71.6182 113.211 71.5215 112.889 71.5215C112.402 71.5215 112.007 71.6969 111.702 72.0479C111.398 72.3952 111.246 72.9466 111.246 73.7021C111.246 74.4684 111.392 75.0252 111.686 75.3726C111.98 75.7199 112.363 75.8936 112.835 75.8936C113.215 75.8936 113.532 75.7772 113.786 75.5444C114.04 75.3117 114.201 74.9536 114.27 74.4702Z" fill="#0054A5"/>
<path d="M118.722 74.8569L119.678 74.7065C119.732 75.0897 119.881 75.3833 120.124 75.5874C120.371 75.7915 120.715 75.8936 121.155 75.8936C121.599 75.8936 121.929 75.804 122.144 75.625C122.358 75.4424 122.466 75.2293 122.466 74.9858C122.466 74.7674 122.371 74.5955 122.181 74.4702C122.049 74.3843 121.719 74.2751 121.193 74.1426C120.484 73.9635 119.992 73.8096 119.716 73.6807C119.444 73.5482 119.236 73.3674 119.093 73.1382C118.953 72.9054 118.883 72.6494 118.883 72.3701C118.883 72.1159 118.941 71.8813 119.055 71.6665C119.173 71.4481 119.333 71.2673 119.533 71.124C119.684 71.013 119.888 70.9199 120.146 70.8447C120.407 70.766 120.686 70.7266 120.983 70.7266C121.431 70.7266 121.823 70.791 122.16 70.9199C122.5 71.0488 122.75 71.2243 122.912 71.4463C123.073 71.6647 123.184 71.9583 123.245 72.3271L122.299 72.4561C122.256 72.1624 122.131 71.9333 121.923 71.7686C121.719 71.6038 121.429 71.5215 121.053 71.5215C120.609 71.5215 120.292 71.5949 120.103 71.7417C119.913 71.8885 119.818 72.0604 119.818 72.2573C119.818 72.3826 119.857 72.4954 119.936 72.5957C120.015 72.6995 120.138 72.7855 120.307 72.8535C120.403 72.8893 120.688 72.9717 121.161 73.1006C121.845 73.2832 122.321 73.4336 122.589 73.5518C122.861 73.6663 123.075 73.8346 123.229 74.0566C123.382 74.2786 123.459 74.5544 123.459 74.8838C123.459 75.2061 123.365 75.5104 123.175 75.7969C122.989 76.0798 122.718 76.3 122.364 76.4575C122.009 76.6115 121.608 76.6885 121.161 76.6885C120.419 76.6885 119.854 76.5345 119.463 76.2266C119.077 75.9186 118.83 75.4621 118.722 74.8569Z" fill="#0054A5"/>
<path d="M124.249 73.7075C124.249 72.6512 124.543 71.8688 125.13 71.3604C125.62 70.9378 126.218 70.7266 126.924 70.7266C127.708 70.7266 128.349 70.9844 128.847 71.5C129.344 72.012 129.593 72.721 129.593 73.627C129.593 74.361 129.482 74.9393 129.26 75.3618C129.042 75.7808 128.721 76.1066 128.299 76.3394C127.88 76.5721 127.422 76.6885 126.924 76.6885C126.125 76.6885 125.479 76.4325 124.985 75.9204C124.494 75.4084 124.249 74.6707 124.249 73.7075ZM125.243 73.7075C125.243 74.438 125.402 74.9858 125.721 75.3511C126.039 75.7127 126.44 75.8936 126.924 75.8936C127.404 75.8936 127.803 75.7109 128.122 75.3457C128.44 74.9805 128.6 74.4237 128.6 73.6753C128.6 72.9699 128.438 72.4364 128.116 72.0747C127.798 71.7095 127.4 71.5269 126.924 71.5269C126.44 71.5269 126.039 71.7077 125.721 72.0693C125.402 72.431 125.243 72.9771 125.243 73.7075ZM126.935 69.2334L126.328 70.1465H125.221L126.381 68.6426H127.413L128.621 70.1465H127.525L126.935 69.2334ZM127.106 66.7466H128.401L127.16 68.2505H126.381L127.106 66.7466Z" fill="#0054A5"/>
<path d="M130.732 76.5596V70.8555H131.602V71.6665C132.021 71.0399 132.626 70.7266 133.417 70.7266C133.761 70.7266 134.076 70.7892 134.363 70.9146C134.653 71.0363 134.869 71.1974 135.013 71.3979C135.156 71.5985 135.256 71.8366 135.313 72.1123C135.349 72.2913 135.367 72.6047 135.367 73.0522V76.5596H134.4V73.0898C134.4 72.696 134.363 72.4023 134.288 72.209C134.212 72.012 134.078 71.8563 133.885 71.7417C133.695 71.6235 133.471 71.5645 133.213 71.5645C132.802 71.5645 132.445 71.6951 132.145 71.9565C131.847 72.2179 131.699 72.7139 131.699 73.4443V76.5596H130.732Z" fill="#0054A5"/>
<path d="M136.678 77.0322L137.618 77.1719C137.657 77.4619 137.766 77.6732 137.945 77.8057C138.185 77.9847 138.513 78.0742 138.928 78.0742C139.376 78.0742 139.721 77.9847 139.965 77.8057C140.208 77.6266 140.373 77.376 140.459 77.0537C140.509 76.8568 140.532 76.4432 140.529 75.813C140.106 76.3107 139.58 76.5596 138.95 76.5596C138.166 76.5596 137.559 76.2767 137.129 75.7109C136.699 75.1452 136.484 74.4666 136.484 73.6753C136.484 73.131 136.583 72.6297 136.78 72.1714C136.977 71.7095 137.261 71.3532 137.634 71.1025C138.01 70.8519 138.45 70.7266 138.955 70.7266C139.628 70.7266 140.183 70.9987 140.62 71.543V70.8555H141.512V75.7861C141.512 76.6742 141.42 77.3026 141.238 77.6714C141.059 78.0438 140.772 78.3374 140.378 78.5522C139.988 78.7671 139.507 78.8745 138.934 78.8745C138.253 78.8745 137.704 78.7205 137.285 78.4126C136.866 78.1082 136.663 77.6481 136.678 77.0322ZM137.478 73.6055C137.478 74.3538 137.627 74.8999 137.924 75.2437C138.221 75.5874 138.593 75.7593 139.041 75.7593C139.485 75.7593 139.857 75.5892 140.158 75.249C140.459 74.9053 140.609 74.3682 140.609 73.6377C140.609 72.9395 140.454 72.4131 140.142 72.0586C139.834 71.7041 139.462 71.5269 139.025 71.5269C138.595 71.5269 138.23 71.7023 137.929 72.0532C137.628 72.4006 137.478 72.918 137.478 73.6055Z" fill="#0054A5"/>
<path d="M161.196 29.3639C160.644 28.8117 159.918 28.4679 159.142 28.3909C158.365 28.3139 157.586 28.5086 156.937 28.9418C156.287 29.3749 155.809 30.0198 155.581 30.7665C155.354 31.5131 155.393 32.3154 155.691 33.0367C155.99 33.7579 156.529 34.3534 157.217 34.7218C157.905 35.0903 158.699 35.2087 159.465 35.057C160.23 34.9054 160.919 34.493 161.415 33.8901C161.911 33.2872 162.182 32.5311 162.183 31.7507C162.183 31.3075 162.096 30.8686 161.927 30.4591C161.757 30.0496 161.509 29.6774 161.196 29.3639ZM157.907 31.4535H159.17C159.382 31.4617 159.594 31.4343 159.797 31.3725C159.938 31.323 160.059 31.229 160.141 31.1047C160.218 30.9861 160.259 30.8478 160.259 30.7065C160.261 30.6089 160.242 30.5118 160.204 30.4223C160.165 30.3328 160.106 30.253 160.033 30.1885C159.826 30.0366 159.57 29.9649 159.314 29.9864H157.905L157.907 31.4535ZM157.32 33.9319V29.5025H159.286C159.591 29.4898 159.895 29.5295 160.187 29.62C160.395 29.7012 160.57 29.8496 160.684 30.0416C160.806 30.2436 160.869 30.4753 160.868 30.7112C160.875 31.0073 160.765 31.2942 160.56 31.5087C160.303 31.7488 159.972 31.8938 159.621 31.9198C159.748 31.9764 159.867 32.0507 159.973 32.1407C160.159 32.3148 160.322 32.5122 160.457 32.728L161.223 33.9343H160.49L159.903 33.0134C159.733 32.7468 159.589 32.5435 159.481 32.4014C159.397 32.2878 159.296 32.1876 159.181 32.1042C159.099 32.0511 159.009 32.0114 158.915 31.9868C158.807 31.9713 158.697 31.965 158.588 31.968H157.907V33.9366L157.32 33.9319ZM158.814 28.0483C159.67 28.0487 160.499 28.3458 161.161 28.8891C161.822 29.4324 162.275 30.1882 162.441 31.0278C162.608 31.8674 162.479 32.7389 162.075 33.4936C161.671 34.2484 161.018 34.8399 160.227 35.1672C159.436 35.4945 158.556 35.5374 157.737 35.2887C156.918 35.0399 156.211 34.5149 155.735 33.803C155.26 33.0911 155.046 32.2365 155.13 31.3846C155.214 30.5328 155.591 29.7364 156.197 29.1313C156.54 28.7876 156.948 28.5151 157.397 28.3292C157.846 28.1434 158.328 28.048 158.814 28.0483Z" fill="#0054A5"/>
</svg>
