<svg width="175" height="117" viewBox="0 0 175 117" fill="none" xmlns="http://www.w3.org/2000/svg">
<path d="M89.9604 59.4539L151.399 65.3403L141.107 116.713L87.0344 107.607L89.9604 59.4539Z" fill="#B3B2B2"/>
<path d="M89.1174 73.2574C91.5554 72.7026 94.0314 72.5402 95.9254 73.8518C96.683 74.4355 97.3592 75.1161 97.9364 75.8757C98.7465 77.0046 99.807 77.9345 101.036 78.594C103.551 79.7333 106.357 78.6336 108.788 77.5132C110.933 76.5226 113.388 75.5488 115.383 76.4948C116.349 77.0534 117.187 77.8047 117.843 78.701C118.638 79.7805 119.668 80.6676 120.858 81.2955C123.246 82.3565 125.873 81.3431 127.985 80.5298C129.997 79.7541 132.285 79.0953 133.959 80.0978C134.663 80.5904 135.272 81.2025 135.759 81.9058C136.386 82.8188 137.205 83.5864 138.159 84.1555C140.059 85.1343 142.332 84.5072 143.874 83.9495L144.447 83.7384C145.541 83.2659 146.702 82.9651 147.888 82.8469L148.162 81.4818C146.714 81.5443 145.291 81.8781 143.967 82.4655L143.404 82.6715C141.995 83.1807 140.197 83.6721 138.79 82.9479C138.014 82.4627 137.348 81.8214 136.837 81.0657C136.251 80.2301 135.515 79.5082 134.665 78.9358C132.479 77.6291 129.809 78.3692 127.487 79.2657C125.613 79.9869 123.287 80.8854 121.416 80.0582C120.417 79.5064 119.553 78.7434 118.885 77.8233C118.109 76.7772 117.116 75.9075 115.973 75.2724C113.562 74.1272 110.816 75.0832 108.209 76.2838C105.956 77.323 103.59 78.2651 101.604 77.3617C100.568 76.7794 99.6764 75.9756 98.9934 75.0089C98.3395 74.1546 97.5722 73.3915 96.7124 72.7403C94.5124 71.2137 91.8244 71.2989 89.2054 71.8487L89.1174 73.2574Z" fill="white"/>
<path d="M141.942 112.543C141.308 112.166 140.709 111.736 140.152 111.255C139.622 110.793 139.091 110.264 138.579 109.753C136.889 108.069 135.14 106.323 132.671 106.076C130.949 106.04 129.243 106.408 127.693 107.151C125.875 107.844 124.157 108.507 122.619 107.826C121.78 107.368 121.048 106.74 120.469 105.984C119.845 105.21 119.1 104.541 118.262 104.002C115.801 102.586 112.726 103.566 110.627 104.427L110.272 104.573C108.19 105.43 106.038 106.317 104.038 105.771C102.854 105.35 101.766 104.7 100.838 103.859C100.438 103.541 100.027 103.225 99.6117 102.932C97.8533 101.741 95.8527 100.945 93.7506 100.6C91.6485 100.256 89.4958 100.372 87.4437 100.94L87.3557 102.396C89.2693 101.802 91.2928 101.642 93.2773 101.926C95.2617 102.211 97.1564 102.933 98.8217 104.039C99.2217 104.317 99.6047 104.62 99.9907 104.922C101.06 105.88 102.315 106.614 103.679 107.077C106.133 107.749 108.615 106.727 110.804 105.824L111.155 105.68C113.14 104.866 115.664 104.073 117.579 105.175C118.289 105.645 118.921 106.222 119.45 106.886C120.152 107.792 121.044 108.535 122.065 109.066C124.125 109.978 126.193 109.183 128.193 108.415C129.544 107.755 131.032 107.416 132.539 107.424C134.519 107.622 136.022 109.121 137.612 110.707C138.141 111.234 138.688 111.78 139.253 112.271C139.995 112.913 140.804 113.475 141.667 113.948L141.942 112.543Z" fill="white"/>
<path d="M142.91 92.132C141.51 91.7546 140.53 90.547 139.489 89.2661C138.539 87.8355 137.198 86.7018 135.622 85.9969C133.222 85.1688 130.752 86.2793 128.439 87.6038C126.253 88.856 124.287 89.8516 122.371 89.3513C120.801 88.9412 119.705 87.6147 118.544 86.209C117.558 84.8103 116.262 83.6543 114.754 82.8299C111.918 81.542 108.704 82.711 106.222 83.874L105.749 84.0969C103.459 85.1767 101.09 86.2951 98.7492 85.892C97.4229 85.5748 96.1636 85.0282 95.0292 84.2772C94.4432 83.9414 93.8372 83.5927 93.2122 83.2925C91.7573 82.6027 90.189 82.1776 88.5822 82.0374L88.5002 83.3876C89.9279 83.5184 91.3208 83.8991 92.6142 84.512C93.1942 84.7903 93.7772 85.1252 94.3412 85.4501C95.6138 86.2851 97.0272 86.8874 98.5142 87.2283C101.282 87.7048 103.967 86.4358 106.335 85.3213L106.804 85.1004C109.017 84.0622 111.856 83.0062 114.18 84.0632C115.494 84.8073 116.622 85.8345 117.48 87.0688C118.729 88.5786 120.019 90.1398 122.018 90.6619C124.637 91.3465 127.227 89.8615 129.118 88.7797C131.148 87.6167 133.287 86.629 135.164 87.2788C136.491 87.9113 137.616 88.8932 138.416 90.117C139.547 91.5089 140.716 92.9483 142.543 93.4407C143.609 93.688 144.72 93.6645 145.773 93.3723L146.073 91.8963C145.059 92.2524 143.967 92.3338 142.91 92.132Z" fill="white"/>
<path d="M91.6463 93.5368C92.536 94.0603 93.3862 94.647 94.1903 95.2922C95.6362 96.5842 97.3685 97.5211 99.2473 98.0274C102.013 98.5614 104.592 97.3538 107.086 96.1858C107.357 96.059 107.626 95.9332 107.894 95.8103C111.205 94.2907 113.757 94.1114 115.481 95.2794C116.194 95.8258 116.819 96.4761 117.334 97.2081C118.025 98.2273 118.937 99.0812 120.002 99.7075C122.344 100.888 125.002 99.9057 127.524 98.6674C129.58 97.6569 131.933 96.6574 133.824 97.5915C134.913 98.281 135.799 99.2438 136.39 100.382C136.69 100.84 136.997 101.313 137.336 101.757C138.835 103.688 140.935 105.076 143.31 105.706L143.576 104.376C141.529 103.815 139.723 102.608 138.429 100.939C138.12 100.536 137.839 100.103 137.54 99.6451C136.826 98.295 135.752 97.1644 134.435 96.376C132.097 95.2229 129.441 96.2116 126.917 97.4499C124.717 98.5317 122.428 99.4084 120.623 98.498C119.741 97.9545 118.987 97.2291 118.412 96.371C117.813 95.5272 117.085 94.7809 116.254 94.1589C114.104 92.7027 111.097 92.8434 107.318 94.579C107.047 94.7038 106.774 94.8316 106.5 94.9594C104.205 96.0342 101.832 97.1447 99.5093 96.696C97.8414 96.2246 96.3062 95.3769 95.0243 94.2194C94.1675 93.5331 93.2611 92.91 92.3123 92.355C90.9926 91.6366 89.5364 91.198 88.0363 91.0671L87.9543 92.4154C89.2495 92.5351 90.5061 92.9167 91.6463 93.5368Z" fill="white"/>
<g style="mix-blend-mode:multiply">
<path d="M89.7676 62.5486L89.0676 74.1193C89.7676 74.0985 90.3936 74.0807 90.8376 74.1144C97.877 74.6571 104.824 76.046 111.525 78.2503C124.021 82.3569 135.396 89.2541 144.774 98.409L150.749 68.5727L89.7676 62.5486Z" fill="#D9D9D9"/>
</g>
<path d="M148.234 42.3751C147.971 41.443 147.5 40.581 146.858 39.852C146.215 39.1229 145.416 38.5451 144.519 38.1609C143.168 37.5905 141.711 37.3064 140.242 37.3268C136.96 37.274 133.715 38.0238 130.794 39.5099C127.874 40.9959 125.369 43.1723 123.5 45.8463C119.844 41.0414 114.528 37.7402 108.569 36.5739C107.569 36.3896 104.528 35.8289 102.156 37.7201C101 38.7402 100.24 40.1277 100.006 41.6436C99.7713 43.1594 100.078 44.7088 100.873 46.0247C102.034 47.8668 103.68 49.3607 105.634 50.3459C110.754 53.327 116.325 55.4703 122.134 56.6929L122.247 57.9431C123.18 57.8606 124.107 57.7509 125.028 57.6142C131.606 56.6406 137.913 54.339 143.556 50.8521C144.828 50.1283 145.958 49.1845 146.893 48.0654C147.542 47.2824 148.001 46.3619 148.233 45.3752C148.466 44.3884 148.466 43.3619 148.234 42.3751ZM108.756 45.0875C107.772 44.6139 106.916 43.9163 106.256 43.0517C106.161 42.8758 106.114 42.6786 106.118 42.4791C106.564 42.4456 107.012 42.479 107.447 42.5782C111.871 43.4441 115.82 45.8874 118.547 49.4454C115.132 48.352 111.849 46.8906 108.756 45.0875ZM142.027 44.3316C141.524 44.8696 140.937 45.3253 140.29 45.6819C136.37 48.1052 132.075 49.8765 127.577 50.9254C128.589 48.964 130.061 47.2726 131.872 45.9937C133.682 44.7149 135.776 43.8863 137.977 43.5778C138.699 43.4707 139.428 43.4213 140.158 43.4302C140.767 43.4106 141.374 43.5047 141.947 43.7075C142.059 43.7572 142.16 43.8263 142.247 43.9116C142.202 44.0644 142.127 44.207 142.027 44.3316Z" fill="#7E7E7E"/>
<path d="M85.3811 44.8994L85.9941 68.1588L151.451 78.093L157.299 55.5974L85.3811 44.8994Z" fill="#B7B7B7"/>
<path d="M125.558 50.8758L118.005 49.7524C118.418 70.658 114.854 91.4537 107.499 111.053L115.045 112.324C122.254 92.6347 125.815 71.8183 125.558 50.8758Z" fill="#7E7E7E"/>
<path d="M15.1448 46.7616L23.2738 110.62L90.8988 107.033L91.5628 37.6487L15.1448 46.7616Z" fill="#BDBDBD"/>
<path d="M74.6777 65.8493C75.0137 65.4244 75.1656 64.8848 75.1 64.349C75.0343 63.8132 74.7565 63.3252 74.3277 62.9923C73.8988 62.6594 73.354 62.5089 72.8132 62.5739C72.2723 62.6389 71.7797 62.9142 71.4437 63.339C71.3607 63.4388 71.2575 63.5202 71.1406 63.5779C71.0238 63.6356 70.8961 63.6683 70.7657 63.6738C70.5037 63.6632 70.256 63.5524 70.0747 63.3648C69.7195 62.962 69.2184 62.714 68.68 62.6743C68.1416 62.6347 67.6091 62.8067 67.1978 63.153C66.7864 63.4994 66.5292 63.9923 66.4818 64.525C66.4344 65.0578 66.6007 65.5876 66.9447 65.9999C67.4158 66.544 67.9997 66.9812 68.6566 67.2819C69.3135 67.5825 70.028 67.7396 70.7517 67.7424H70.8457C71.5855 67.725 72.3125 67.5464 72.9748 67.2192C73.637 66.892 74.2185 66.4243 74.6777 65.8493Z" fill="#969696"/>
<path d="M69.3297 87.2552C69.0079 87.4804 68.6661 87.6764 68.3087 87.8406C68.1654 87.389 67.8676 87.0011 67.4667 86.7435C67.0657 86.486 66.5866 86.375 66.112 86.4296C65.6373 86.4843 65.1967 86.7012 64.8661 87.043C64.5355 87.3848 64.3355 87.8301 64.3007 88.3023C64.2695 88.7578 64.3362 89.2146 64.4963 89.6427C64.6565 90.0708 64.9064 90.4604 65.2297 90.7858C65.5971 91.16 66.0362 91.4579 66.5213 91.6621C67.0064 91.8662 67.5277 91.9724 68.0547 91.9746H68.1547C69.4051 91.8664 70.5983 91.4065 71.5937 90.6491C72.048 90.3516 72.3644 89.8874 72.4732 89.3588C72.5821 88.8301 72.4745 88.2803 72.1742 87.8302C71.8738 87.3802 71.4053 87.0667 70.8716 86.9589C70.338 86.851 69.783 86.9576 69.3287 87.2552H69.3297Z" fill="#969696"/>
<path d="M87.5246 70.8548C87.1998 70.4218 86.7146 70.1343 86.1759 70.0555C85.6371 69.9767 85.0889 70.1132 84.6516 70.4348C84.3674 70.627 84.034 70.7354 83.6901 70.7475C83.3462 70.7596 83.0059 70.6749 82.7086 70.5031C82.4812 70.3538 82.226 70.2508 81.9579 70.2003C81.6899 70.1497 81.4144 70.1526 81.1474 70.2087C80.8805 70.2648 80.6276 70.373 80.4033 70.527C80.1791 70.6811 79.9881 70.8778 79.8415 71.1058C79.6949 71.3337 79.5956 71.5884 79.5494 71.8548C79.5032 72.1212 79.5111 72.394 79.5725 72.6574C79.634 72.9208 79.7478 73.1694 79.9073 73.3887C80.0668 73.608 80.2689 73.7936 80.5016 73.9347C81.5011 74.5485 82.6623 74.8541 83.8375 74.8124C85.0127 74.7708 86.1489 74.3839 87.1016 73.7009C87.5385 73.379 87.8286 72.8983 87.9079 72.3646C87.9872 71.8309 87.8493 71.2878 87.5246 70.8548Z" fill="#969696"/>
<path d="M26.4075 100.386C26.8408 100.073 27.1335 99.6051 27.2231 99.0815C27.3127 98.5579 27.1921 98.0203 26.887 97.5836C26.5819 97.1469 26.1166 96.8456 25.5903 96.7442C25.0641 96.6427 24.5187 96.7491 24.0705 97.0406C23.7781 97.1992 23.4387 97.2505 23.1119 97.1857C22.785 97.1208 22.4917 96.9439 22.2835 96.686C22.0704 96.3562 21.765 96.0949 21.4045 95.9341L22.0645 101.115C22.1445 101.135 22.2215 101.159 22.3035 101.175C22.6707 101.247 23.0441 101.284 23.4185 101.285C24.4838 101.292 25.5262 100.979 26.4075 100.386Z" fill="#969696"/>
<path d="M49.6439 101.945C50.0838 102.404 50.6129 102.769 51.1994 103.02C51.7858 103.27 52.4173 103.4 53.0559 103.402C53.1439 103.402 53.2339 103.402 53.3219 103.395C54.0043 103.351 54.6689 103.161 55.2701 102.838C55.8712 102.516 56.3945 102.068 56.8039 101.525C57.102 101.09 57.2188 100.558 57.1298 100.04C57.0408 99.5222 56.7529 99.0584 56.3264 98.7459C55.8999 98.4333 55.3679 98.2964 54.8418 98.3637C54.3157 98.431 53.8363 98.6974 53.5039 99.107C53.4532 99.1712 53.3896 99.2245 53.3172 99.2633C53.2447 99.3022 53.165 99.3258 53.0829 99.3328C52.9172 99.3343 52.7574 99.2713 52.6379 99.1575C52.2648 98.7646 51.7494 98.5346 51.205 98.5182C50.6607 98.5017 50.1321 98.7002 49.7354 99.0698C49.3388 99.4395 49.1067 99.9501 49.0901 100.489C49.0735 101.029 49.2738 101.552 49.6469 101.945H49.6439Z" fill="#969696"/>
<path d="M90.297 85.5256C90.0181 85.9438 89.6777 86.3184 89.287 86.637C89.2595 86.6549 89.2308 86.6708 89.201 86.6846C89.1447 86.5737 89.0979 86.4584 89.061 86.3399C88.8939 85.8263 88.5278 85.3996 88.0431 85.1535C87.5584 84.9075 86.9949 84.8622 86.4765 85.0278C85.9581 85.1933 85.5274 85.556 85.279 86.0362C85.0306 86.5163 84.9849 87.0746 85.152 87.5881C85.3096 88.1888 85.591 88.7506 85.9786 89.2382C86.3662 89.7259 86.8515 90.1287 87.404 90.4213C87.9234 90.6686 88.4928 90.7953 89.069 90.7918C89.761 90.785 90.442 90.6189 91.058 90.3064L91.11 84.8965C90.7887 85.0331 90.5086 85.2499 90.297 85.5256Z" fill="#969696"/>
<path d="M74.632 105.026C74.2395 104.653 73.7137 104.45 73.17 104.461C72.6263 104.472 72.1091 104.696 71.732 105.084C71.416 105.447 71.0517 105.767 70.649 106.034C70.5987 106.061 70.5458 106.083 70.491 106.099C70.4007 105.916 70.3384 105.721 70.306 105.521C70.2576 105.258 70.1574 105.007 70.0112 104.783C69.865 104.558 69.6756 104.364 69.4538 104.213C69.232 104.061 68.9822 103.953 68.7186 103.897C68.455 103.841 68.1828 103.837 67.9175 103.885C67.6522 103.933 67.3991 104.032 67.1725 104.177C66.946 104.321 66.7504 104.509 66.5971 104.729C66.4437 104.949 66.3356 105.196 66.2787 105.457C66.2219 105.718 66.2176 105.988 66.266 106.251C66.391 106.976 66.6547 107.67 67.043 108.297L74.704 107.891C75.0764 107.501 75.2778 106.981 75.2643 106.444C75.2508 105.907 75.0235 105.398 74.632 105.026Z" fill="#969696"/>
<path d="M39.3103 107.981C38.8935 107.634 38.3546 107.465 37.8121 107.512C37.2696 107.558 36.7679 107.816 36.4173 108.229C36.3493 108.309 36.2602 108.369 36.1598 108.402C36.0595 108.434 35.9519 108.439 35.8491 108.415C35.7463 108.391 35.6523 108.338 35.5776 108.264C35.503 108.19 35.4506 108.097 35.4263 107.995C35.3638 107.735 35.2501 107.489 35.0918 107.273C34.9334 107.056 34.7336 106.873 34.5036 106.732C34.2737 106.592 34.0181 106.498 33.7515 106.456C33.4849 106.414 33.2125 106.424 32.9498 106.486C32.6872 106.548 32.4395 106.66 32.2208 106.817C32.002 106.974 31.8167 107.172 31.6752 107.4C31.5337 107.628 31.4389 107.881 31.3962 108.145C31.3535 108.409 31.3638 108.679 31.4263 108.939C31.5309 109.367 31.6969 109.778 31.9193 110.16L40.0273 109.73C40.0597 109.403 40.0113 109.073 39.8864 108.768C39.7615 108.463 39.5638 108.193 39.3103 107.981Z" fill="#969696"/>
<path d="M52.3135 83.8C52.6417 83.8887 52.9804 83.9334 53.3205 83.9328C54.015 83.9325 54.6976 83.7538 55.3014 83.414C55.9052 83.0742 56.4097 82.5849 56.7655 81.9941C57.0197 81.5598 57.1029 81.0478 56.9991 80.5565C56.8953 80.0651 56.6118 79.6292 56.2031 79.3324C55.7945 79.0356 55.2895 78.8989 54.7853 78.9486C54.281 78.9983 53.8131 79.2309 53.4715 79.6017C53.3757 79.1456 53.1248 78.7359 52.7608 78.441C52.3969 78.146 51.9418 77.9836 51.4715 77.981H51.4575C50.9154 77.9812 50.3953 78.1938 50.0107 78.5724C49.6261 78.951 49.4082 79.4648 49.4045 80.0019C49.4077 80.862 49.6932 81.6977 50.2179 82.3828C50.7427 83.068 51.4783 83.5655 52.3135 83.8Z" fill="#969696"/>
<path d="M90.9701 99.5145C90.691 99.1215 90.2803 98.8392 89.811 98.7179C89.3416 98.5966 88.8441 98.6441 88.4067 98.8519C87.9694 99.0597 87.6206 99.4144 87.4224 99.853C87.2242 100.292 87.1894 100.786 87.3241 101.247C87.5177 101.892 87.8729 102.478 88.3565 102.95C88.8401 103.423 89.4365 103.766 90.0901 103.949C90.3647 104.021 90.6463 104.063 90.9301 104.075L90.9701 99.5145Z" fill="#969696"/>
<path d="M57.3097 63.7511C56.9202 63.3754 56.3962 63.168 55.8527 63.1743C55.3091 63.1806 54.7902 63.4001 54.4097 63.7848C54.0911 64.1655 53.7004 64.4808 53.2597 64.713C53.1998 64.7015 53.1432 64.6772 53.0938 64.6418C53.0444 64.6063 53.0034 64.5607 52.9737 64.508C52.9021 63.9814 52.6255 63.5035 52.203 63.1763C51.7805 62.8491 51.2455 62.6986 50.7125 62.7569C50.1794 62.8153 49.6905 63.0779 49.3503 63.4885C49.0101 63.8992 48.8455 64.4254 48.8917 64.9547C48.9637 65.5438 49.1584 66.1117 49.4634 66.6224C49.7684 67.1331 50.1771 67.5756 50.6637 67.9217C51.4162 68.4745 52.3268 68.7757 53.2637 68.7816C53.5296 68.7821 53.7949 68.7562 54.0557 68.7043C55.3461 68.365 56.4988 67.6382 57.3557 66.624C57.7336 66.2367 57.941 65.7167 57.9324 65.1781C57.9238 64.6395 57.6998 64.1263 57.3097 63.7511Z" fill="#969696"/>
<path d="M27.2813 76.9019C27.248 76.9608 27.2013 77.0113 27.1449 77.0493C27.0885 77.0873 27.0239 77.1118 26.9563 77.1208C26.8886 77.1097 26.8246 77.0824 26.7699 77.0413C26.7152 77.0003 26.6714 76.9466 26.6423 76.885C26.5676 76.6248 26.4413 76.3819 26.2708 76.1705C26.1002 75.9592 25.8888 75.7837 25.6489 75.6543C25.4091 75.5249 25.1456 75.4442 24.8739 75.4169C24.6021 75.3896 24.3276 75.4162 24.0664 75.4953C23.8052 75.5743 23.5626 75.7042 23.3526 75.8773C23.1427 76.0503 22.9697 76.2632 22.8438 76.5033C22.7179 76.7434 22.6416 77.0059 22.6194 77.2756C22.5971 77.5453 22.6294 77.8166 22.7143 78.0738C22.9938 78.9514 23.5407 79.7218 24.2797 80.2793C25.0188 80.8368 25.914 81.154 26.8423 81.1874H26.9593C27.8685 81.1808 28.7543 80.9016 29.5001 80.3864C30.2459 79.8713 30.8167 79.1445 31.1373 78.3017C31.2379 78.0492 31.2865 77.7793 31.2803 77.5079C31.274 77.2365 31.213 76.9691 31.1008 76.7214C30.9886 76.4738 30.8276 76.2509 30.6271 76.0658C30.4266 75.8807 30.1908 75.7373 29.9335 75.6439C29.6762 75.5505 29.4027 75.509 29.129 75.5219C28.8553 75.5349 28.5869 75.6019 28.3398 75.7191C28.0927 75.8364 27.8717 76.0014 27.6899 76.2045C27.5081 76.4076 27.3692 76.6447 27.2813 76.9019Z" fill="#969696"/>
<path d="M44.3232 20.1073C41.9772 20.1162 40.1852 21.6478 38.8862 22.9802C37.6519 24.2493 36.5038 25.5979 35.4492 27.0171C35.3991 25.2768 35.2041 23.5435 34.8662 21.835C34.6854 20.6858 34.2903 19.5799 33.7012 18.5738C33.314 17.9272 32.7842 17.3757 32.1514 16.9607C31.5187 16.5457 30.7993 16.2779 30.0472 16.1774C28.9827 16.1402 27.9307 16.4142 27.0225 16.9655C26.1143 17.5167 25.3901 18.3207 24.9402 19.2772C23.882 21.3661 23.5434 23.7408 23.9762 26.0383C24.2754 27.7107 24.7521 29.347 25.3982 30.9202C22.8555 28.854 20.0112 27.182 16.9622 25.9611C15.9347 25.5104 14.8401 25.2284 13.7212 25.1259C12.3001 24.9989 10.8858 25.4321 9.78517 26.3316C8.9101 27.1771 8.34133 28.2851 8.1672 29.4837C7.99306 30.6823 8.22331 31.9043 8.82217 32.96C9.80861 34.6082 11.2194 35.9671 12.9102 36.8978C18.4496 40.3618 24.743 42.4674 31.2682 43.0398V43.0032C31.9211 43.1372 32.5968 43.1165 33.2402 42.9427C33.7217 42.8208 34.1952 42.67 34.6582 42.491C34.7952 42.4415 34.9182 42.3919 35.0202 42.3622C40.2834 40.6813 44.822 37.2935 47.9042 32.745C49.4216 30.7627 50.1952 28.319 50.0922 25.8333C49.8392 23.0713 47.5602 20.0964 44.3232 20.1073ZM27.6972 25.4677C27.4051 23.9736 27.6005 22.4262 28.2552 21.0494C28.5027 20.5306 28.9387 20.1234 29.4762 19.9092C29.5392 19.8933 29.6044 19.888 29.6692 19.8933C29.8479 19.9414 30.0147 20.0253 30.1594 20.1398C30.304 20.2543 30.4234 20.397 30.5102 20.5591C30.8459 21.1828 31.0699 21.8596 31.1722 22.5592C31.7803 25.6439 31.8638 28.8077 31.4192 31.9198C31.2902 32.8401 31.1192 33.7555 30.8952 34.6589L29.2952 30.5596C28.5827 28.9229 28.0471 27.2161 27.6972 25.4677ZM14.9222 33.7475C13.8033 33.1556 12.8535 32.2931 12.1612 31.2402C11.9669 30.9221 11.8716 30.5544 11.8873 30.1829C11.9029 29.8115 12.0288 29.4528 12.2492 29.1519C12.4053 29.0276 12.589 28.9417 12.7852 28.9013C13.0145 28.8492 13.2505 28.8312 13.4852 28.8478C14.202 28.933 14.9014 29.1265 15.5592 29.4214C20.4489 31.3816 24.7053 34.6275 27.8692 38.8087C23.272 37.9384 18.8804 36.2217 14.9222 33.7475ZM46.3442 26.173C46.3476 27.8079 45.7933 29.396 44.7712 30.6795C42.1596 34.5278 38.3167 37.3933 33.8612 38.8147C33.7842 38.8395 33.6982 38.8682 33.6052 38.9019C33.7052 38.5878 33.7902 38.2788 33.8632 38.0034C33.8892 37.9043 33.9112 37.8161 33.9292 37.7567C34.0902 37.2613 34.2342 36.7502 34.3702 36.241C36.1292 32.292 38.575 28.68 41.5962 25.5697C42.3802 24.7643 43.3962 23.8391 44.3362 23.8361C45.2572 23.8341 46.2282 24.9694 46.3442 26.173Z" fill="#969696"/>
<g style="mix-blend-mode:multiply">
<path d="M91.5535 38.6711C84.0968 39.0905 76.6485 39.6383 69.2085 40.3146L33.8785 44.5269C27.6525 45.4422 21.4401 46.4461 15.2415 47.5384L18.0415 69.5248C43.0197 67.9766 68.0245 72.1107 91.1415 81.6107L91.5535 38.6711Z" fill="#D9D9D9"/>
</g>
<path d="M10.5002 41.948L13.1342 64.6744L94.8872 56.4312L93.7742 30.4268L10.5002 41.948Z" fill="#D2D2D2"/>
<path d="M37.2844 109.878L44.2974 109.505C43.4554 81.5979 37.8974 53.0385 34.7024 38.6008L27.7024 39.3537C30.7974 53.4248 36.4424 82.3933 37.2844 109.878Z" fill="#969696"/>
<path d="M63.6747 27.7943C63.4832 27.74 63.3122 27.631 63.183 27.4808C63.0538 27.3306 62.9722 27.146 62.9484 26.9501C62.0999 20.1014 58.9024 13.7492 53.891 8.95684C53.7922 8.86612 53.7126 8.75677 53.657 8.63521C53.6013 8.51364 53.5707 8.3823 53.5669 8.24888C53.5632 8.11545 53.5863 7.98261 53.635 7.85815C53.6837 7.73369 53.7569 7.6201 53.8505 7.52403C53.944 7.42796 54.056 7.35135 54.1798 7.29867C54.3036 7.246 54.4368 7.21832 54.5715 7.21726C54.7062 7.2162 54.8398 7.24178 54.9645 7.29249C55.0891 7.34321 55.2023 7.41806 55.2973 7.51264C60.6434 12.6247 64.0543 19.4011 64.959 26.7071C64.9787 26.8714 64.9572 27.038 64.8963 27.192C64.8355 27.3461 64.7372 27.483 64.6102 27.5904C64.4832 27.6979 64.3314 27.7726 64.1683 27.808C64.0051 27.8434 63.8357 27.8384 63.675 27.7934L63.6747 27.7943Z" fill="#D2D2D2"/>
<path d="M54.5285 19.299C54.2978 19.2345 54.0982 19.09 53.966 18.8919C51.7826 15.6646 48.8805 12.9769 45.4833 11.0357C45.3678 10.9699 45.2665 10.8822 45.1851 10.7777C45.1038 10.6731 45.0441 10.5537 45.0093 10.4263C44.9746 10.2988 44.9655 10.1659 44.9826 10.035C44.9998 9.90407 45.0428 9.77779 45.1092 9.66334C45.1755 9.54889 45.264 9.44852 45.3696 9.36796C45.4751 9.28739 45.5957 9.22821 45.7243 9.19379C45.853 9.15937 45.9872 9.15039 46.1193 9.16736C46.2515 9.18433 46.3789 9.22691 46.4945 9.29268C50.1612 11.39 53.2935 14.2926 55.6504 17.7771C55.7657 17.948 55.8252 18.1499 55.8208 18.3555C55.8165 18.561 55.7485 18.7602 55.6261 18.9263C55.5037 19.0923 55.3328 19.217 55.1365 19.2837C54.9402 19.3504 54.728 19.3557 54.5285 19.299Z" fill="#D2D2D2"/>
<path d="M57.2495 25.7299C57.0438 25.6715 56.8621 25.5501 56.7303 25.383C56.5985 25.216 56.5234 25.012 56.5158 24.8001C56.4835 23.8464 56.1452 22.9276 55.5502 22.1772C55.3959 21.9676 55.3295 21.707 55.3649 21.4501C55.4003 21.1931 55.5348 20.9596 55.7401 20.7987C55.9455 20.6378 56.2057 20.5619 56.4663 20.5869C56.7269 20.6119 56.9676 20.7359 57.1379 20.9329C57.9987 22.0199 58.488 23.35 58.5354 24.7307C58.54 24.8886 58.507 25.0453 58.4391 25.1882C58.3713 25.3311 58.2703 25.4561 58.1446 25.5531C58.0188 25.6502 57.8718 25.7165 57.7153 25.7468C57.5589 25.7771 57.3974 25.7704 57.244 25.7274L57.2495 25.7299Z" fill="#D2D2D2"/>
<path d="M71.7726 27.4507C71.5428 27.3858 71.3435 27.2426 71.2099 27.0462C71.0764 26.8499 71.0172 26.6131 71.0429 26.3777C71.296 23.956 71.007 21.5089 70.1963 19.2105C69.3857 16.9121 68.0734 14.8191 66.353 13.0806C66.1637 12.8912 66.058 12.6351 66.0592 12.3685C66.0605 12.102 66.1686 11.8469 66.3598 11.6593C66.5509 11.4717 66.8094 11.367 67.0785 11.3682C67.3476 11.3695 67.6051 11.4766 67.7945 11.6659C69.7259 13.6176 71.1991 15.9671 72.1093 18.5472C73.0194 21.1273 73.3441 23.8745 73.0601 26.5931C73.0439 26.7386 72.9958 26.8788 72.9193 27.0039C72.8427 27.1291 72.7395 27.2361 72.6168 27.3177C72.4942 27.3992 72.355 27.4533 72.2091 27.476C72.0632 27.4988 71.914 27.4897 71.772 27.4494L71.7726 27.4507Z" fill="#D2D2D2"/>
<path d="M112.655 20.9233C112.494 20.9234 112.335 20.8852 112.191 20.812C112.048 20.7388 111.924 20.6327 111.83 20.5026C111.736 20.3724 111.675 20.2219 111.652 20.0637C111.629 19.9055 111.645 19.7441 111.697 19.5929C113.646 14.0528 117.665 9.46383 122.926 6.77094C123.163 6.66543 123.432 6.65402 123.677 6.73904C123.922 6.82407 124.124 6.99905 124.243 7.22787C124.361 7.45668 124.387 7.72185 124.314 7.96864C124.241 8.21544 124.075 8.42503 123.85 8.55412C119.054 11.0097 115.39 15.1932 113.613 20.2437C113.545 20.4418 113.416 20.6138 113.244 20.7357C113.072 20.8576 112.866 20.9232 112.655 20.9233Z" fill="#D2D2D2"/>
<path d="M117.329 23.842C117.124 23.842 116.925 23.7807 116.756 23.6663C116.587 23.5518 116.458 23.3895 116.384 23.2007C116.31 23.0119 116.296 22.8054 116.343 22.6083C116.39 22.4112 116.496 22.2328 116.647 22.0965C120.558 18.5943 125.407 16.2872 130.612 15.4532C130.745 15.4279 130.882 15.4294 131.015 15.4577C131.148 15.4859 131.273 15.5403 131.384 15.6176C131.495 15.6949 131.59 15.7935 131.662 15.9076C131.733 16.0217 131.781 16.1489 131.803 16.2817C131.824 16.4146 131.818 16.5503 131.785 16.6808C131.752 16.8113 131.694 16.9339 131.612 17.0415C131.531 17.149 131.428 17.2392 131.311 17.3067C131.193 17.3742 131.063 17.4177 130.929 17.4345C126.115 18.2055 121.629 20.3384 118.011 23.5765C117.825 23.7463 117.581 23.841 117.329 23.842Z" fill="#D2D2D2"/>
<path d="M134.46 16.4409C134.203 16.4392 133.957 16.3407 133.77 16.1654C133.584 15.9902 133.471 15.7512 133.456 15.497C133.441 15.2428 133.524 14.9923 133.688 14.7964C133.852 14.6004 134.085 14.4737 134.34 14.4418L139.247 13.8583C139.511 13.8327 139.774 13.9104 139.981 14.0746C140.187 14.2389 140.32 14.4767 140.352 14.7371C140.384 14.9976 140.311 15.26 140.15 15.468C139.989 15.6761 139.752 15.8134 139.489 15.8505L134.582 16.434C134.542 16.4388 134.501 16.4411 134.46 16.4409Z" fill="#D2D2D2"/>
<path d="M126.502 7.90051C126.256 7.90064 126.018 7.81187 125.833 7.65079C125.648 7.4897 125.528 7.26736 125.497 7.02535C125.465 6.78333 125.524 6.53825 125.662 6.33593C125.799 6.13362 126.007 5.98794 126.245 5.92617L129.968 4.95532C130.228 4.88767 130.504 4.92506 130.736 5.05929C130.969 5.19352 131.137 5.41359 131.206 5.67107C131.274 5.92855 131.236 6.20235 131.101 6.43225C130.965 6.66216 130.743 6.82933 130.483 6.89698L126.759 7.86782C126.675 7.88933 126.589 7.90031 126.502 7.90051Z" fill="#D2D2D2"/>
<path d="M117.779 30.4962C117.55 30.4964 117.329 30.42 117.149 30.2796C116.97 30.1392 116.844 29.9429 116.792 29.7226C116.739 29.5023 116.764 29.2709 116.861 29.0661C116.958 28.8612 117.122 28.6949 117.327 28.5941C121.335 26.6255 125.88 25.9997 130.279 26.811C130.543 26.8602 130.776 27.0114 130.928 27.2312C131.079 27.4509 131.136 27.7214 131.087 27.9829C131.037 28.2445 130.884 28.4757 130.663 28.6258C130.441 28.7759 130.168 28.8326 129.904 28.7833C125.94 28.0521 121.844 28.6153 118.231 30.3882C118.091 30.4586 117.936 30.4956 117.779 30.4962Z" fill="#D2D2D2"/>
<path d="M144.615 31.1311C144.478 31.1311 144.342 31.1034 144.215 31.0499C141.392 29.8547 138.366 29.1967 135.297 29.1102C135.028 29.1031 134.774 28.9906 134.589 28.7974C134.404 28.6042 134.304 28.3461 134.311 28.0799C134.318 27.8138 134.432 27.5613 134.627 27.3782C134.822 27.195 135.082 27.096 135.351 27.1031C138.677 27.197 141.955 27.9101 145.014 29.2053C145.229 29.2964 145.405 29.4581 145.513 29.663C145.621 29.8679 145.654 30.1034 145.607 30.3298C145.56 30.5563 145.436 30.7597 145.255 30.9056C145.074 31.0516 144.847 31.1313 144.614 31.1311H144.615Z" fill="#D2D2D2"/>
<path d="M7.93986 101.291C7.74541 101.291 7.55503 101.236 7.39143 101.132C7.22784 101.027 7.09796 100.879 7.0173 100.704C6.93663 100.528 6.9086 100.334 6.93654 100.143C6.96448 99.9525 7.04721 99.7739 7.17487 99.6285C8.25935 98.3981 9.58042 97.3939 11.0609 96.6748C12.5415 95.9557 14.1518 95.5359 15.7979 95.4401C16.0661 95.425 16.3295 95.5161 16.5299 95.6933C16.7304 95.8706 16.8516 96.1194 16.8669 96.3852C16.8821 96.6509 16.7902 96.9118 16.6113 97.1104C16.4324 97.309 16.1811 97.4291 15.9129 97.4442C13.1371 97.6216 10.5452 98.8807 8.70386 100.946C8.60896 101.055 8.49161 101.141 8.35977 101.201C8.22794 101.26 8.08473 101.291 7.93986 101.291Z" fill="#D2D2D2"/>
<path d="M3.97484 112.262C3.80765 112.262 3.64311 112.221 3.49586 112.142C3.34862 112.064 3.22324 111.95 3.13089 111.812C3.03854 111.674 2.98209 111.516 2.96655 111.351C2.95101 111.186 2.97687 111.02 3.04183 110.867C3.83898 109.029 5.02076 107.379 6.5091 106.027C7.99745 104.675 9.75847 103.651 11.6758 103.023C11.9302 102.945 12.2055 102.969 12.4419 103.091C12.6783 103.212 12.857 103.421 12.9391 103.672C13.0213 103.923 13.0004 104.196 12.8809 104.432C12.7615 104.668 12.5531 104.847 12.3008 104.932C10.6591 105.47 9.15127 106.347 7.877 107.504C6.60273 108.662 5.59105 110.075 4.90883 111.649C4.8311 111.831 4.70108 111.986 4.53499 112.095C4.3689 112.204 4.17409 112.262 3.97484 112.262Z" fill="#D2D2D2"/>
<path d="M15.2551 103.987C15.0152 103.987 14.7832 103.902 14.6004 103.748C14.4176 103.594 14.2959 103.381 14.2569 103.147C14.2179 102.912 14.2641 102.672 14.3874 102.468C14.5107 102.264 14.703 102.11 14.9301 102.034L16.7001 101.439C16.9546 101.354 17.2329 101.372 17.4739 101.49C17.7149 101.607 17.8988 101.815 17.9851 102.067C18.0714 102.319 18.0531 102.595 17.9342 102.834C17.8153 103.073 17.6056 103.255 17.3511 103.34L15.5811 103.935C15.4761 103.97 15.3659 103.987 15.2551 103.987Z" fill="#D2D2D2"/>
<path d="M153.661 99.16C153.517 99.16 153.375 99.1296 153.244 99.0708C153.113 99.0121 152.996 98.9263 152.901 98.8192C151.779 97.5565 150.353 96.5952 148.756 96.0246C148.629 95.9816 148.511 95.914 148.411 95.8256C148.31 95.7372 148.228 95.6299 148.17 95.5098C148.111 95.3898 148.078 95.2594 148.071 95.1263C148.064 94.9932 148.084 94.8601 148.129 94.7347C148.175 94.6093 148.245 94.4942 148.336 94.396C148.427 94.2978 148.537 94.2186 148.659 94.1629C148.781 94.1072 148.914 94.0762 149.048 94.0716C149.182 94.0671 149.316 94.0891 149.442 94.1364C151.361 94.8221 153.074 95.9766 154.422 97.4927C154.551 97.6377 154.635 97.8163 154.663 98.0072C154.692 98.1981 154.665 98.3932 154.584 98.5691C154.504 98.745 154.374 98.8942 154.211 98.9988C154.047 99.1034 153.856 99.159 153.661 99.159V99.16Z" fill="#D2D2D2"/>
<path d="M158.235 103.785C158.075 103.785 157.916 103.747 157.773 103.675C157.63 103.602 157.507 103.497 157.413 103.368L155.86 101.234C155.78 101.128 155.722 101.006 155.689 100.877C155.657 100.748 155.651 100.613 155.671 100.482C155.692 100.35 155.738 100.224 155.808 100.111C155.879 99.9971 155.971 99.8986 156.08 99.8207C156.189 99.7428 156.312 99.6872 156.443 99.6571C156.574 99.627 156.71 99.623 156.842 99.6453C156.975 99.6676 157.101 99.7158 157.215 99.787C157.328 99.8583 157.426 99.9512 157.503 100.06L159.057 102.195C159.165 102.345 159.229 102.521 159.242 102.705C159.255 102.888 159.217 103.072 159.133 103.235C159.048 103.399 158.919 103.536 158.761 103.632C158.603 103.728 158.421 103.78 158.235 103.78V103.785Z" fill="#D2D2D2"/>
<path d="M157.046 112.403C156.829 112.402 156.617 112.333 156.443 112.205C156.268 112.077 156.14 111.896 156.077 111.69C154.822 107.672 152.144 104.237 148.537 102.019C148.308 101.879 148.144 101.655 148.082 101.396C148.019 101.137 148.063 100.864 148.204 100.638C148.345 100.411 148.571 100.249 148.832 100.187C149.093 100.125 149.369 100.168 149.598 100.308C153.625 102.785 156.615 106.619 158.016 111.106C158.062 111.256 158.072 111.414 158.045 111.569C158.017 111.723 157.954 111.869 157.86 111.995C157.766 112.121 157.643 112.224 157.502 112.294C157.36 112.365 157.204 112.401 157.046 112.402V112.403Z" fill="#D2D2D2"/>
<path d="M99.343 11.2697L93.7209 20.7132C93.9099 20.416 101.108 24.131 101.353 23.7268L106.976 14.2823C106.786 14.6052 99.588 10.865 99.343 11.2682V11.2697Z" fill="#D2D2D2"/>
<path d="M77.9254 0.408325C77.5414 1.88076 77.5882 3.43081 78.0604 4.87784C78.5327 6.32488 79.4109 7.60917 80.5924 8.58019C80.9774 8.8972 82.8215 8.65726 83.3375 8.65033C83.9905 8.66816 84.6155 8.65956 85.2665 8.67838C85.4025 8.67838 85.9714 8.58801 86.0814 8.66726C84.8964 7.69877 84.0157 6.41496 83.5434 4.96685C83.071 3.51873 83.0266 1.96673 83.4154 0.494426C83.3154 0.872853 78.0294 -0.0245648 77.9264 0.407357L77.9254 0.408325Z" fill="#D2D2D2"/>
<path d="M43.1853 27.0531C43.903 28.1389 44.9167 29.0007 46.1089 29.5389C47.3012 30.077 48.6231 30.2693 49.9212 30.0932C50.1652 30.0664 50.7902 27.8323 50.8992 27.5629C51.1188 26.6822 51.4281 25.8262 51.8223 25.0074C50.524 25.186 49.2011 24.9948 48.0083 24.4565C46.8156 23.9181 45.8021 23.0545 45.0862 21.9668C44.8542 22.8426 44.5263 23.6909 44.1082 24.4961C43.9722 24.8458 42.9671 26.7291 43.1841 27.0531H43.1853Z" fill="#D2D2D2"/>
<path d="M2.47388 65.3118C1.84888 67.087 1.22385 68.8635 0.599854 70.6675C0.626854 70.614 3.09992 70.9645 3.31592 70.9645C4.21166 71.1313 5.12154 71.2127 6.03296 71.2073C6.65696 69.432 7.28198 67.6556 7.90698 65.8516C7.87998 65.9051 5.40692 65.5546 5.19092 65.5546C4.29184 65.4156 3.38453 65.3344 2.47485 65.3118H2.47388Z" fill="#D2D2D2"/>
<path d="M7.83716 85.1709H11.6672C11.8971 84.5324 12.0697 83.8751 12.1831 83.2066C12.3012 82.5419 12.4646 81.886 12.6721 81.2432H8.84229C8.6122 81.8814 8.43911 82.5383 8.3252 83.2066C8.2712 83.3423 7.89018 85.1709 7.83618 85.1709H7.83716Z" fill="#D2D2D2"/>
<path d="M155.812 82.9033C156.681 84.1911 157.578 85.4857 158.447 86.7507C159.109 86.5622 159.754 86.3194 160.375 86.0247C160.538 85.9712 162.25 85.2185 162.275 85.272C161.407 83.9842 160.51 82.6882 159.641 81.4221C158.978 81.6117 158.333 81.8555 157.712 82.1506C157.577 82.2041 155.838 82.9567 155.812 82.9033Z" fill="#D2D2D2"/>
<path d="M166.34 62.0591C166.378 62.5684 166.529 63.0633 166.782 63.5083C167.035 63.9532 167.384 64.3372 167.804 64.6329C168.225 64.9286 168.706 65.1286 169.213 65.2187C169.721 65.3087 170.242 65.2866 170.74 65.1539C170.876 65.1271 171.257 64.6161 171.284 64.5884C171.719 64.1317 172.153 63.6472 172.584 63.1895C173.019 62.7051 173.453 62.2474 173.884 61.763C173.993 61.6283 174.264 61.1973 174.4 61.1685C173.902 61.3012 173.381 61.3234 172.874 61.2334C172.366 61.1433 171.885 60.9432 171.464 60.6476C171.044 60.3519 170.695 59.9679 170.442 59.5229C170.188 59.078 170.038 58.5831 170 58.0737C169.832 58.2741 169.651 58.463 169.457 58.6387C169.022 59.0954 168.588 59.5804 168.157 60.0371C167.722 60.5225 167.288 60.9792 166.857 61.4636C166.775 61.5448 166.342 61.9214 166.342 62.0581L166.34 62.0591Z" fill="#D2D2D2"/>
</svg>
