<svg width="174" height="117" viewBox="0 0 174 117" fill="none" xmlns="http://www.w3.org/2000/svg">
<path d="M89.3606 59.167L150.8 65.0534L140.508 116.426L86.4346 107.32L89.3606 59.167Z" fill="#B3B2B2"/>
<path d="M88.5176 72.9703C90.9556 72.4155 93.4316 72.2531 95.3256 73.5647C96.0832 74.1484 96.7594 74.8289 97.3366 75.5886C98.1466 76.7175 99.2071 77.6474 100.437 78.3069C102.952 79.4462 105.758 78.3465 108.189 77.2261C110.334 76.2355 112.789 75.2617 114.784 76.2077C115.749 76.7663 116.587 77.5176 117.244 78.4139C118.038 79.4934 119.069 80.3804 120.259 81.0084C122.647 82.0694 125.274 81.056 127.386 80.2426C129.398 79.467 131.686 78.8082 133.36 79.8107C134.063 80.3033 134.672 80.9154 135.16 81.6187C135.786 82.5317 136.605 83.2992 137.56 83.8684C139.46 84.8472 141.733 84.2201 143.275 83.6624L143.848 83.4513C144.941 82.9787 146.102 82.6779 147.289 82.5598L147.563 81.1947C146.114 81.2572 144.691 81.591 143.368 82.1784L142.805 82.3844C141.396 82.8936 139.598 83.385 138.191 82.6608C137.414 82.1756 136.749 81.5343 136.238 80.7786C135.651 79.943 134.915 79.2211 134.066 78.6487C131.88 77.342 129.21 78.082 126.888 78.9786C125.014 79.6998 122.688 80.5983 120.817 79.7711C119.817 79.2193 118.953 78.4563 118.286 77.5362C117.509 76.4901 116.517 75.6204 115.374 74.9853C112.963 73.8401 110.217 74.7961 107.61 75.9967C105.357 77.0359 102.991 77.978 101.005 77.0746C99.9685 76.4923 99.0766 75.6885 98.3936 74.7218C97.7396 73.8675 96.9724 73.1044 96.1126 72.4532C93.9126 70.9266 91.2246 71.0118 88.6056 71.5616L88.5176 72.9703Z" fill="white"/>
<path d="M141.342 112.256C140.708 111.88 140.109 111.449 139.552 110.968C139.022 110.506 138.491 109.977 137.979 109.466C136.289 107.782 134.54 106.037 132.071 105.789C130.349 105.753 128.643 106.121 127.093 106.864C125.275 107.557 123.557 108.22 122.019 107.539C121.18 107.081 120.448 106.453 119.869 105.697C119.246 104.923 118.5 104.254 117.662 103.715C115.201 102.299 112.126 103.28 110.027 104.14L109.672 104.286C107.59 105.143 105.438 106.031 103.438 105.484C102.254 105.063 101.166 104.413 100.238 103.572C99.8379 103.254 99.4269 102.938 99.0119 102.646C97.2534 101.454 95.2528 100.658 93.1507 100.314C91.0486 99.9694 88.8959 100.085 86.8439 100.653L86.7559 102.109C88.6694 101.515 90.693 101.355 92.6774 101.639C94.6618 101.924 96.5566 102.646 98.2219 103.752C98.6219 104.031 99.0049 104.333 99.3909 104.635C100.46 105.593 101.715 106.327 103.079 106.79C105.533 107.462 108.015 106.44 110.204 105.537L110.555 105.393C112.54 104.579 115.064 103.786 116.979 104.888C117.689 105.358 118.321 105.935 118.85 106.599C119.552 107.505 120.444 108.248 121.465 108.779C123.525 109.691 125.593 108.897 127.593 108.128C128.944 107.468 130.432 107.129 131.939 107.137C133.919 107.335 135.422 108.834 137.012 110.42C137.541 110.947 138.088 111.493 138.653 111.984C139.395 112.626 140.205 113.189 141.067 113.662L141.342 112.256Z" fill="white"/>
<path d="M142.31 91.8447C140.91 91.4672 139.93 90.2597 138.889 88.9787C137.939 87.5482 136.598 86.4145 135.022 85.7096C132.622 84.8814 130.152 85.9919 127.839 87.3164C125.653 88.5686 123.687 89.5642 121.771 89.0639C120.201 88.6538 119.105 87.3273 117.944 85.9216C116.958 84.523 115.662 83.367 114.154 82.5425C111.318 81.2547 108.104 82.4236 105.622 83.5866L105.149 83.8095C102.859 84.8893 100.49 86.0078 98.1494 85.6046C96.8231 85.2875 95.5638 84.7408 94.4294 83.9898C93.8434 83.654 93.2374 83.3053 92.6124 83.0051C91.1574 82.3153 89.5892 81.8902 87.9824 81.75L87.9004 83.1002C89.3281 83.2311 90.721 83.6118 92.0144 84.2246C92.5944 84.503 93.1774 84.8378 93.7414 85.1628C95.014 85.9978 96.4273 86.6 97.9144 86.941C100.682 87.4175 103.367 86.1484 105.735 85.034L106.204 84.8131C108.417 83.7749 111.256 82.7188 113.58 83.7759C114.894 84.5199 116.022 85.5471 116.88 86.7815C118.129 88.2912 119.419 89.8525 121.418 90.3746C124.037 91.0591 126.627 89.5741 128.518 88.4923C130.548 87.3293 132.687 86.3416 134.564 86.9915C135.891 87.624 137.016 88.6059 137.816 89.8297C138.947 91.2215 140.116 92.661 141.943 93.1533C143.009 93.4006 144.12 93.3771 145.173 93.085L145.473 91.6089C144.459 91.9651 143.367 92.0464 142.31 91.8447Z" fill="white"/>
<path d="M91.0465 93.2499C91.9362 93.7735 92.7864 94.3602 93.5905 95.0054C95.0363 96.2973 96.7687 97.2343 98.6475 97.7406C101.413 98.2745 103.992 97.0669 106.486 95.8989C106.757 95.7721 107.026 95.6463 107.294 95.5235C110.605 94.0038 113.157 93.8245 114.881 94.9925C115.594 95.5389 116.219 96.1892 116.734 96.9213C117.425 97.9405 118.337 98.7943 119.402 99.4207C121.744 100.602 124.402 99.6188 126.924 98.3805C128.98 97.3701 131.333 96.3705 133.224 97.3047C134.314 97.9941 135.199 98.9569 135.79 100.095C136.09 100.553 136.397 101.027 136.736 101.47C138.235 103.401 140.335 104.789 142.71 105.419L142.976 104.09C140.929 103.528 139.123 102.321 137.829 100.652C137.52 100.249 137.239 99.816 136.94 99.3583C136.226 98.0082 135.152 96.8776 133.835 96.0891C131.497 94.936 128.841 95.9247 126.317 97.163C124.117 98.2448 121.828 99.1215 120.023 98.2111C119.141 97.6676 118.387 96.9422 117.812 96.0842C117.213 95.2403 116.485 94.494 115.654 93.8721C113.504 92.4158 110.497 92.5565 106.718 94.2921C106.447 94.4169 106.174 94.5447 105.9 94.6725C103.605 95.7474 101.232 96.8579 98.9095 96.4091C97.2415 95.9377 95.7064 95.09 94.4245 93.9325C93.5677 93.2462 92.6612 92.6231 91.7125 92.0681C90.3927 91.3497 88.9366 90.9112 87.4365 90.7803L87.3545 92.1285C88.6496 92.2482 89.9062 92.6299 91.0465 93.2499Z" fill="white"/>
<g style="mix-blend-mode:multiply">
<path d="M89.1678 62.2617L88.4678 73.8325C89.1678 73.8117 89.7938 73.7938 90.2378 73.8275C97.2772 74.3703 104.224 75.7591 110.925 77.9634C123.421 82.0701 134.797 88.9672 144.174 98.1221L150.149 68.2858L89.1678 62.2617Z" fill="#D9D9D9"/>
</g>
<path d="M147.634 42.0885C147.371 41.1564 146.9 40.2944 146.258 39.5653C145.615 38.8363 144.816 38.2585 143.919 37.8743C142.568 37.3039 141.111 37.0198 139.642 37.0401C136.36 36.9874 133.115 37.7372 130.194 39.2232C127.274 40.7093 124.769 42.8857 122.9 45.5597C119.244 40.7548 113.928 37.4536 107.969 36.2873C106.969 36.103 103.928 35.5423 101.556 37.4334C100.4 38.4535 99.6399 39.841 99.4057 41.3569C99.1715 42.8728 99.4783 44.4222 100.273 45.7381C101.435 47.5802 103.08 49.0741 105.034 50.0593C110.154 53.0404 115.725 55.1836 121.534 56.4063L121.647 57.6565C122.581 57.5739 123.508 57.4643 124.428 57.3276C131.006 56.3539 137.313 54.0524 142.956 50.5655C144.228 49.8417 145.358 48.8979 146.293 47.7788C146.942 46.9958 147.401 46.0753 147.634 45.0885C147.866 44.1018 147.866 43.0753 147.634 42.0885ZM108.156 44.8009C107.172 44.3273 106.316 43.6297 105.656 42.7651C105.561 42.5892 105.514 42.392 105.518 42.1925C105.964 42.159 106.412 42.1924 106.847 42.2916C111.271 43.1574 115.221 45.6008 117.947 49.1587C114.533 48.0654 111.249 46.604 108.156 44.8009ZM141.427 44.045C140.924 44.5829 140.337 45.0387 139.69 45.3953C135.77 47.8186 131.475 49.5899 126.977 50.6388C127.989 48.6774 129.462 46.9859 131.272 45.7071C133.082 44.4283 135.176 43.5996 137.377 43.2912C138.099 43.1841 138.828 43.1347 139.558 43.1435C140.167 43.124 140.774 43.2181 141.347 43.4209C141.459 43.4706 141.56 43.5397 141.647 43.625C141.602 43.7777 141.527 43.9204 141.427 44.045Z" fill="#7E7E7E"/>
<path d="M84.7812 44.6123L85.3943 67.8717L150.851 77.8059L156.699 55.3103L84.7812 44.6123Z" fill="#B7B7B7"/>
<path d="M124.958 50.5892L117.405 49.4658C117.818 70.3714 114.254 91.167 106.899 110.766L114.445 112.037C121.654 92.348 125.215 71.5316 124.958 50.5892Z" fill="#7E7E7E"/>
<path d="M14.5449 46.4753L22.6739 110.333L90.2989 106.746L90.9629 37.3623L14.5449 46.4753Z" fill="#BDBDBD"/>
<path d="M74.0778 65.5627C74.4138 65.1378 74.5658 64.5981 74.5001 64.0623C74.4345 63.5265 74.1567 63.0385 73.7278 62.7056C73.299 62.3728 72.7542 62.2223 72.2133 62.2873C71.6725 62.3523 71.1798 62.6275 70.8438 63.0524C70.7609 63.1522 70.6576 63.2336 70.5408 63.2913C70.424 63.349 70.2962 63.3817 70.1658 63.3872C69.9038 63.3766 69.6561 63.2658 69.4748 63.0781C69.1196 62.6754 68.6186 62.4273 68.0802 62.3877C67.5418 62.3481 67.0093 62.5201 66.5979 62.8664C66.1865 63.2128 65.9293 63.7056 65.8819 64.2384C65.8346 64.7712 66.0009 65.301 66.3448 65.7133C66.816 66.2573 67.3999 66.6946 68.0568 66.9953C68.7137 67.2959 69.4282 67.453 70.1518 67.4558H70.2458C70.9857 67.4384 71.7126 67.2597 72.3749 66.9325C73.0372 66.6054 73.6186 66.1376 74.0778 65.5627Z" fill="#969696"/>
<path d="M68.7298 86.969C68.408 87.1943 68.0663 87.3903 67.7088 87.5545C67.5655 87.1029 67.2678 86.7149 66.8668 86.4574C66.4658 86.1998 65.9868 86.0888 65.5121 86.1435C65.0375 86.1982 64.5969 86.4151 64.2663 86.7569C63.9357 87.0987 63.7357 87.544 63.7008 88.0161C63.6697 88.4716 63.7364 88.9285 63.8965 89.3566C64.0566 89.7847 64.3066 90.1743 64.6298 90.4997C64.9973 90.8739 65.4364 91.1718 65.9215 91.3759C66.4065 91.58 66.9278 91.6863 67.4548 91.6885H67.5548C68.8052 91.5803 69.9984 91.1204 70.9938 90.363C71.4481 90.0654 71.7645 89.6013 71.8734 89.0726C71.9823 88.544 71.8747 87.9942 71.5743 87.5441C71.274 87.094 70.8054 86.7806 70.2718 86.6727C69.7382 86.5649 69.1831 86.6715 68.7288 86.969H68.7298Z" fill="#969696"/>
<path d="M86.9247 70.5682C86.5999 70.1351 86.1148 69.8476 85.576 69.7689C85.0373 69.6901 84.489 69.8265 84.0517 70.1481C83.7675 70.3403 83.4341 70.4488 83.0902 70.4609C82.7463 70.473 82.406 70.3882 82.1087 70.2165C81.8813 70.0672 81.6261 69.9642 81.3581 69.9136C81.09 69.8631 80.8145 69.8659 80.5476 69.922C80.2807 69.9781 80.0277 70.0864 79.8035 70.2404C79.5793 70.3944 79.3883 70.5912 79.2416 70.8191C79.095 71.0471 78.9957 71.3018 78.9496 71.5682C78.9034 71.8346 78.9112 72.1074 78.9727 72.3708C79.0341 72.6341 79.148 72.8828 79.3075 73.1021C79.467 73.3214 79.669 73.507 79.9017 73.6481C80.9012 74.2619 82.0624 74.5674 83.2376 74.5258C84.4129 74.4842 85.5491 74.0973 86.5017 73.4143C86.9387 73.0924 87.2287 72.6117 87.308 72.078C87.3874 71.5443 87.2495 71.0012 86.9247 70.5682Z" fill="#969696"/>
<path d="M25.8077 100.099C26.241 99.7867 26.5337 99.3185 26.6233 98.7949C26.7128 98.2712 26.5922 97.7337 26.2871 97.297C25.9821 96.8602 25.5167 96.559 24.9905 96.4575C24.4642 96.3561 23.9188 96.4625 23.4707 96.754C23.1783 96.9126 22.8388 96.9639 22.512 96.899C22.1852 96.8342 21.8919 96.6573 21.6837 96.3994C21.4705 96.0695 21.1651 95.8083 20.8047 95.6475L21.4647 100.829C21.5447 100.848 21.6217 100.872 21.7037 100.888C22.0708 100.961 22.4443 100.998 22.8187 100.998C23.8839 101.006 24.9264 100.692 25.8077 100.099Z" fill="#969696"/>
<path d="M49.0441 101.659C49.484 102.117 50.0131 102.483 50.5995 102.733C51.1859 102.984 51.8175 103.114 52.4561 103.116C52.5441 103.116 52.6341 103.116 52.7221 103.108C53.4044 103.064 54.0691 102.875 54.6702 102.552C55.2713 102.229 55.7947 101.781 56.2041 101.239C56.5022 100.804 56.619 100.272 56.5299 99.7539C56.4409 99.2359 56.153 98.772 55.7266 98.4595C55.3001 98.147 54.7681 98.01 54.242 98.0773C53.7158 98.1446 53.2364 98.411 52.9041 98.8206C52.8533 98.8849 52.7897 98.9381 52.7173 98.9769C52.6449 99.0158 52.5652 99.0395 52.4831 99.0465C52.3173 99.0479 52.1576 98.985 52.0381 98.8711C51.6649 98.4782 51.1495 98.2482 50.6052 98.2318C50.0608 98.2154 49.5322 98.4138 49.1356 98.7834C48.739 99.1531 48.5068 99.6637 48.4902 100.203C48.4736 100.742 48.6739 101.266 49.0471 101.659H49.0441Z" fill="#969696"/>
<path d="M89.6972 85.2384C89.4182 85.6567 89.0778 86.0313 88.6872 86.3499C88.6597 86.3678 88.6309 86.3837 88.6012 86.3975C88.5449 86.2866 88.4981 86.1713 88.4612 86.0527C88.2941 85.5392 87.9279 85.1125 87.4432 84.8664C86.9585 84.6204 86.395 84.5751 85.8767 84.7406C85.3583 84.9062 84.9275 85.2689 84.6791 85.7491C84.4307 86.2292 84.3851 86.7875 84.5522 87.301C84.7097 87.9017 84.9912 88.4635 85.3788 88.9511C85.7663 89.4388 86.2517 89.8416 86.8042 90.1342C87.3235 90.3815 87.8929 90.5082 88.4692 90.5047C89.1612 90.4979 89.8421 90.3318 90.4582 90.0193L90.5102 84.6094C90.1889 84.746 89.9088 84.9627 89.6972 85.2384Z" fill="#969696"/>
<path d="M74.0321 104.739C73.6396 104.366 73.1138 104.163 72.5702 104.174C72.0265 104.185 71.5093 104.409 71.1321 104.797C70.8161 105.16 70.4518 105.48 70.0491 105.747C69.9989 105.774 69.9459 105.796 69.8911 105.812C69.8009 105.629 69.7385 105.434 69.7062 105.234C69.6578 104.971 69.5576 104.72 69.4114 104.496C69.2651 104.271 69.0757 104.077 68.8539 103.925C68.6321 103.774 68.3823 103.666 68.1187 103.61C67.8551 103.554 67.5829 103.55 67.3176 103.597C67.0524 103.645 66.7992 103.745 66.5727 103.889C66.3461 104.034 66.1506 104.222 65.9972 104.442C65.8439 104.661 65.7357 104.909 65.6789 105.17C65.6221 105.431 65.6178 105.701 65.6662 105.964C65.7912 106.689 66.0549 107.383 66.4432 108.01L74.1041 107.604C74.4765 107.214 74.678 106.694 74.6645 106.157C74.651 105.62 74.4237 105.111 74.0321 104.739Z" fill="#969696"/>
<path d="M38.7105 107.694C38.2936 107.347 37.7547 107.179 37.2122 107.225C36.6698 107.271 36.1681 107.529 35.8175 107.942C35.7495 108.022 35.6603 108.082 35.56 108.115C35.4596 108.148 35.352 108.152 35.2492 108.128C35.1464 108.104 35.0524 108.052 34.9778 107.977C34.9031 107.903 34.8508 107.81 34.8265 107.708C34.7639 107.448 34.6502 107.203 34.4919 106.986C34.3336 106.769 34.1337 106.586 33.9038 106.446C33.6738 106.305 33.4182 106.211 33.1516 106.169C32.885 106.127 32.6126 106.137 32.35 106.199C32.0873 106.261 31.8396 106.374 31.6209 106.53C31.4022 106.687 31.2168 106.885 31.0753 107.113C30.9339 107.341 30.8391 107.594 30.7964 107.858C30.7537 108.122 30.7639 108.392 30.8265 108.652C30.9311 109.08 31.0971 109.491 31.3195 109.873L39.4275 109.443C39.4598 109.116 39.4115 108.786 39.2866 108.481C39.1617 108.177 38.964 107.907 38.7105 107.694Z" fill="#969696"/>
<path d="M51.7137 83.5134C52.0418 83.6021 52.3805 83.6467 52.7207 83.6461C53.4152 83.6459 54.0977 83.4672 54.7015 83.1274C55.3054 82.7875 55.8099 82.2983 56.1657 81.7075C56.4199 81.2732 56.5031 80.7612 56.3992 80.2698C56.2954 79.7785 56.0119 79.3425 55.6033 79.0457C55.1946 78.7489 54.6896 78.6122 54.1854 78.6619C53.6812 78.7117 53.2133 78.9443 52.8717 79.3151C52.7758 78.859 52.525 78.4493 52.161 78.1543C51.797 77.8594 51.3419 77.697 50.8717 77.6943H50.8577C50.3155 77.6946 49.7954 77.9072 49.4109 78.2858C49.0263 78.6643 48.8084 79.1782 48.8047 79.7153C48.8078 80.5753 49.0933 81.4111 49.6181 82.0962C50.1429 82.7814 50.8784 83.2788 51.7137 83.5134Z" fill="#969696"/>
<path d="M90.3702 99.2276C90.0912 98.8346 89.6805 98.5523 89.2111 98.431C88.7418 98.3097 88.2442 98.3572 87.8069 98.565C87.3696 98.7728 87.0208 99.1276 86.8226 99.5661C86.6243 100.005 86.5895 100.499 86.7243 100.96C86.9179 101.605 87.273 102.191 87.7566 102.663C88.2402 103.136 88.8366 103.479 89.4903 103.662C89.7648 103.734 90.0465 103.776 90.3303 103.789L90.3702 99.2276Z" fill="#969696"/>
<path d="M56.7098 63.4645C56.3203 63.0888 55.7964 62.8813 55.2528 62.8876C54.7092 62.894 54.1903 63.1135 53.8098 63.4982C53.4912 63.8789 53.1006 64.1942 52.6598 64.4264C52.6 64.4149 52.5434 64.3906 52.494 64.3551C52.4446 64.3197 52.4036 64.2741 52.3738 64.2213C52.3023 63.6948 52.0257 63.2169 51.6032 62.8897C51.1806 62.5625 50.6457 62.412 50.1126 62.4703C49.5796 62.5287 49.0907 62.7912 48.7505 63.2019C48.4102 63.6126 48.2456 64.1388 48.2918 64.6681C48.3638 65.2572 48.5585 65.8251 48.8635 66.3358C49.1686 66.8465 49.5773 67.2889 50.0638 67.6351C50.8164 68.1879 51.727 68.4891 52.6638 68.495C52.9298 68.4955 53.1951 68.4696 53.4558 68.4177C54.7462 68.0783 55.899 67.3516 56.7558 66.3373C57.1338 65.9501 57.3412 65.4301 57.3326 64.8915C57.3239 64.3529 57.1 63.8397 56.7098 63.4645Z" fill="#969696"/>
<path d="M26.6815 76.6155C26.6481 76.6744 26.6014 76.7249 26.545 76.7629C26.4886 76.8009 26.4241 76.8254 26.3565 76.8344C26.2887 76.8233 26.2248 76.796 26.1701 76.755C26.1153 76.7139 26.0716 76.6602 26.0425 76.5986C25.9678 76.3384 25.8415 76.0955 25.6709 75.8842C25.5003 75.6728 25.289 75.4974 25.0491 75.368C24.8092 75.2385 24.5457 75.1578 24.274 75.1305C24.0023 75.1032 23.7278 75.1298 23.4666 75.2089C23.2054 75.288 22.9627 75.4178 22.7528 75.5909C22.5428 75.764 22.3699 75.9768 22.244 76.2169C22.1181 76.457 22.0418 76.7196 22.0195 76.9892C21.9973 77.2589 22.0296 77.5303 22.1145 77.7874C22.394 78.665 22.9408 79.4355 23.6799 79.9929C24.419 80.5504 25.3141 80.8676 26.2425 80.901H26.3595C27.2686 80.8944 28.1544 80.6152 28.9002 80.1001C29.646 79.5849 30.2168 78.8581 30.5375 78.0153C30.6381 77.7628 30.6867 77.4929 30.6804 77.2215C30.6742 76.9501 30.6131 76.6827 30.501 76.4351C30.3888 76.1874 30.2277 75.9645 30.0273 75.7794C29.8268 75.5943 29.591 75.4509 29.3337 75.3575C29.0764 75.2641 28.8028 75.2226 28.5291 75.2356C28.2554 75.2485 27.9871 75.3155 27.7399 75.4328C27.4928 75.55 27.2718 75.715 27.09 75.9181C26.9083 76.1213 26.7693 76.3584 26.6815 76.6155Z" fill="#969696"/>
<path d="M43.7233 19.821C41.3773 19.8299 39.5853 21.3614 38.2863 22.6938C37.0521 23.9629 35.9039 25.3115 34.8493 26.7307C34.7992 24.9904 34.6042 23.2572 34.2663 21.5486C34.0855 20.3994 33.6904 19.2935 33.1013 18.2874C32.7142 17.6408 32.1844 17.0893 31.5516 16.6743C30.9188 16.2593 30.1994 15.9915 29.4473 15.891C28.3829 15.8538 27.3309 16.1279 26.4227 16.6791C25.5145 17.2304 24.7902 18.0344 24.3403 18.9908C23.2822 21.0797 22.9436 23.4544 23.3763 25.752C23.6756 27.4243 24.1522 29.0606 24.7983 30.6338C22.2557 28.5677 19.4113 26.8956 16.3623 25.6747C15.3348 25.224 14.2402 24.942 13.1213 24.8395C11.7003 24.7125 10.286 25.1457 9.18532 26.0452C8.31025 26.8907 7.74148 27.9988 7.56734 29.1974C7.39321 30.3959 7.62346 31.6179 8.22232 32.6736C9.20875 34.3218 10.6195 35.6808 12.3103 36.6114C17.8497 40.0754 24.1431 42.181 30.6683 42.7534V42.7168C31.3213 42.8508 31.997 42.8301 32.6403 42.6563C33.1218 42.5345 33.5954 42.3836 34.0583 42.2046C34.1953 42.1551 34.3183 42.1055 34.4203 42.0758C39.6836 40.3949 44.2221 37.0071 47.3043 32.4586C48.8217 30.4763 49.5953 28.0326 49.4923 25.5469C49.2393 22.785 46.9603 19.8101 43.7233 19.821ZM27.0973 25.1813C26.8052 23.6872 27.0007 22.1398 27.6553 20.763C27.9028 20.2442 28.3389 19.837 28.8763 19.6228C28.9393 19.607 29.0045 19.6016 29.0693 19.607C29.248 19.655 29.4149 19.7389 29.5595 19.8534C29.7042 19.9679 29.8236 20.1106 29.9103 20.2727C30.246 20.8965 30.47 21.5732 30.5723 22.2728C31.1804 25.3576 31.2639 28.5213 30.8193 31.6334C30.6903 32.5537 30.5193 33.4691 30.2953 34.3726L28.6953 30.2733C27.9829 28.6365 27.4472 26.9297 27.0973 25.1813ZM14.3223 33.4611C13.2034 32.8692 12.2537 32.0067 11.5613 30.9538C11.3671 30.6357 11.2718 30.268 11.2874 29.8965C11.3031 29.5251 11.429 29.1665 11.6493 28.8655C11.8055 28.7412 11.9892 28.6553 12.1853 28.6149C12.4147 28.5628 12.6506 28.5448 12.8853 28.5614C13.6021 28.6467 14.3016 28.8401 14.9593 29.135C19.849 31.0952 24.1055 34.3411 27.2693 38.5224C22.6722 37.6521 18.2806 35.9353 14.3223 33.4611ZM45.7443 25.8867C45.7478 27.5215 45.1934 29.1096 44.1713 30.3931C41.5598 34.2414 37.7168 37.1069 33.2613 38.5283C33.1843 38.5531 33.0983 38.5818 33.0053 38.6155C33.1053 38.3014 33.1903 37.9924 33.2633 37.717C33.2893 37.6179 33.3113 37.5297 33.3293 37.4703C33.4903 36.975 33.6343 36.4638 33.7703 35.9546C35.5293 32.0056 37.9752 28.3936 40.9963 25.2834C41.7803 24.478 42.7963 23.5527 43.7363 23.5497C44.6573 23.5477 45.6283 24.683 45.7443 25.8867Z" fill="#969696"/>
<g style="mix-blend-mode:multiply">
<path d="M90.9536 38.3848C83.4969 38.8041 76.0486 39.352 68.6086 40.0282L33.2786 44.2405C27.0526 45.1558 20.8403 46.1597 14.6416 47.2521L17.4416 69.2385C42.4199 67.6902 67.4246 71.8244 90.5416 81.3243L90.9536 38.3848Z" fill="#D9D9D9"/>
</g>
<path d="M9.90039 41.6618L12.5344 64.3883L94.2874 56.1451L93.1744 30.1406L9.90039 41.6618Z" fill="#D2D2D2"/>
<path d="M36.6845 109.591L43.6975 109.219C42.8555 81.3115 37.2975 52.7521 34.1025 38.3145L27.1025 39.0673C30.1975 53.1385 35.8425 82.107 36.6845 109.591Z" fill="#969696"/>
<path d="M63.0748 27.5082C62.8834 27.4539 62.7123 27.3448 62.5831 27.1947C62.4539 27.0445 62.3724 26.8599 62.3486 26.664C61.5001 19.8152 58.3025 13.463 53.2912 8.67071C53.1923 8.57999 53.1128 8.47064 53.0571 8.34908C53.0015 8.22751 52.9709 8.09617 52.9671 7.96274C52.9633 7.82931 52.9864 7.69648 53.0351 7.57202C53.0838 7.44756 53.1571 7.33397 53.2506 7.2379C53.3442 7.14183 53.4561 7.06522 53.5799 7.01254C53.7037 6.95986 53.8369 6.93219 53.9716 6.93113C54.1064 6.93006 54.24 6.95564 54.3646 7.00636C54.4892 7.05708 54.6024 7.13192 54.6975 7.22651C60.0435 12.3386 63.4544 19.1149 64.3591 26.421C64.3788 26.5853 64.3573 26.7518 64.2965 26.9059C64.2356 27.06 64.1374 27.1968 64.0104 27.3043C63.8834 27.4117 63.7316 27.4865 63.5684 27.5219C63.4053 27.5573 63.2358 27.5523 63.0751 27.5073L63.0748 27.5082Z" fill="#D2D2D2"/>
<path d="M53.9287 19.0119C53.698 18.9473 53.4983 18.8029 53.3662 18.6047C51.1827 15.3775 48.2806 12.6897 44.8835 10.7486C44.7679 10.6828 44.6666 10.5951 44.5853 10.4906C44.504 10.386 44.4442 10.2666 44.4095 10.1392C44.3747 10.0117 44.3657 9.87877 44.3828 9.74786C44.3999 9.61696 44.4429 9.49068 44.5093 9.37623C44.5757 9.26178 44.6642 9.16141 44.7697 9.08085C44.8753 9.00028 44.9958 8.9411 45.1245 8.90668C45.2531 8.87226 45.3873 8.86328 45.5195 8.88025C45.6516 8.89722 45.7791 8.9398 45.8946 9.00557C49.5613 11.1029 52.6936 14.0055 55.0506 17.49C55.1658 17.6609 55.2253 17.8628 55.221 18.0684C55.2166 18.2739 55.1486 18.4731 55.0263 18.6391C54.9039 18.8052 54.733 18.9299 54.5367 18.9966C54.3404 19.0633 54.1281 19.0686 53.9287 19.0119Z" fill="#D2D2D2"/>
<path d="M56.6497 25.4431C56.444 25.3846 56.2622 25.2632 56.1304 25.0962C55.9987 24.9292 55.9236 24.7251 55.916 24.5133C55.8836 23.5595 55.5454 22.6408 54.9504 21.8903C54.7961 21.6808 54.7297 21.4202 54.7651 21.1632C54.8005 20.9062 54.9349 20.6728 55.1403 20.5119C55.3456 20.3509 55.6059 20.275 55.8665 20.3C56.1271 20.325 56.3678 20.449 56.5381 20.646C57.3988 21.7331 57.8882 23.0631 57.9355 24.4439C57.9401 24.6017 57.9072 24.7584 57.8393 24.9013C57.7714 25.0442 57.6705 25.1692 57.5447 25.2663C57.419 25.3633 57.2719 25.4297 57.1155 25.4599C56.959 25.4902 56.7976 25.4835 56.6442 25.4405L56.6497 25.4431Z" fill="#D2D2D2"/>
<path d="M71.1728 27.1643C70.9429 27.0995 70.7436 26.9562 70.6101 26.7598C70.4765 26.5635 70.4174 26.3267 70.4431 26.0913C70.6962 23.6697 70.4071 21.2225 69.5965 18.9241C68.7859 16.6258 67.4736 14.5328 65.7532 12.7942C65.5638 12.6048 65.4581 12.3487 65.4594 12.0822C65.4607 11.8156 65.5687 11.5605 65.7599 11.3729C65.951 11.1853 66.2096 11.0806 66.4787 11.0819C66.7477 11.0831 67.0053 11.1902 67.1946 11.3795C69.126 13.3312 70.5993 15.6808 71.5094 18.2609C72.4196 20.841 72.7442 23.5881 72.4603 26.3067C72.4441 26.4522 72.396 26.5924 72.3194 26.7175C72.2429 26.8427 72.1396 26.9498 72.017 27.0313C71.8943 27.1129 71.7552 27.1669 71.6092 27.1896C71.4633 27.2124 71.3141 27.2033 71.1721 27.1631L71.1728 27.1643Z" fill="#D2D2D2"/>
<path d="M112.055 20.6372C111.894 20.6372 111.735 20.5991 111.591 20.5259C111.448 20.4527 111.324 20.3466 111.23 20.2165C111.137 20.0863 111.076 19.9358 111.052 19.7776C111.029 19.6193 111.045 19.4579 111.097 19.3068C113.046 13.7667 117.065 9.1777 122.326 6.4848C122.563 6.37929 122.832 6.36788 123.077 6.45291C123.322 6.53793 123.524 6.71292 123.643 6.94173C123.762 7.17055 123.787 7.43571 123.714 7.68251C123.641 7.92931 123.475 8.13889 123.25 8.26799C118.454 10.7236 114.79 14.9071 113.013 19.9576C112.945 20.1557 112.816 20.3277 112.644 20.4496C112.472 20.5714 112.267 20.637 112.055 20.6372Z" fill="#D2D2D2"/>
<path d="M116.729 23.5551C116.524 23.5551 116.325 23.4939 116.156 23.3794C115.988 23.265 115.858 23.1027 115.784 22.9138C115.71 22.725 115.696 22.5185 115.743 22.3214C115.79 22.1244 115.896 21.9459 116.047 21.8096C119.958 18.3074 124.808 16.0003 130.012 15.1663C130.145 15.141 130.282 15.1426 130.415 15.1708C130.548 15.199 130.673 15.2534 130.784 15.3307C130.896 15.408 130.99 15.5066 131.062 15.6207C131.134 15.7348 131.182 15.8621 131.203 15.9949C131.224 16.1277 131.218 16.2634 131.185 16.3939C131.153 16.5244 131.094 16.6471 131.012 16.7546C130.931 16.8621 130.828 16.9524 130.711 17.0199C130.593 17.0874 130.463 17.1308 130.329 17.1476C125.515 17.9186 121.029 20.0516 117.411 23.2896C117.225 23.4594 116.982 23.5541 116.729 23.5551Z" fill="#D2D2D2"/>
<path d="M133.861 16.1548C133.604 16.1531 133.357 16.0546 133.17 15.8793C132.984 15.704 132.872 15.4651 132.856 15.2108C132.841 14.9566 132.924 14.7062 133.088 14.5102C133.252 14.3143 133.486 14.1876 133.741 14.1557L138.648 13.5722C138.911 13.5466 139.174 13.6242 139.381 13.7885C139.587 13.9527 139.721 14.1905 139.752 14.451C139.784 14.7114 139.711 14.9738 139.55 15.1819C139.389 15.39 139.152 15.5273 138.89 15.5644L133.983 16.1479C133.942 16.1527 133.901 16.155 133.861 16.1548Z" fill="#D2D2D2"/>
<path d="M125.902 7.61388C125.656 7.61402 125.418 7.52525 125.233 7.36417C125.048 7.20308 124.928 6.98074 124.897 6.73872C124.865 6.49671 124.924 6.25162 125.062 6.04931C125.2 5.847 125.407 5.70132 125.645 5.63954L129.368 4.6687C129.628 4.60105 129.905 4.63844 130.137 4.77267C130.369 4.9069 130.537 5.12696 130.606 5.38445C130.674 5.64193 130.636 5.91573 130.501 6.14563C130.365 6.37554 130.143 6.5427 129.883 6.61036L126.159 7.5812C126.075 7.60271 125.989 7.61368 125.902 7.61388Z" fill="#D2D2D2"/>
<path d="M117.179 30.2095C116.95 30.2097 116.729 30.1334 116.549 29.993C116.37 29.8526 116.244 29.6563 116.192 29.436C116.14 29.2157 116.164 28.9843 116.261 28.7795C116.358 28.5746 116.522 28.4083 116.727 28.3075C120.735 26.3389 125.281 25.7131 129.679 26.5243C129.943 26.5736 130.176 26.7248 130.328 26.9445C130.479 27.1643 130.537 27.4347 130.487 27.6963C130.437 27.9578 130.285 28.1891 130.063 28.3392C129.841 28.4893 129.568 28.546 129.304 28.4967C125.34 27.7655 121.244 28.3287 117.631 30.1016C117.491 30.172 117.336 30.209 117.179 30.2095Z" fill="#D2D2D2"/>
<path d="M144.015 30.8447C143.878 30.8447 143.742 30.8171 143.615 30.7635C140.792 29.5683 137.766 28.9103 134.697 28.8238C134.429 28.8167 134.174 28.7042 133.989 28.511C133.804 28.3178 133.704 28.0597 133.711 27.7936C133.718 27.5274 133.832 27.275 134.027 27.0918C134.222 26.9086 134.483 26.8097 134.751 26.8168C138.077 26.9106 141.355 27.6237 144.414 28.9189C144.629 29.01 144.805 29.1717 144.913 29.3766C145.021 29.5815 145.054 29.817 145.007 30.0435C144.96 30.2699 144.836 30.4733 144.655 30.6193C144.474 30.7653 144.248 30.8449 144.014 30.8447H144.015Z" fill="#D2D2D2"/>
<path d="M7.34001 101.004C7.14556 101.004 6.95517 100.949 6.79158 100.844C6.62799 100.74 6.4981 100.592 6.41744 100.417C6.33678 100.241 6.30874 100.047 6.33668 99.856C6.36462 99.6654 6.44736 99.4867 6.57501 99.3414C7.6595 98.1109 8.98057 97.1068 10.4611 96.3877C11.9416 95.6686 13.5519 95.2488 15.198 95.153C15.4663 95.1379 15.7296 95.229 15.9301 95.4062C16.1306 95.5834 16.2518 95.8323 16.267 96.0981C16.2823 96.3638 16.1903 96.6247 16.0114 96.8233C15.8325 97.0219 15.5813 97.142 15.313 97.1571C12.5372 97.3345 9.9453 98.5936 8.10401 100.659C8.00911 100.767 7.89175 100.854 7.75992 100.914C7.62809 100.973 7.48487 101.004 7.34001 101.004Z" fill="#D2D2D2"/>
<path d="M3.37498 111.975C3.2078 111.975 3.04325 111.934 2.89601 111.855C2.74877 111.777 2.62339 111.664 2.53104 111.525C2.43869 111.387 2.38223 111.229 2.36669 111.064C2.35116 110.899 2.37702 110.733 2.44198 110.58C3.23913 108.742 4.42091 107.093 5.90925 105.74C7.39759 104.388 9.15862 103.364 11.076 102.736C11.3304 102.658 11.6056 102.683 11.842 102.804C12.0785 102.926 12.2571 103.134 12.3393 103.385C12.4215 103.636 12.4005 103.909 12.2811 104.145C12.1616 104.381 11.9532 104.561 11.701 104.645C10.0593 105.183 8.55142 106.06 7.27715 107.218C6.00288 108.375 4.9912 109.788 4.30898 111.362C4.23124 111.544 4.10123 111.699 3.93514 111.808C3.76905 111.917 3.57424 111.975 3.37498 111.975Z" fill="#D2D2D2"/>
<path d="M14.6552 103.701C14.4154 103.7 14.1834 103.616 14.0006 103.462C13.8178 103.308 13.696 103.095 13.657 102.86C13.618 102.626 13.6643 102.385 13.7876 102.182C13.9108 101.978 14.1031 101.824 14.3302 101.747L16.1002 101.153C16.3547 101.067 16.6331 101.085 16.874 101.203C17.115 101.321 17.2989 101.529 17.3852 101.781C17.4716 102.033 17.4533 102.309 17.3344 102.547C17.2155 102.786 17.0057 102.968 16.7512 103.054L14.9812 103.648C14.8762 103.683 14.7661 103.701 14.6552 103.701Z" fill="#D2D2D2"/>
<path d="M153.061 98.8731C152.917 98.8731 152.775 98.8427 152.644 98.784C152.513 98.7252 152.396 98.6394 152.301 98.5323C151.179 97.2697 149.754 96.3083 148.156 95.7377C148.029 95.6948 147.912 95.6271 147.811 95.5387C147.71 95.4504 147.628 95.343 147.57 95.223C147.512 95.1029 147.478 94.9725 147.471 94.8394C147.464 94.7064 147.484 94.5732 147.53 94.4478C147.575 94.3225 147.645 94.2073 147.736 94.1092C147.827 94.011 147.937 93.9317 148.059 93.876C148.182 93.8203 148.314 93.7893 148.448 93.7848C148.583 93.7802 148.717 93.8022 148.842 93.8495C150.761 94.5353 152.474 95.6897 153.822 97.2058C153.951 97.3508 154.035 97.5294 154.064 97.7204C154.092 97.9113 154.065 98.1064 153.985 98.2822C153.904 98.4581 153.774 98.6073 153.611 98.7119C153.447 98.8166 153.256 98.8722 153.061 98.8721V98.8731Z" fill="#D2D2D2"/>
<path d="M157.635 103.499C157.475 103.499 157.316 103.461 157.174 103.389C157.031 103.316 156.907 103.211 156.813 103.082L155.26 100.948C155.18 100.841 155.122 100.72 155.09 100.591C155.057 100.461 155.051 100.327 155.071 100.196C155.092 100.064 155.138 99.9378 155.209 99.8243C155.279 99.7107 155.371 99.6122 155.48 99.5343C155.589 99.4565 155.712 99.4009 155.843 99.3707C155.974 99.3406 156.11 99.3366 156.242 99.3589C156.375 99.3812 156.501 99.4294 156.615 99.5007C156.728 99.5719 156.826 99.6649 156.903 99.774L158.457 101.909C158.565 102.059 158.629 102.235 158.642 102.418C158.655 102.602 158.618 102.785 158.533 102.949C158.448 103.113 158.319 103.25 158.161 103.346C158.003 103.442 157.821 103.493 157.635 103.494V103.499Z" fill="#D2D2D2"/>
<path d="M156.446 112.116C156.229 112.116 156.017 112.047 155.843 111.919C155.668 111.791 155.54 111.61 155.477 111.404C154.222 107.386 151.545 103.951 147.937 101.732C147.708 101.593 147.544 101.369 147.482 101.11C147.419 100.851 147.463 100.578 147.604 100.351C147.745 100.125 147.971 99.9624 148.232 99.9005C148.494 99.8387 148.769 99.8822 148.998 100.022C153.025 102.499 156.015 106.333 157.416 110.82C157.462 110.97 157.472 111.128 157.445 111.283C157.418 111.437 157.354 111.583 157.26 111.709C157.166 111.835 157.043 111.938 156.902 112.008C156.76 112.079 156.604 112.115 156.446 112.115V112.116Z" fill="#D2D2D2"/>
<path d="M98.7432 10.9831L93.1211 20.4266C93.3101 20.1294 100.508 23.8443 100.753 23.4402L106.376 13.9956C106.186 14.3186 98.9882 10.5784 98.7432 10.9816V10.9831Z" fill="#D2D2D2"/>
<path d="M77.3256 0.121459C76.9416 1.59389 76.9883 3.14394 77.4606 4.59098C77.9329 6.03801 78.8111 7.32231 79.9926 8.29333C80.3776 8.61033 82.2217 8.3704 82.7377 8.36346C83.3907 8.3813 84.0156 8.3727 84.6666 8.39152C84.8026 8.39152 85.3716 8.30114 85.4816 8.38039C84.2966 7.41191 83.4159 6.1281 82.9435 4.67998C82.4711 3.23186 82.4268 1.67986 82.8156 0.20756C82.7156 0.585987 77.4296 -0.31143 77.3266 0.120492L77.3256 0.121459Z" fill="#D2D2D2"/>
<path d="M42.5855 26.7659C43.3032 27.8518 44.3168 28.7136 45.5091 29.2517C46.7014 29.7899 48.0232 29.9822 49.3213 29.8061C49.5653 29.7793 50.1904 27.5452 50.2994 27.2758C50.5189 26.3951 50.8283 25.5391 51.2225 24.7203C49.9242 24.8989 48.6013 24.7077 47.4085 24.1694C46.2157 23.631 45.2022 22.7674 44.4864 21.6797C44.2544 22.5555 43.9264 23.4038 43.5083 24.209C43.3723 24.5587 42.3673 26.442 42.5843 26.7659H42.5855Z" fill="#D2D2D2"/>
<path d="M1.87402 65.0254C1.24902 66.8006 0.624 68.5771 0 70.3811C0.027 70.3276 2.50006 70.6781 2.71606 70.6781C3.61181 70.8449 4.52169 70.9263 5.43311 70.9209C6.05711 69.1457 6.68213 67.3692 7.30713 65.5652C7.28013 65.6187 4.80706 65.2682 4.59106 65.2682C3.69198 65.1292 2.78468 65.048 1.875 65.0254H1.87402Z" fill="#D2D2D2"/>
<path d="M7.2373 84.8838H11.0674C11.2973 84.2453 11.4698 83.588 11.5833 82.9195C11.7013 82.2548 11.8647 81.5989 12.0723 80.9561H8.24243C8.01235 81.5943 7.83926 82.2512 7.72534 82.9195C7.67134 83.0552 7.29033 84.8838 7.23633 84.8838H7.2373Z" fill="#D2D2D2"/>
<path d="M155.212 82.6169C156.081 83.9047 156.978 85.1993 157.847 86.4643C158.509 86.2758 159.154 86.033 159.775 85.7383C159.938 85.6848 161.65 84.9321 161.675 84.9856C160.807 83.6978 159.91 82.4018 159.041 81.1357C158.379 81.3253 157.733 81.5692 157.112 81.8642C156.977 81.9177 155.238 82.6704 155.212 82.6169Z" fill="#D2D2D2"/>
<path d="M165.74 61.7724C165.778 62.2818 165.929 62.7767 166.182 63.2216C166.435 63.6666 166.784 64.0506 167.205 64.3463C167.625 64.6419 168.106 64.842 168.614 64.9321C169.121 65.0221 169.642 64.9999 170.14 64.8672C170.276 64.8405 170.657 64.3295 170.684 64.3018C171.119 63.8451 171.553 63.3605 171.984 62.9029C172.419 62.4184 172.853 61.9608 173.284 61.4764C173.393 61.3417 173.664 60.9106 173.8 60.8819C173.302 61.0146 172.781 61.0368 172.274 60.9467C171.766 60.8567 171.285 60.6566 170.865 60.361C170.444 60.0653 170.095 59.6812 169.842 59.2363C169.589 58.7914 169.438 58.2965 169.4 57.7871C169.232 57.9874 169.051 58.1764 168.857 58.3521C168.422 58.8088 167.988 59.2938 167.557 59.7505C167.122 60.2359 166.688 60.6926 166.257 61.177C166.175 61.2582 165.742 61.6348 165.742 61.7715L165.74 61.7724Z" fill="#D2D2D2"/>
</svg>
