<svg width="40" height="40" viewBox="0 0 40 40" fill="none" xmlns="http://www.w3.org/2000/svg">
<path d="M0 12C0 5.37258 5.37258 0 12 0H28C34.6274 0 40 5.37258 40 12V28C40 34.6274 34.6274 40 28 40H12C5.37258 40 0 34.6274 0 28V12Z" fill="#E2F5FF"/>
<path fill-rule="evenodd" clip-rule="evenodd" d="M27.3725 14.0621C26.283 12.9564 24.9577 12.1111 23.4957 11.5895C22.0337 11.0679 20.4727 10.8835 18.9293 11.0499C18.722 11.0654 18.5168 10.9996 18.3572 10.8664C18.1976 10.7332 18.0962 10.5431 18.0743 10.3363C18.0525 10.1296 18.112 9.92248 18.2402 9.75887C18.3685 9.59526 18.5554 9.48801 18.7614 9.45984C20.5439 9.26785 22.3468 9.48105 24.0354 10.0835C25.724 10.686 27.2546 11.6622 28.513 12.9392C33.1473 17.6374 33.0721 25.2167 28.3563 29.867C23.642 34.5173 16.0627 34.4869 11.4284 29.787C9.27923 27.6116 8.05188 24.691 8.00191 21.6334C7.98131 20.4774 8.12731 19.3245 8.43543 18.2101C8.49185 18.0056 8.6272 17.8319 8.8117 17.7272C8.9962 17.6225 9.21474 17.5954 9.41923 17.6518C9.62372 17.7082 9.79743 17.8436 9.90213 18.0281C10.0068 18.2126 10.0339 18.4311 9.97752 18.6356C9.71023 19.6021 9.58362 20.602 9.60159 21.6046C9.64387 24.252 10.7063 26.7808 12.5674 28.664C16.5762 32.7288 23.1413 32.7624 27.2333 28.728C31.3253 24.6936 31.3813 18.1269 27.3725 14.0621Z" fill="url(#paint0_linear_3514_4091)"/>
<path fill-rule="evenodd" clip-rule="evenodd" d="M17.9136 10.8467C17.8352 10.7768 17.7714 10.6921 17.7258 10.5974C17.6801 10.5028 17.6536 10.4002 17.6477 10.2953C17.6417 10.1904 17.6565 10.0854 17.6911 9.98623C17.7258 9.88706 17.7796 9.7957 17.8496 9.71734L20.2971 6.96589C20.365 6.88131 20.4494 6.81142 20.5451 6.76047C20.6409 6.70953 20.746 6.67859 20.8541 6.66954C20.9622 6.66049 21.071 6.67351 21.1739 6.70783C21.2768 6.74214 21.3716 6.79702 21.4526 6.86913C21.5336 6.94125 21.5991 7.02908 21.6451 7.1273C21.6911 7.22553 21.7167 7.33208 21.7202 7.44048C21.7238 7.54889 21.7052 7.65688 21.6657 7.75789C21.6262 7.85891 21.5666 7.95083 21.4905 8.02808L19.0429 10.7795C18.9732 10.8581 18.8887 10.9222 18.7942 10.9681C18.6997 11.014 18.5971 11.0409 18.4922 11.0471C18.3873 11.0533 18.2822 11.0388 18.1829 11.0045C18.0837 10.9701 17.9921 10.9165 17.9136 10.8467Z" fill="url(#paint1_linear_3514_4091)"/>
<path fill-rule="evenodd" clip-rule="evenodd" d="M18.0143 9.60859C17.9302 9.67161 17.8594 9.75056 17.8059 9.84095C17.7524 9.93133 17.7172 10.0314 17.7024 10.1353C17.6875 10.2393 17.6933 10.3452 17.7193 10.447C17.7454 10.5487 17.7913 10.6443 17.8543 10.7284L20.2538 13.9277C20.3811 14.0974 20.5706 14.2096 20.7806 14.2396C20.9906 14.2696 21.2039 14.215 21.3736 14.0877C21.5433 13.9604 21.6555 13.7709 21.6855 13.5609C21.7155 13.3509 21.6608 13.1376 21.5336 12.9679L19.134 9.76856C19.0068 9.59885 18.8173 9.48666 18.6073 9.45666C18.3973 9.42666 18.184 9.48131 18.0143 9.60859Z" fill="url(#paint2_linear_3514_4091)"/>
<path d="M23.5876 17.2293L22.2908 16.5452C21.1522 15.9451 20.5828 15.6448 19.9707 15.6448C19.3586 15.6448 18.7893 15.9445 17.6507 16.5452L17.4426 16.6553L23.2284 19.9775L25.8324 18.6679C25.4135 18.191 24.7379 17.8346 23.5876 17.228M26.2915 19.5306L23.6991 20.8337V22.8117C23.6991 22.9413 23.6479 23.0656 23.5567 23.1573C23.4655 23.2489 23.3418 23.3004 23.2128 23.3004C23.0838 23.3004 22.9601 23.2489 22.8689 23.1573C22.7777 23.0656 22.7265 22.9413 22.7265 22.8117V21.3223L20.4571 22.4625V28.6131C20.9226 28.4965 21.4524 28.2176 22.2908 27.7752L23.5876 27.0911C24.9823 26.3555 25.68 25.988 26.0678 25.3267C26.4549 24.666 26.4549 23.8431 26.4549 22.1993V22.1231C26.4549 20.8897 26.4549 20.1183 26.2915 19.5306ZM19.4844 28.6131V22.4625L13.65 19.5306C13.4866 20.1183 13.4866 20.8897 13.4866 22.1218V22.198C13.4866 23.8431 13.4866 24.666 13.8737 25.3267C14.2614 25.988 14.9591 26.3561 16.3539 27.0917L17.6507 27.7752C18.4891 28.2176 19.0189 28.4965 19.4844 28.6131ZM14.1091 18.6686L19.9707 21.6136L22.1825 20.5027L16.4207 17.1941L16.3539 17.2293C15.2042 17.8353 14.5279 18.191 14.1091 18.6686Z" fill="url(#paint3_linear_3514_4091)"/>
<defs>
<linearGradient id="paint0_linear_3514_4091" x1="5.55252" y1="19.6602" x2="34.2823" y2="19.6602" gradientUnits="userSpaceOnUse">
<stop stop-color="#A5CF10"/>
<stop offset="1" stop-color="#24C866"/>
</linearGradient>
<linearGradient id="paint1_linear_3514_4091" x1="5.55252" y1="19.6602" x2="34.2823" y2="19.6602" gradientUnits="userSpaceOnUse">
<stop stop-color="#A5CF10"/>
<stop offset="1" stop-color="#24C866"/>
</linearGradient>
<linearGradient id="paint2_linear_3514_4091" x1="5.55252" y1="19.6602" x2="34.2823" y2="19.6602" gradientUnits="userSpaceOnUse">
<stop stop-color="#A5CF10"/>
<stop offset="1" stop-color="#24C866"/>
</linearGradient>
<linearGradient id="paint3_linear_3514_4091" x1="13.4866" y1="22.2388" x2="23.4216" y2="22.2388" gradientUnits="userSpaceOnUse">
<stop stop-color="#004692"/>
<stop offset="1" stop-color="#0094D5"/>
</linearGradient>
</defs>
</svg>
