<svg width="25" height="24" viewBox="0 0 25 24" fill="none" xmlns="http://www.w3.org/2000/svg">
<path d="M22.5 3.25H2.5C2.09 3.25 1.75 2.91 1.75 2.5C1.75 2.09 2.09 1.75 2.5 1.75H22.5C22.91 1.75 23.25 2.09 23.25 2.5C23.25 2.91 22.91 3.25 22.5 3.25Z" fill="url(#paint0_linear_955_14040)"/>
<path d="M4.17 2.5V14.47C4.17 15.45 4.63 16.38 5.42 16.97L10.63 20.87C11.74 21.7 13.27 21.7 14.38 20.87L19.59 16.97C20.38 16.38 20.84 15.45 20.84 14.47V2.5H4.17ZM16.5 13.75H8.5C8.09 13.75 7.75 13.41 7.75 13C7.75 12.59 8.09 12.25 8.5 12.25H16.5C16.91 12.25 17.25 12.59 17.25 13C17.25 13.41 16.91 13.75 16.5 13.75ZM16.5 8.75H8.5C8.09 8.75 7.75 8.41 7.75 8C7.75 7.59 8.09 7.25 8.5 7.25H16.5C16.91 7.25 17.25 7.59 17.25 8C17.25 8.41 16.91 8.75 16.5 8.75Z" fill="url(#paint1_linear_955_14040)"/>
<defs>
<linearGradient id="paint0_linear_955_14040" x1="2.008" y1="1.80966" x2="16.5446" y2="12.7398" gradientUnits="userSpaceOnUse">
<stop stop-color="#44A5D8"/>
<stop offset="1" stop-color="#15C770"/>
</linearGradient>
<linearGradient id="paint1_linear_955_14040" x1="4.37004" y1="3.25539" x2="21.9758" y2="4.06602" gradientUnits="userSpaceOnUse">
<stop stop-color="#44A5D8"/>
<stop offset="1" stop-color="#15C770"/>
</linearGradient>
</defs>
</svg>
