<svg width="40" height="40" viewBox="0 0 40 40" fill="none" xmlns="http://www.w3.org/2000/svg">
<path d="M0 12C0 5.37258 5.37258 0 12 0H28C34.6274 0 40 5.37258 40 12V28C40 34.6274 34.6274 40 28 40H12C5.37258 40 0 34.6274 0 28V12Z" fill="#FFEDEC"/>
<path d="M25.7679 8H22.646C18.8036 8 16.4021 10.4015 16.4021 14.2439V19.1069H23.9067C24.399 19.1069 24.8073 19.5151 24.8073 20.0074C24.8073 20.4998 24.399 20.908 23.9067 20.908H16.4021V25.771C16.4021 29.6134 18.8036 32.0149 22.646 32.0149H25.7559C29.5983 32.0149 31.9998 29.6134 31.9998 25.771V14.2439C32.0118 10.4015 29.6103 8 25.7679 8Z" fill="#FF4842"/>
<path d="M11.0709 19.1069L13.5564 16.6214C13.7366 16.4412 13.8206 16.2131 13.8206 15.985C13.8206 15.7568 13.7366 15.5167 13.5564 15.3486C13.2082 15.0003 12.6319 15.0003 12.2837 15.3486L8.26116 19.3711C7.91295 19.7193 7.91295 20.2956 8.26116 20.6438L12.2837 24.6663C12.6319 25.0146 13.2082 25.0146 13.5564 24.6663C13.9047 24.3181 13.9047 23.7418 13.5564 23.3936L11.0709 20.908H16.4022V19.1069H11.0709Z" fill="#FF4842"/>
</svg>
