<svg width="40" height="40" viewBox="0 0 40 40" fill="none" xmlns="http://www.w3.org/2000/svg">
<path d="M0 12C0 5.37258 5.37258 0 12 0H28C34.6274 0 40 5.37258 40 12V28C40 34.6274 34.6274 40 28 40H12C5.37258 40 0 34.6274 0 28V12Z" fill="#E2F5FF"/>
<path d="M31.2487 20.7518C31.0499 20.7516 30.8593 20.6722 30.7187 20.5316C30.5781 20.391 30.499 20.2007 30.4987 20.0019C30.4958 17.218 29.3886 14.549 27.4201 12.5805C25.4517 10.612 22.7827 9.50485 19.9988 9.50194C19.7999 9.50194 19.609 9.42287 19.4683 9.28222C19.3277 9.14156 19.2488 8.95086 19.2488 8.75195C19.2488 8.55304 19.3277 8.36233 19.4683 8.22168C19.609 8.08103 19.7999 8.00195 19.9988 8.00195C23.1814 8.00195 26.2334 9.26615 28.4839 11.5166C30.7343 13.767 31.9987 16.8193 31.9987 20.0019C31.9987 20.2008 31.9197 20.3915 31.779 20.5321C31.6383 20.6728 31.4476 20.7518 31.2487 20.7518Z" fill="url(#paint0_linear_3514_3465)"/>
<path d="M28.2488 20.7519C28.0499 20.7516 27.8593 20.6723 27.7187 20.5317C27.5781 20.3911 27.499 20.2007 27.4988 20.0019C27.4964 18.0135 26.7053 16.1071 25.2993 14.7011C23.8933 13.2951 21.9872 12.5043 19.9988 12.5019C19.7999 12.5019 19.609 12.4229 19.4683 12.2822C19.3277 12.1416 19.2488 11.9509 19.2488 11.7519C19.2488 11.553 19.3277 11.3623 19.4683 11.2217C19.609 11.081 19.7999 11.002 19.9988 11.002C22.385 11.0043 24.6728 11.9533 26.3601 13.6406C28.0474 15.3279 28.9964 17.6157 28.9987 20.0019C28.9987 20.2008 28.9197 20.3915 28.779 20.5321C28.6384 20.6728 28.4477 20.7519 28.2488 20.7519Z" fill="url(#paint1_linear_3514_3465)"/>
<path d="M25.2488 20.7519C25.0499 20.7519 24.8589 20.6728 24.7183 20.5322C24.5776 20.3915 24.4988 20.2008 24.4988 20.0019C24.4975 18.8088 24.0228 17.6649 23.1792 16.8213C22.3356 15.9776 21.1919 15.5033 19.9988 15.5019C19.7999 15.5019 19.609 15.4229 19.4683 15.2822C19.3277 15.1416 19.2488 14.9509 19.2488 14.7519C19.2488 14.553 19.3277 14.3623 19.4683 14.2217C19.609 14.081 19.7999 14.002 19.9988 14.002C21.5895 14.0038 23.1145 14.6364 24.2393 15.7612C25.3641 16.886 25.9969 18.4112 25.9988 20.0019C25.9988 20.2008 25.9197 20.3915 25.779 20.5322C25.6384 20.6728 25.4477 20.7519 25.2488 20.7519Z" fill="url(#paint2_linear_3514_3465)"/>
<path d="M31.9999 25.2319C32.0048 26.3486 31.7297 27.449 31.1999 28.432C30.6233 29.5096 29.7651 30.4103 28.717 31.0389C27.6689 31.6676 26.4702 32.0005 25.248 32.0018C24.465 32.0003 23.688 31.8614 22.9529 31.5917C19.6146 30.3744 16.583 28.4419 14.0706 25.9291C11.5582 23.4164 9.62592 20.3843 8.40906 17.0459C8.02506 16.0037 7.90895 14.8815 8.07118 13.7827C8.22713 12.7373 8.6245 11.743 9.23205 10.878C9.83961 10.013 10.6406 9.30127 11.5711 8.79987C12.5541 8.26967 13.6543 7.9948 14.7711 8.00007C14.9425 8.00011 15.1086 8.05886 15.242 8.16658C15.3754 8.27429 15.4679 8.42428 15.504 8.59187L16.681 14.085C16.7077 14.2072 16.7035 14.334 16.6685 14.4541C16.6336 14.5743 16.5691 14.6841 16.481 14.773L14.47 16.7827C16.3731 20.5615 19.4402 23.6286 23.219 25.5317L25.23 23.5219C25.3185 23.4334 25.4281 23.3684 25.5483 23.3334C25.6686 23.2985 25.7957 23.2945 25.918 23.3217L31.4108 24.499C31.578 24.5353 31.7277 24.6278 31.8349 24.7612C31.9421 24.8946 32.0004 25.0607 31.9999 25.2319Z" fill="url(#paint3_linear_3514_3465)"/>
<path d="M13.0363 9.73492C11.9196 9.73075 10.8197 10.0056 9.83637 10.5347C9.61823 10.653 9.40656 10.783 9.20234 10.9239L9.22725 10.8868C9.83652 10.0196 10.6389 9.30587 11.5712 8.80182C12.5542 8.27166 13.6546 7.99679 14.7714 8.00203C14.9428 8.00206 15.109 8.06081 15.2423 8.16853C15.3757 8.27625 15.4682 8.42623 15.5043 8.59382L16.6813 14.0869C16.7079 14.2092 16.7035 14.3359 16.6686 14.4561C16.6337 14.5762 16.5693 14.686 16.4813 14.7749L14.7472 16.5088C14.8353 16.4199 14.8998 16.3106 14.9347 16.1904C14.9697 16.0703 14.9739 15.9431 14.9472 15.8208L13.7702 10.3292C13.7344 10.161 13.6421 10.01 13.5085 9.90191C13.3748 9.79378 13.2082 9.73483 13.0363 9.73492Z" fill="url(#paint4_linear_3514_3465)"/>
<path d="M23.2144 25.5356L22.2144 26.5307C21.9951 26.7498 21.7096 26.8904 21.4022 26.9306C21.0948 26.9707 20.7827 26.9083 20.5145 26.7529C17.4921 25.0139 14.9841 22.5055 13.2455 19.4829C13.0906 19.2145 13.0284 18.9025 13.0685 18.5952C13.1086 18.2879 13.249 18.0023 13.4677 17.7827L14.4626 16.7876C16.3668 20.5663 19.4349 23.6331 23.2144 25.5356Z" fill="url(#paint5_linear_3514_3465)"/>
<path d="M31.999 25.2316C32.0039 26.3484 31.7288 27.4487 31.199 28.4318C30.6945 29.3641 29.9805 30.1667 29.113 30.776L29.0759 30.8009C29.2168 30.5971 29.346 30.3851 29.4629 30.1666C29.9925 29.1835 30.2675 28.0837 30.2629 26.967C30.2632 26.7953 30.2044 26.6288 30.0964 26.4953C29.9885 26.3618 29.8379 26.2696 29.6699 26.2341L24.177 25.0568C24.0551 25.0304 23.9284 25.0351 23.8086 25.07C23.6888 25.1049 23.5796 25.1692 23.491 25.257L25.2251 23.5236C25.3138 23.4352 25.4233 23.3706 25.5435 23.3356C25.6637 23.3007 25.7909 23.2968 25.9131 23.3239L31.406 24.5007C31.5739 24.5364 31.7243 24.629 31.8323 24.7624C31.9402 24.8958 31.9991 25.0624 31.999 25.2341V25.2316Z" fill="url(#paint6_linear_3514_3465)"/>
<defs>
<linearGradient id="paint0_linear_3514_3465" x1="19.4018" y1="8.50905" x2="32.8589" y2="9.21499" gradientUnits="userSpaceOnUse">
<stop stop-color="#44A5D8"/>
<stop offset="1" stop-color="#15C770"/>
</linearGradient>
<linearGradient id="paint1_linear_3514_3465" x1="19.3658" y1="11.3897" x2="29.6566" y2="11.9296" gradientUnits="userSpaceOnUse">
<stop stop-color="#44A5D8"/>
<stop offset="1" stop-color="#15C770"/>
</linearGradient>
<linearGradient id="paint2_linear_3514_3465" x1="19.3298" y1="14.2704" x2="26.4542" y2="14.6442" gradientUnits="userSpaceOnUse">
<stop stop-color="#44A5D8"/>
<stop offset="1" stop-color="#15C770"/>
</linearGradient>
<linearGradient id="paint3_linear_3514_3465" x1="30.7999" y1="20.0009" x2="19.3977" y2="30.784" gradientUnits="userSpaceOnUse">
<stop stop-color="#A1CF12"/>
<stop offset="1" stop-color="#19C76D"/>
</linearGradient>
<linearGradient id="paint4_linear_3514_3465" x1="9.20234" y1="12.3275" x2="14.9451" y2="12.3275" gradientUnits="userSpaceOnUse">
<stop stop-color="#004692"/>
<stop offset="1" stop-color="#0094D5"/>
</linearGradient>
<linearGradient id="paint5_linear_3514_3465" x1="13.0566" y1="21.9511" x2="20.8385" y2="21.9511" gradientUnits="userSpaceOnUse">
<stop stop-color="#004692"/>
<stop offset="1" stop-color="#0094D5"/>
</linearGradient>
<linearGradient id="paint6_linear_3514_3465" x1="23.491" y1="27.117" x2="30.009" y2="27.117" gradientUnits="userSpaceOnUse">
<stop stop-color="#004692"/>
<stop offset="1" stop-color="#0094D5"/>
</linearGradient>
</defs>
</svg>
