<svg width="40" height="40" viewBox="0 0 40 40" fill="none" xmlns="http://www.w3.org/2000/svg">
<path d="M0 12C0 5.37258 5.37258 0 12 0H28C34.6274 0 40 5.37258 40 12V28C40 34.6274 34.6274 40 28 40H12C5.37258 40 0 34.6274 0 28V12Z" fill="#E2F5FF"/>
<path d="M20.0908 8H23.9395C24.2663 8 24.4115 8.32678 24.702 8.61725L27.2436 11.0499C27.4251 11.1952 27.3162 11.5219 27.1346 11.5219H21.7247C21.5794 11.5219 21.4705 11.413 21.4342 11.2678C21.4342 11.2315 21.3979 11.1952 21.3979 11.1589L20.0908 8Z" fill="url(#paint0_linear_3514_5630)"/>
<path d="M16.7867 8H19.1831C19.3283 8 19.4372 8.07262 19.4735 8.21785L20.8533 11.5219V16.5688C20.8533 16.7141 20.7806 16.823 20.6717 16.8593C20.5628 16.9319 20.4539 16.8956 20.3449 16.823L19.6188 16.2784C19.5098 16.1694 19.3646 16.1694 19.2557 16.2784L18.1664 17.0772C18.0575 17.1498 17.9123 17.1498 17.8033 17.0772L16.7504 16.2784C16.6051 16.1694 16.4599 16.1694 16.351 16.2784L15.6248 16.823C15.5159 16.8956 15.407 16.9319 15.298 16.8593C15.1891 16.823 15.1165 16.7141 15.1165 16.5688V11.5219L16.4962 8.21785C16.5688 8.07262 16.6778 8 16.7867 8Z" fill="url(#paint1_linear_3514_5630)"/>
<path d="M14.2451 11.5219H8.87141C8.65356 11.5219 8.58094 11.1952 8.72617 11.0499L11.2678 8.61725C11.3442 8.54086 11.413 8.46197 11.4783 8.38717C11.6613 8.17751 11.8162 8 12.0303 8H15.9153L14.5719 11.1589C14.5719 11.1952 14.5719 11.2315 14.5356 11.2678C14.4992 11.413 14.3903 11.5219 14.2451 11.5219Z" fill="url(#paint2_linear_3514_5630)"/>
<path fill-rule="evenodd" clip-rule="evenodd" d="M27.1346 32.2542C24.4115 32.2542 22.233 30.0393 22.233 27.3525C22.233 24.6657 24.4115 22.4508 27.1346 22.4508C29.8215 22.4508 32 24.6657 32 27.3525C32 30.0393 29.8215 32.2542 27.1346 32.2542ZM27.1346 25.7549H27.0983C26.6989 25.0651 26.118 24.5204 25.2829 24.7383C24.6293 24.9561 24.121 25.6097 24.121 26.3722C24.121 27.3394 24.9799 28.1349 25.6808 28.784C25.7692 28.8659 25.8551 28.9454 25.9365 29.0227L26.9168 29.9304C27.0257 30.0393 27.2073 30.0393 27.3162 29.9304L28.2965 29.0227C28.3779 28.9454 28.4638 28.8659 28.5522 28.784C29.253 28.1349 30.112 27.3394 30.112 26.3722C30.112 25.646 29.6399 24.9924 29.0227 24.7746C28.1513 24.4841 27.534 25.0287 27.1346 25.7549Z" fill="#0054A5"/>
<path d="M27.0983 25.7549H27.1346C27.534 25.0287 28.1513 24.4841 29.0227 24.7746C29.6399 24.9924 30.112 25.646 30.112 26.3722C30.112 27.3394 29.253 28.1349 28.5522 28.784C28.4638 28.8659 28.3779 28.9454 28.2965 29.0227L27.3162 29.9304C27.2073 30.0393 27.0257 30.0393 26.9168 29.9304L25.9365 29.0227C25.8551 28.9454 25.7692 28.8659 25.6808 28.784C24.9799 28.1349 24.121 27.3394 24.121 26.3722C24.121 25.6097 24.6293 24.9561 25.2829 24.7383C26.118 24.5204 26.6989 25.0651 27.0983 25.7549Z" fill="white"/>
<path fill-rule="evenodd" clip-rule="evenodd" d="M9.77912 23.3222H13.0469C13.3737 23.3222 13.6641 23.6127 13.6641 23.9395V25.3192C13.6641 25.646 13.3737 25.9002 13.0469 25.9002H9.77912C9.45235 25.9002 9.19818 25.646 9.19818 25.3192V23.9395C9.19818 23.6127 9.45235 23.3222 9.77912 23.3222ZM11.885 24.0484H10.469C10.3238 24.0484 10.1785 24.1573 10.1785 24.3026C10.1785 24.4478 10.3238 24.5567 10.469 24.5567H11.885C12.0303 24.5567 12.1392 24.4478 12.1392 24.3026C12.1392 24.1573 12.0303 24.0484 11.885 24.0484ZM12.466 25.1377H10.469C10.3238 25.1377 10.1785 25.2466 10.1785 25.3918C10.1785 25.5371 10.3238 25.646 10.469 25.646H12.466C12.6112 25.646 12.7201 25.5371 12.7201 25.3918C12.7201 25.2466 12.6112 25.1377 12.466 25.1377Z" fill="white"/>
<path d="M10.469 24.0484H11.885C12.0303 24.0484 12.1392 24.1573 12.1392 24.3026C12.1392 24.4478 12.0303 24.5567 11.885 24.5567H10.469C10.3238 24.5567 10.1785 24.4478 10.1785 24.3026C10.1785 24.1573 10.3238 24.0484 10.469 24.0484Z" fill="url(#paint3_linear_3514_5630)"/>
<path d="M10.469 25.1377H12.466C12.6112 25.1377 12.7201 25.2466 12.7201 25.3918C12.7201 25.5371 12.6112 25.646 12.466 25.646H10.469C10.3238 25.646 10.1785 25.5371 10.1785 25.3918C10.1785 25.2466 10.3238 25.1377 10.469 25.1377Z" fill="url(#paint4_linear_3514_5630)"/>
<path fill-rule="evenodd" clip-rule="evenodd" d="M17.9849 28.0061H8.4357C8.18154 28.0061 8 27.7882 8 27.4977V12.5386C8 12.3933 8.10893 12.2844 8.21785 12.2844H13.8094H14.3903V16.5688C14.3903 16.9682 14.6082 17.3313 14.9713 17.5129C15.3343 17.6944 15.7337 17.6581 16.0605 17.4039L16.5325 17.0045L17.3676 17.6581C17.7307 17.9123 18.239 17.9123 18.6021 17.6581L19.4372 17.0045L19.9092 17.4039C20.236 17.6581 20.6354 17.6944 20.9985 17.5129C21.3616 17.3313 21.5794 16.9682 21.5794 16.5688V12.2844H22.1604H27.7519C27.8971 12.2844 27.9697 12.3933 27.9697 12.5386V17.0408V21.5431H27.8971C27.8971 21.5431 27.8608 21.5068 27.8245 21.5068H27.7519H27.7156H27.6067H27.5703C27.5545 21.5068 27.5316 21.4999 27.5079 21.492L27.4977 21.4887C27.4705 21.4796 27.4433 21.4705 27.4251 21.4705H27.2799H27.1346C23.8669 21.4705 21.2526 24.121 21.2526 27.3525V27.4977V27.643V27.6793V27.7882V27.8245C21.2526 27.8608 21.2526 27.8971 21.289 27.9334V28.0061H17.9849ZM13.0469 23.3222H9.77912C9.45235 23.3222 9.19818 23.6127 9.19818 23.9395V25.3192C9.19818 25.646 9.45235 25.9002 9.77912 25.9002H13.0469C13.3737 25.9002 13.6641 25.646 13.6641 25.3192V23.9395C13.6641 23.6127 13.3737 23.3222 13.0469 23.3222Z" fill="url(#paint5_linear_3514_5630)"/>
<defs>
<linearGradient id="paint0_linear_3514_5630" x1="8" y1="20.3326" x2="26.3864" y2="20.3326" gradientUnits="userSpaceOnUse">
<stop stop-color="#004692"/>
<stop offset="1" stop-color="#0094D5"/>
</linearGradient>
<linearGradient id="paint1_linear_3514_5630" x1="8" y1="20.3326" x2="26.3864" y2="20.3326" gradientUnits="userSpaceOnUse">
<stop stop-color="#004692"/>
<stop offset="1" stop-color="#0094D5"/>
</linearGradient>
<linearGradient id="paint2_linear_3514_5630" x1="8" y1="20.3326" x2="26.3864" y2="20.3326" gradientUnits="userSpaceOnUse">
<stop stop-color="#004692"/>
<stop offset="1" stop-color="#0094D5"/>
</linearGradient>
<linearGradient id="paint3_linear_3514_5630" x1="8" y1="20.3326" x2="26.3864" y2="20.3326" gradientUnits="userSpaceOnUse">
<stop stop-color="#004692"/>
<stop offset="1" stop-color="#0094D5"/>
</linearGradient>
<linearGradient id="paint4_linear_3514_5630" x1="8" y1="20.3326" x2="26.3864" y2="20.3326" gradientUnits="userSpaceOnUse">
<stop stop-color="#004692"/>
<stop offset="1" stop-color="#0094D5"/>
</linearGradient>
<linearGradient id="paint5_linear_3514_5630" x1="30.7999" y1="20.1271" x2="19.2851" y2="30.9033" gradientUnits="userSpaceOnUse">
<stop stop-color="#A1CF12"/>
<stop offset="1" stop-color="#19C76D"/>
</linearGradient>
</defs>
</svg>
