<svg width="40" height="40" viewBox="0 0 40 40" fill="none" xmlns="http://www.w3.org/2000/svg">
<path d="M0 12C0 5.37258 5.37258 0 12 0H28C34.6274 0 40 5.37258 40 12V28C40 34.6274 34.6274 40 28 40H12C5.37258 40 0 34.6274 0 28V12Z" fill="#E2F5FF"/>
<path d="M32.0002 9.65515V30.3445C32.0002 31.2585 31.2591 31.9996 30.345 31.9996H13.7932V8H30.345C31.2591 8 32.0002 8.7411 32.0002 9.65515Z" fill="url(#paint0_linear_3514_4560)"/>
<path d="M16.2758 11.4824C16.2758 10.9301 16.7235 10.4824 17.2758 10.4824H28.5171C29.0694 10.4824 29.5171 10.9301 29.5171 11.4824V13.6203C29.5171 14.1726 29.0694 14.6203 28.5171 14.6203H17.2758C16.7235 14.6203 16.2758 14.1726 16.2758 13.6203V11.4824Z" fill="white"/>
<path d="M12.2244 22.8832V21.3661C12.6841 21.4381 13.1247 21.6098 13.5143 21.8716L13.5158 21.8727C14.4114 22.4696 14.949 23.4751 14.9483 24.5514V24.5517C14.9483 24.9163 14.7871 25.468 14.485 26.1488C14.1901 26.8131 13.788 27.5422 13.3654 28.2403L13.3647 28.2415C12.974 28.8909 12.5696 29.5078 12.2244 30.0151V26.2202C12.9424 26.0053 13.4655 25.3395 13.4655 24.5517C13.4655 23.7639 12.9424 23.0981 12.2244 22.8832ZM11.2244 30.0148C10.939 29.5958 10.6129 29.1019 10.2872 28.5766C9.82697 27.8344 9.37315 27.0387 9.03603 26.3088C8.69003 25.5597 8.50022 24.9487 8.50022 24.5517C8.50022 22.9411 9.68111 21.6064 11.2244 21.3662V22.8832C10.5063 23.0981 9.98297 23.7638 9.98297 24.5517C9.98297 25.3396 10.5063 26.0053 11.2244 26.2202V30.0148Z" fill="url(#paint1_linear_3514_4560)" stroke="url(#paint2_linear_3514_4560)"/>
<path d="M11.7247 22.8965C10.8106 22.8965 10.0695 23.6376 10.0695 24.5516C10.0695 25.4657 10.8106 26.2068 11.7247 26.2068C12.6388 26.2068 13.3799 25.4657 13.3799 24.5516C13.3799 23.6376 12.6388 22.8965 11.7247 22.8965Z" fill="white"/>
<path d="M27.0347 10.4827V8H25.3795V31.9996H27.0347V10.4827Z" fill="url(#paint3_linear_3514_4560)"/>
<defs>
<linearGradient id="paint0_linear_3514_4560" x1="31.0898" y1="19.9998" x2="20.2724" y2="27.7613" gradientUnits="userSpaceOnUse">
<stop stop-color="#A1CF12"/>
<stop offset="1" stop-color="#19C76D"/>
</linearGradient>
<linearGradient id="paint1_linear_3514_4560" x1="8.00022" y1="26.298" x2="13.7062" y2="26.298" gradientUnits="userSpaceOnUse">
<stop stop-color="#004692"/>
<stop offset="1" stop-color="#0094D5"/>
</linearGradient>
<linearGradient id="paint2_linear_3514_4560" x1="8.00022" y1="26.298" x2="13.7062" y2="26.298" gradientUnits="userSpaceOnUse">
<stop stop-color="#004692"/>
<stop offset="1" stop-color="#0094D5"/>
</linearGradient>
<linearGradient id="paint3_linear_3514_4560" x1="25.3795" y1="20.2032" x2="26.6475" y2="20.2032" gradientUnits="userSpaceOnUse">
<stop stop-color="#004692"/>
<stop offset="1" stop-color="#0094D5"/>
</linearGradient>
</defs>
</svg>
