<svg width="40" height="40" viewBox="0 0 40 40" fill="none" xmlns="http://www.w3.org/2000/svg">
<path d="M0 12C0 5.37258 5.37258 0 12 0H28C34.6274 0 40 5.37258 40 12V28C40 34.6274 34.6274 40 28 40H12C5.37258 40 0 34.6274 0 28V12Z" fill="#E2F5FF"/>
<path d="M13.5766 27.3521C13.032 26.9518 12.531 26.4638 12.1064 25.9722C12.0459 25.9021 11.9842 25.8309 11.9231 25.7605C11.464 25.2319 11.1715 24.6161 11.0518 23.9704C10.9152 23.2341 10.7126 22.2849 10.51 21.8612C10.4086 21.6492 10.0031 21.2252 9.74969 21.2676C9.62933 21.2877 9.52611 21.4609 9.4509 21.6372C9.34171 21.8931 9.32492 22.1681 9.33695 22.4397L9.43958 24.7578C9.46043 25.2286 9.52972 25.697 9.64669 26.1578C10.0488 27.7418 10.8456 29.2371 11.9852 30.5461L13.6526 32.4614H16.9473C16.9473 32.4614 17.0994 29.2814 16.7699 28.2637C16.5533 27.6446 15.5522 26.3154 14.9942 25.6019C14.7448 25.2832 14.4756 24.9685 14.1087 24.7429C13.9483 24.6442 13.7851 24.5716 13.678 24.5961C13.3992 24.6597 13.2471 25.2109 13.2471 25.4441C13.2471 25.9317 13.5766 27.3521 13.5766 27.3521Z" fill="url(#paint0_linear_3514_4141)"/>
<path d="M11.4984 24.7445C11.4731 24.6597 11.0929 23.324 11.1436 23.2392C11.1729 23.1901 11.4232 22.743 11.6288 22.3752C11.8097 22.0514 12.1313 21.4934 12.4868 21.6916C12.6642 21.7764 12.7656 22.2428 12.7403 22.4336C12.6389 23.0908 11.4984 24.7445 11.4984 24.7445Z" fill="url(#paint1_linear_3514_4141)"/>
<path d="M13.0444 24.4899C12.943 24.8291 12.3601 25.8467 12.3601 25.8467L11.6505 25.0199L12.0114 24.5562C12.2394 24.2633 12.6421 23.7839 12.9684 24.0023C13.0951 24.0871 13.0697 24.3839 13.0444 24.4899Z" fill="url(#paint2_linear_3514_4141)"/>
<path d="M26.4237 27.2413C26.9683 26.8409 27.4693 26.353 27.8939 25.8614C27.9545 25.7913 28.0161 25.7201 28.0773 25.6497C28.5364 25.1211 28.8288 24.5052 28.9486 23.8596C29.0851 23.1232 29.2877 22.1741 29.4903 21.7504C29.5917 21.5384 29.9972 21.1144 30.2506 21.1568C30.371 21.1769 30.4742 21.3501 30.5494 21.5263C30.6586 21.7823 30.6754 22.0572 30.6634 22.3288L30.5608 24.647C30.5399 25.1177 30.4706 25.5861 30.3536 26.047C29.9516 27.631 29.1548 29.1263 28.0152 30.4353L26.3477 32.3506H23.053C23.053 32.3506 22.9009 29.1705 23.2304 28.1529C23.447 27.5337 24.4481 26.2046 25.0062 25.4911C25.2555 25.1723 25.5247 24.8577 25.8916 24.632C26.052 24.5334 26.2152 24.4608 26.3224 24.4852C26.6011 24.5488 26.7532 25.1 26.7532 25.3332C26.7532 25.8209 26.4237 27.2413 26.4237 27.2413Z" fill="url(#paint3_linear_3514_4141)"/>
<path d="M28.5019 24.6336C28.5273 24.5488 28.9074 23.2132 28.8567 23.1284C28.8274 23.0793 28.5771 22.6321 28.3716 22.2644C28.1906 21.9406 27.869 21.3825 27.5135 21.5808C27.3361 21.6656 27.2347 22.132 27.2601 22.3228C27.3615 22.98 28.5019 24.6336 28.5019 24.6336Z" fill="url(#paint4_linear_3514_4141)"/>
<path d="M26.956 24.379C27.0573 24.7182 27.6402 25.7359 27.6402 25.7359L28.3499 24.909L27.9889 24.4454C27.7609 24.1525 27.3582 23.6731 27.032 23.8914C26.9053 23.9762 26.9306 24.273 26.956 24.379Z" fill="url(#paint5_linear_3514_4141)"/>
<path d="M20.2106 14.1007C20.2458 14.0866 20.267 14.0725 20.2952 14.0443L20.9437 13.3958L22.0081 12.3314C22.3323 12.4089 22.6425 12.4512 22.9526 12.4512C23.587 12.4512 24.1721 12.275 24.7007 11.9226C26.6956 10.5903 27.0621 7.1998 27.0762 7.05178C27.0903 6.8967 26.9987 6.74867 26.8506 6.69228C26.6956 6.63589 26.5264 6.68523 26.4348 6.81916L26.4326 6.82177C26.3962 6.86685 25.9072 7.47176 24.4611 7.80601C22.1561 8.33467 21.5428 10.0264 21.416 10.5339C21.2327 11.2388 21.3173 11.6758 21.423 11.9155V11.9226L20.0485 13.2971L18.6035 11.8521C18.6951 11.5983 18.7515 11.1824 18.5823 10.5339C18.4554 10.0264 17.8422 8.33467 15.5372 7.80601C14.0911 7.47176 13.6021 6.86685 13.5657 6.82177L13.5635 6.81916C13.4719 6.68523 13.3027 6.63589 13.1547 6.68523C12.9996 6.74162 12.908 6.8967 12.9221 7.05178C12.9362 7.1998 13.3027 10.5903 15.2975 11.9226C15.8262 12.275 16.4113 12.4512 17.0457 12.4512C17.377 12.4512 17.7153 12.4019 18.0607 12.3102L19.1462 13.3958L19.7947 14.0443C19.8229 14.0725 19.8441 14.0866 19.8793 14.1007H20.2106Z" fill="url(#paint6_linear_3514_4141)"/>
<path d="M26.3643 14.1007H20.2106H19.8793H17.2501C18.3497 15.0663 19.1039 16.1307 19.4987 17.2656C20.8309 21.1072 25.4338 20.7971 26.2021 20.7196H26.2092C27.2031 19.8384 28.0137 18.7247 28.5565 17.4841C27.3159 16.6312 26.5828 15.4893 26.3643 14.1007Z" fill="url(#paint7_linear_3514_4141)"/>
<path d="M27.0916 14.1006C27.289 15.1932 27.867 16.1025 28.8256 16.8003C29.1287 15.9403 29.305 15.031 29.3332 14.1006H27.0916Z" fill="url(#paint8_linear_3514_4141)"/>
<path d="M18.8293 17.4981C18.3993 16.2716 17.497 15.1297 16.1366 14.1006H10.6667C10.8499 19.0912 14.9665 23.0879 19.9994 23.0879C21.8885 23.0879 23.7212 22.5099 25.2649 21.4455C23.4533 21.4173 20.0064 20.8887 18.8293 17.4981Z" fill="url(#paint9_linear_3514_4141)"/>
<defs>
<linearGradient id="paint0_linear_3514_4141" x1="9.7161" y1="26.863" x2="14.5727" y2="30.0008" gradientUnits="userSpaceOnUse">
<stop stop-color="#A1CF12"/>
<stop offset="1" stop-color="#19C76D"/>
</linearGradient>
<linearGradient id="paint1_linear_3514_4141" x1="9.7161" y1="26.863" x2="14.5727" y2="30.0008" gradientUnits="userSpaceOnUse">
<stop stop-color="#A1CF12"/>
<stop offset="1" stop-color="#19C76D"/>
</linearGradient>
<linearGradient id="paint2_linear_3514_4141" x1="9.7161" y1="26.863" x2="14.5727" y2="30.0008" gradientUnits="userSpaceOnUse">
<stop stop-color="#A1CF12"/>
<stop offset="1" stop-color="#19C76D"/>
</linearGradient>
<linearGradient id="paint3_linear_3514_4141" x1="30.2842" y1="26.7522" x2="25.4276" y2="29.8899" gradientUnits="userSpaceOnUse">
<stop stop-color="#A1CF12"/>
<stop offset="1" stop-color="#19C76D"/>
</linearGradient>
<linearGradient id="paint4_linear_3514_4141" x1="30.2842" y1="26.7522" x2="25.4276" y2="29.8899" gradientUnits="userSpaceOnUse">
<stop stop-color="#A1CF12"/>
<stop offset="1" stop-color="#19C76D"/>
</linearGradient>
<linearGradient id="paint5_linear_3514_4141" x1="30.2842" y1="26.7522" x2="25.4276" y2="29.8899" gradientUnits="userSpaceOnUse">
<stop stop-color="#A1CF12"/>
<stop offset="1" stop-color="#19C76D"/>
</linearGradient>
<linearGradient id="paint6_linear_3514_4141" x1="27.7746" y1="13.7127" x2="21.0772" y2="20.7406" gradientUnits="userSpaceOnUse">
<stop stop-color="#A1CF12"/>
<stop offset="1" stop-color="#19C76D"/>
</linearGradient>
<linearGradient id="paint7_linear_3514_4141" x1="12.9206" y1="13.8321" x2="24.8993" y2="13.8321" gradientUnits="userSpaceOnUse">
<stop stop-color="#004692"/>
<stop offset="1" stop-color="#0094D5"/>
</linearGradient>
<linearGradient id="paint8_linear_3514_4141" x1="27.0916" y1="15.4733" x2="28.8089" y2="15.4733" gradientUnits="userSpaceOnUse">
<stop stop-color="#004692"/>
<stop offset="1" stop-color="#0094D5"/>
</linearGradient>
<linearGradient id="paint9_linear_3514_4141" x1="10.6667" y1="18.6704" x2="21.8504" y2="18.6704" gradientUnits="userSpaceOnUse">
<stop stop-color="#004692"/>
<stop offset="1" stop-color="#0094D5"/>
</linearGradient>
</defs>
</svg>
