<svg width="70" height="34" viewBox="0 0 70 34" fill="none" xmlns="http://www.w3.org/2000/svg">
<g clip-path="url(#clip0_3514_3014)">
<path d="M69.4329 12.4558C69.1947 12.2174 68.8813 12.0689 68.546 12.0356C68.2107 12.0023 67.8742 12.0862 67.5939 12.2731C67.3135 12.4599 67.1065 12.7382 67.0082 13.0605C66.9099 13.3828 66.9264 13.7292 67.0548 14.0408C67.1832 14.3523 67.4155 14.6097 67.7124 14.7692C68.0092 14.9286 68.3521 14.9803 68.6828 14.9153C69.0134 14.8504 69.3113 14.6728 69.5258 14.4129C69.7403 14.1531 69.858 13.8269 69.859 13.4899C69.8595 13.1024 69.7062 12.7305 69.4329 12.4558ZM67.9977 13.3614H68.5429C68.6343 13.3652 68.7256 13.3525 68.8124 13.3238C68.8716 13.3034 68.9228 13.2649 68.9588 13.2137C68.9948 13.1625 69.0138 13.1013 69.013 13.0387C69.0128 12.9965 69.0041 12.9547 68.9874 12.916C68.9707 12.8772 68.9464 12.8422 68.9158 12.8131C68.8251 12.7474 68.714 12.7163 68.6025 12.7253H67.9977V13.3614ZM67.7439 14.43V12.5154H68.5931C68.7245 12.5091 68.8561 12.5261 68.9816 12.5655C69.0719 12.6004 69.148 12.6643 69.1978 12.7473C69.2488 12.8348 69.2758 12.9342 69.2762 13.0355C69.2783 13.0989 69.2677 13.162 69.2451 13.2212C69.2225 13.2803 69.1883 13.3344 69.1446 13.3802C69.0324 13.4853 68.8874 13.5483 68.7341 13.5588C68.7903 13.5831 68.843 13.6147 68.8908 13.6529C68.9698 13.7299 69.0392 13.8161 69.0976 13.9098L69.4297 14.43H69.1164L68.8626 14.032C68.7905 13.9192 68.7278 13.8283 68.6808 13.7688C68.6444 13.72 68.6012 13.6767 68.5523 13.6403C68.5162 13.6175 68.4772 13.5996 68.4364 13.587H68.2954H67.9977V14.4362L67.7439 14.43ZM68.3894 11.8887C68.7583 11.8895 69.1154 12.0182 69.4001 12.2528C69.6847 12.4873 69.8793 12.8133 69.9506 13.1752C70.0219 13.5371 69.9656 13.9126 69.7912 14.2376C69.6169 14.5627 69.3352 14.8172 68.9943 14.958C68.6533 15.0987 68.2741 15.1169 67.9212 15.0095C67.5684 14.902 67.2636 14.6756 67.0589 14.3688C66.8542 14.0619 66.7622 13.6936 66.7985 13.3265C66.8349 12.9595 66.9973 12.6163 67.2582 12.3556C67.5589 12.0569 67.9655 11.8891 68.3894 11.8887Z" fill="white"/>
<path d="M42.7633 16.4918C42.7633 14.665 42.3309 13.2799 41.488 12.3744C40.645 11.4688 39.354 11.0144 37.6525 11.0144H34.6161C33.7011 11.0144 33.2562 11.4656 33.2562 12.4026V20.5842C33.2562 21.5243 33.7011 21.9724 34.6161 21.9724H37.6024C39.2287 21.9724 40.5072 21.4898 41.4065 20.5403C42.3058 19.5909 42.7602 18.2247 42.7602 16.4918M39.8899 18.961C39.6727 19.3329 39.3579 19.6382 38.9794 19.8437C38.601 20.0492 38.1735 20.1471 37.7434 20.1267H35.5499V12.8475H37.7434C39.5608 12.8475 40.4852 14.0696 40.4852 16.4793C40.5219 17.3399 40.3214 18.1941 39.9055 18.9485" fill="white"/>
<path d="M50.1773 20.6814C50.0949 20.3621 50.0548 20.0334 50.0582 19.7037V16.0062C50.0582 14.5428 48.9144 13.8315 46.5612 13.8315C45.6634 13.7935 44.7742 14.0201 44.0042 14.4833C43.4245 14.853 43.1362 15.2761 43.1362 15.7367C43.1348 15.8367 43.1551 15.9358 43.1957 16.0272C43.2362 16.1186 43.2961 16.2002 43.3712 16.2663C43.4522 16.3416 43.5474 16.4001 43.6512 16.4383C43.7551 16.4765 43.8655 16.4936 43.976 16.4887C44.2136 16.4717 44.4366 16.368 44.6027 16.1973C44.8156 15.9845 45.044 15.7876 45.2858 15.6082C45.6653 15.3866 46.1001 15.2779 46.5392 15.2949C47.5357 15.2949 48.037 15.6301 48.037 16.2976C48.037 16.6611 47.8553 17.1154 46.9936 17.2126L45.6399 17.363C44.8874 17.4081 44.1548 17.6223 43.4966 17.9897C43.207 18.1902 42.9747 18.4627 42.8225 18.7803C42.6703 19.0978 42.6035 19.4496 42.6286 19.8009C42.6254 20.1013 42.6907 20.3984 42.8193 20.6699C42.948 20.9413 43.1367 21.1799 43.3712 21.3677C43.8386 21.7539 44.429 21.9596 45.0351 21.9474C45.5906 21.9663 46.1436 21.864 46.6555 21.6475C47.1674 21.431 47.626 21.1056 47.9994 20.6939L48.1624 20.5153V20.7535C48.2 21.5588 48.5948 21.9474 49.3688 21.9474C49.6025 21.9547 49.8308 21.8767 50.0112 21.728C50.0928 21.6661 50.1587 21.5859 50.2039 21.494C50.249 21.4021 50.2721 21.3009 50.2713 21.1984C50.2516 21.026 50.2148 20.856 50.1616 20.6908M48.0245 18.9862C48.0261 19.2109 47.9778 19.4332 47.8829 19.637C47.7881 19.8407 47.6491 20.0209 47.4761 20.1644C47.0595 20.5166 46.5266 20.7009 45.9815 20.6814C45.6386 20.6993 45.3 20.5986 45.0226 20.3963C44.9085 20.3138 44.8156 20.2055 44.7513 20.0802C44.687 19.955 44.6533 19.8163 44.6528 19.6755C44.6528 19.0488 45.1605 18.6415 46.1663 18.4911L46.9685 18.372C47.293 18.3504 47.6057 18.2422 47.8741 18.0586L48.0402 17.8988L48.0245 18.9862Z" fill="white"/>
<path d="M52.5964 14.8403C52.5964 14.1509 52.283 13.8313 51.5874 13.8313C50.8917 13.8313 50.5784 14.1447 50.5784 14.8403V20.9444C50.5784 21.6307 50.8917 21.9503 51.5874 21.9503C52.283 21.9503 52.5964 21.6369 52.5964 20.9444V14.8403Z" fill="white"/>
<path d="M57.9359 14.1008C57.7117 13.9109 57.4241 13.8125 57.1306 13.825C56.3033 13.825 55.733 14.4142 55.3883 15.63L55.3695 15.6989H55.1502V14.7588C55.1586 14.6328 55.1407 14.5064 55.0975 14.3877C55.0543 14.269 54.9869 14.1606 54.8995 14.0695C54.7182 13.9135 54.4869 13.8277 54.2477 13.8277C54.0086 13.8277 53.7773 13.9135 53.596 14.0695C53.5086 14.1606 53.4411 14.269 53.398 14.3877C53.3548 14.5064 53.3369 14.6328 53.3453 14.7588V20.9444C53.3453 21.6307 53.6586 21.9503 54.3543 21.9503C55.0499 21.9503 55.3633 21.6369 55.3633 20.9444V18.3687C55.3633 16.6766 55.8615 15.818 56.8454 15.818H57.2403C57.9171 15.818 58.2336 15.5046 58.2336 14.809C58.2373 14.6764 58.2111 14.5447 58.1569 14.4237C58.1026 14.3027 58.0217 14.1956 57.9202 14.1102" fill="white"/>
<path d="M65.3592 15.3981C65.4486 15.1846 65.5036 14.9583 65.5222 14.7276C65.5136 14.5264 65.4349 14.3346 65.2997 14.1855C65.2018 14.0649 65.0765 13.9695 64.9342 13.9074C64.7919 13.8452 64.6368 13.8181 64.4818 13.8282C63.993 13.8282 63.6765 14.1228 63.5136 14.737L62.1442 19.8227H61.9625L60.5148 14.5866C60.465 14.3531 60.3305 14.1464 60.1372 14.0063C59.9439 13.8663 59.7055 13.8028 59.4682 13.8282C59.3398 13.8237 59.2118 13.8456 59.0921 13.8925C58.9725 13.9394 58.8637 14.0103 58.7725 14.1009C58.6801 14.1898 58.6073 14.2971 58.5588 14.4158C58.5102 14.5345 58.487 14.662 58.4905 14.7902C58.5339 15.1332 58.6246 15.4686 58.76 15.7867L61.0788 22.3671V22.3953C61.0613 22.6144 60.9607 22.8186 60.7976 22.966C60.6345 23.1133 60.4212 23.1928 60.2014 23.1881H59.9727C59.346 23.1881 59.0546 23.4419 59.0546 23.984C59.0546 24.6107 59.4776 24.9021 60.3487 24.9021C60.6278 24.9164 60.9068 24.8741 61.1691 24.7777C61.4313 24.6813 61.6714 24.5328 61.8747 24.3412C62.2993 23.8572 62.6127 23.2861 62.7929 22.6679L65.3592 15.3981Z" fill="white"/>
<path d="M14.972 20.5184C14.972 20.5184 13.2956 22.2011 11.3779 21.9348C6.05085 21.1796 8.87103 15.721 9.42253 12.9509C10.0492 9.69831 10.6759 5.74379 9.42253 2.55072C8.59528 0.441855 6.14486 -0.488805 4.13313 0.250709C1.27221 1.30671 0.429294 5.72499 0.147276 8.46057C0.0551797 9.29309 0.00602261 10.1298 0 10.9674C0 15.1695 1.93652 24.5669 8.67362 24.5669C12.8318 24.5669 14.5396 20.8067 14.972 20.5184Z" fill="white"/>
<path d="M9.34106 20.0138C9.92289 20.4138 10.6395 20.567 11.334 20.44C13.4303 20.1266 12.3054 16.5951 11.9168 15.2258C11.4562 13.6183 10.6634 11.7162 11.1585 10.0429C11.4092 9.21566 12.4119 8.52002 13.4178 8.52002C15.8713 8.52002 16.5701 11.9074 16.5701 13.7875C16.5701 15.8995 15.9998 20.3491 12.4746 21.0698C10.2811 21.5148 9.4382 20.089 9.34106 20.0013" fill="white"/>
<path fill-rule="evenodd" clip-rule="evenodd" d="M52.659 12.0484C52.6572 12.2599 52.5928 12.4662 52.4739 12.6412C52.355 12.8162 52.187 12.952 51.991 13.0317C51.795 13.1114 51.5799 13.1313 51.3726 13.0889C51.1653 13.0465 50.9753 12.9437 50.8263 12.7934C50.6774 12.6432 50.5763 12.4522 50.5357 12.2446C50.4951 12.037 50.5168 11.822 50.5982 11.6267C50.6796 11.4314 50.817 11.2646 50.993 11.1473C51.169 11.0299 51.3758 10.9673 51.5874 10.9673C51.8716 10.9673 52.1442 11.0802 52.3452 11.2812C52.5461 11.4821 52.659 11.7547 52.659 12.039" fill="white"/>
<path d="M32.2065 20.6814C32.1252 20.362 32.0862 20.0333 32.0905 19.7037V16.0062C32.0905 14.5428 30.9437 13.8315 28.5935 13.8315C27.6948 13.7936 26.8046 14.0202 26.0334 14.4833C25.4569 14.853 25.1654 15.276 25.1654 15.7367C25.164 15.8367 25.1843 15.9358 25.2249 16.0272C25.2655 16.1186 25.3254 16.2002 25.4004 16.2662C25.482 16.3417 25.5778 16.4002 25.6821 16.4384C25.7865 16.4766 25.8973 16.4937 26.0084 16.4887C26.2461 16.4723 26.4693 16.3685 26.6351 16.1973C26.8484 15.9815 27.079 15.7834 27.3244 15.6051C27.7038 15.3832 28.1387 15.2744 28.5778 15.2917C29.568 15.2917 30.0725 15.627 30.0725 16.2944C30.0725 16.6579 29.8939 17.1123 29.0291 17.2094L27.6785 17.3598C26.9259 17.4039 26.193 17.6182 25.5352 17.9865C25.2457 18.187 25.0134 18.4595 24.8612 18.7771C24.709 19.0947 24.6421 19.4464 24.6672 19.7977C24.6634 20.0979 24.7281 20.395 24.8562 20.6664C24.9843 20.9379 25.1726 21.1766 25.4067 21.3645C25.8753 21.7507 26.4667 21.9563 27.0738 21.9442C27.6292 21.9625 28.1819 21.8599 28.6937 21.6435C29.2056 21.427 29.6643 21.102 30.0381 20.6908L30.1979 20.5122V20.7503C30.2355 21.5556 30.6303 21.9442 31.4074 21.9442C31.6357 21.9472 31.8576 21.8695 32.0341 21.7249C32.1157 21.6629 32.1817 21.5828 32.2269 21.4908C32.272 21.3989 32.2951 21.2977 32.2942 21.1953C32.2722 21.023 32.2344 20.8531 32.1814 20.6876M30.0819 18.9893C30.0836 19.214 30.0352 19.4363 29.9404 19.6401C29.8455 19.8439 29.7066 20.024 29.5336 20.1675C29.1092 20.5253 28.565 20.7089 28.0107 20.6814C27.6741 20.6952 27.3428 20.5947 27.0706 20.3962C26.9556 20.3144 26.8618 20.2064 26.7969 20.081C26.732 19.9557 26.698 19.8167 26.6977 19.6755C26.6977 19.0488 27.2085 18.6415 28.2112 18.491L29.0165 18.372C29.3401 18.3506 29.6519 18.2424 29.919 18.0586L30.0851 17.8988L30.0819 18.9893Z" fill="white"/>
<path d="M19.7131 14.8403C19.7131 14.1509 19.3997 13.8313 18.7041 13.8313C18.0084 13.8313 17.6951 14.1447 17.6951 14.8403V20.9444C17.6951 21.6307 18.0084 21.9503 18.7041 21.9503C19.3997 21.9503 19.7131 21.6369 19.7131 20.9444V14.8403Z" fill="white"/>
<path fill-rule="evenodd" clip-rule="evenodd" d="M19.7757 12.0484C19.7739 12.2599 19.7095 12.4662 19.5906 12.6412C19.4717 12.8162 19.3037 12.952 19.1077 13.0317C18.9117 13.1114 18.6966 13.1313 18.4893 13.0889C18.282 13.0465 18.092 12.9437 17.943 12.7934C17.7941 12.6432 17.693 12.4522 17.6524 12.2446C17.6118 12.037 17.6335 11.822 17.7149 11.6267C17.7963 11.4314 17.9337 11.2646 18.1097 11.1473C18.2857 11.0299 18.4925 10.9673 18.7041 10.9673C18.9883 10.9673 19.2609 11.0802 19.4619 11.2812C19.6628 11.4821 19.7757 11.7547 19.7757 12.039" fill="white"/>
<path d="M20.4212 14.8278C20.3362 14.8291 20.2518 14.8131 20.1732 14.7808C20.0945 14.7485 20.0233 14.7005 19.9637 14.6398C19.8432 14.5168 19.7756 14.3514 19.7756 14.1791C19.7756 14.0069 19.8432 13.8415 19.9637 13.7185C20.0235 13.6583 20.0949 13.6109 20.1735 13.5791C20.2522 13.5474 20.3364 13.5319 20.4212 13.5336H20.8599V11.7224C20.8601 11.6057 20.8834 11.4902 20.9286 11.3827C20.9738 11.2751 21.0399 11.1775 21.1231 11.0957C21.2044 11.0115 21.3017 10.9445 21.4094 10.8988C21.5171 10.853 21.6329 10.8294 21.7499 10.8294C21.867 10.8283 21.9831 10.8514 22.091 10.8972C22.1988 10.9431 22.296 11.0106 22.3766 11.0957C22.5418 11.2624 22.6342 11.4878 22.6335 11.7224V13.5336H24.1846C24.2734 13.5274 24.3625 13.5396 24.4463 13.5693C24.5302 13.599 24.607 13.6457 24.6721 13.7064C24.7372 13.7671 24.7891 13.8405 24.8245 13.9221C24.86 14.0037 24.8783 14.0917 24.8783 14.1807C24.8783 14.2697 24.86 14.3577 24.8245 14.4393C24.7891 14.5209 24.7372 14.5943 24.6721 14.655C24.607 14.7157 24.5302 14.7624 24.4463 14.7921C24.3625 14.8218 24.2734 14.8339 24.1846 14.8278H22.6523V19.5625C22.6287 19.8039 22.6884 20.0461 22.8215 20.2488C23.0345 20.4018 23.2979 20.468 23.5579 20.4337H23.8963C24.0974 20.4337 24.2903 20.5136 24.4325 20.6558C24.5747 20.798 24.6546 20.9909 24.6546 21.192C24.6546 21.3931 24.5747 21.586 24.4325 21.7282C24.2903 21.8704 24.0974 21.9503 23.8963 21.9503H22.8748C22.3375 21.9871 21.8065 21.8179 21.3895 21.4771C21.0365 21.1554 20.8599 20.6238 20.8599 19.8822V14.8278H20.4212Z" fill="white"/>
<path d="M3.98898 32.0592V28.5151H4.46841L6.32033 31.2883V28.5151H6.76843V32.0466H6.289L4.43708 29.2735V32.0466L3.98898 32.0592Z" fill="white"/>
<path d="M7.42021 32.2754L7.8401 32.3381C7.8437 32.3932 7.85864 32.4469 7.88398 32.496C7.90932 32.5451 7.94452 32.5884 7.98738 32.6232C8.11818 32.709 8.273 32.7507 8.42921 32.7423C8.59241 32.7518 8.75452 32.7101 8.89297 32.6232C9.00343 32.5395 9.08105 32.4198 9.11232 32.2848C9.14367 32.1017 9.15419 31.9156 9.14365 31.7302C9.05951 31.8361 8.95222 31.9214 8.83001 31.9796C8.70781 32.0377 8.57392 32.0671 8.43861 32.0654C8.28149 32.073 8.1249 32.0421 7.9824 31.9755C7.8399 31.9088 7.71577 31.8085 7.62076 31.6832C7.4259 31.4197 7.32446 31.0989 7.33247 30.7713C7.32759 30.5348 7.37243 30.3 7.46408 30.0819C7.54196 29.8873 7.67617 29.7204 7.84951 29.6025C8.02648 29.495 8.23187 29.4437 8.43861 29.4552C8.58348 29.4531 8.72679 29.4852 8.85692 29.5489C8.98705 29.6126 9.10031 29.7061 9.18752 29.8218V29.5085H9.58548V31.702C9.60356 31.9894 9.56195 32.2774 9.46328 32.548C9.38342 32.7188 9.25187 32.8603 9.08725 32.9522C8.88628 33.0532 8.66342 33.1027 8.43861 33.0964C8.17629 33.1087 7.91698 33.0362 7.6991 32.8896C7.60499 32.8187 7.53016 32.7253 7.48144 32.618C7.43272 32.5107 7.41167 32.3929 7.42021 32.2754ZM7.77743 30.74C7.75473 31.0005 7.82585 31.2605 7.97798 31.4732C8.03828 31.5476 8.11483 31.6072 8.20174 31.6474C8.28865 31.6876 8.38361 31.7073 8.47935 31.7051C8.5743 31.7072 8.66849 31.6877 8.7548 31.6481C8.84111 31.6085 8.91729 31.5497 8.97758 31.4763C9.12968 31.2683 9.20197 31.0125 9.18126 30.7556C9.20027 30.5023 9.1268 30.2507 8.97444 30.0474C8.91316 29.9701 8.83497 29.9079 8.74588 29.8656C8.6568 29.8232 8.55918 29.8018 8.46054 29.803C8.36666 29.8031 8.274 29.8242 8.18939 29.8649C8.10478 29.9056 8.03039 29.9648 7.97171 30.038C7.82596 30.2393 7.75704 30.4861 7.77743 30.7337V30.74Z" fill="white"/>
<path d="M10.2404 32.0592V28.5151H10.6728V29.7686C10.77 29.6633 10.8892 29.5806 11.0218 29.5265C11.1545 29.4723 11.2975 29.448 11.4406 29.4552C11.6114 29.4509 11.7806 29.4897 11.9325 29.568C12.0702 29.6329 12.181 29.7437 12.2459 29.8814C12.3148 30.0643 12.3458 30.2595 12.3368 30.4548V32.0748H11.8887V30.4391C11.9045 30.2691 11.854 30.0996 11.7476 29.966C11.6958 29.9141 11.6335 29.8739 11.5649 29.8479C11.4962 29.822 11.4229 29.811 11.3497 29.8156C11.2227 29.8158 11.0982 29.8504 10.9893 29.9158C10.8801 29.9774 10.7942 30.0732 10.7449 30.1884C10.6911 30.3391 10.6667 30.4986 10.6728 30.6585V32.0592H10.2404Z" fill="white"/>
<path d="M12.5498 29.123C12.5447 29.0508 12.5543 28.9783 12.578 28.9099C12.6017 28.8415 12.639 28.7786 12.6877 28.725C12.7316 28.6758 12.7858 28.6369 12.8464 28.6109C12.9071 28.5849 12.9727 28.5725 13.0386 28.5746C13.182 28.5881 13.3208 28.6319 13.446 28.7031C13.5144 28.7446 13.5918 28.7693 13.6716 28.7752C13.7141 28.7772 13.7557 28.7626 13.7875 28.7344C13.8203 28.6849 13.8398 28.6277 13.8439 28.5684H14.1573C14.1639 28.7176 14.1147 28.8639 14.0194 28.9789C13.9762 29.0239 13.9241 29.0595 13.8663 29.0832C13.8086 29.107 13.7465 29.1184 13.6841 29.1167C13.543 29.1024 13.407 29.0563 13.2862 28.982C13.2141 28.9357 13.1329 28.9057 13.048 28.8942C13.023 28.8934 12.9981 28.8983 12.9753 28.9086C12.9524 28.919 12.9323 28.9344 12.9164 28.9538C12.8789 29.0018 12.861 29.0623 12.8663 29.123H12.5498ZM13.1358 32.0591V29.5022H13.5682V32.0591H13.1358Z" fill="white"/>
<path d="M16.0218 31.7427C15.8849 31.8648 15.728 31.9623 15.558 32.031C15.4047 32.0882 15.2422 32.1169 15.0786 32.1156C14.8452 32.1293 14.615 32.0556 14.4331 31.9088C14.3589 31.8436 14.3 31.763 14.2605 31.6726C14.221 31.5822 14.2018 31.4842 14.2043 31.3855C14.204 31.265 14.2342 31.1465 14.2921 31.0408C14.3447 30.9412 14.4211 30.8562 14.5145 30.7933C14.6104 30.7284 14.7163 30.6797 14.8279 30.6491C14.955 30.6197 15.0837 30.5977 15.2133 30.5833C15.4734 30.5591 15.7305 30.5098 15.981 30.436C15.981 30.3765 15.981 30.3389 15.981 30.3232C15.9883 30.256 15.9812 30.1879 15.9601 30.1236C15.939 30.0593 15.9045 30.0002 15.8588 29.9503C15.7177 29.8418 15.5413 29.7893 15.3637 29.8031C15.2059 29.7908 15.0482 29.828 14.9125 29.9096C14.7994 30.0077 14.7231 30.1415 14.6963 30.2888L14.2733 30.2324C14.3037 30.0728 14.3689 29.9219 14.4644 29.7905C14.5655 29.671 14.6979 29.5821 14.8467 29.5336C15.036 29.4738 15.2343 29.4473 15.4327 29.4552C15.6135 29.4486 15.7941 29.4752 15.9654 29.5336C16.086 29.5676 16.1946 29.635 16.2787 29.7279C16.3487 29.8125 16.3951 29.9141 16.4135 30.0224C16.4268 30.1462 16.43 30.271 16.4229 30.3953V30.975C16.4161 31.2302 16.4255 31.4856 16.4511 31.7396C16.4687 31.8497 16.5059 31.9558 16.5607 32.0529H16.1064C16.0609 31.955 16.0323 31.8502 16.0218 31.7427ZM15.981 30.7745C15.7524 30.8571 15.5146 30.9118 15.2729 30.9374C15.1447 30.9527 15.0186 30.9822 14.8968 31.0251C14.8393 31.0509 14.7891 31.0905 14.7508 31.1405C14.7124 31.1904 14.6871 31.2492 14.6772 31.3114C14.6672 31.3736 14.6729 31.4373 14.6938 31.4967C14.7146 31.5562 14.7499 31.6095 14.7966 31.6518C14.906 31.7351 15.0416 31.7762 15.1789 31.7678C15.3342 31.7706 15.4876 31.7328 15.6238 31.6581C15.7508 31.587 15.8518 31.4773 15.9121 31.3448C15.9627 31.214 15.9861 31.0744 15.981 30.9343V30.7745Z" fill="white"/>
<path d="M19.1741 32.0592L18.2027 29.5022H18.6602L19.2086 31.022C19.2681 31.1881 19.3214 31.3604 19.3715 31.539C19.4091 31.4043 19.4655 31.2257 19.5344 31.0533L20.1016 29.4866H20.5466L19.5783 32.0435L19.1741 32.0592Z" fill="white"/>
<path d="M22.6053 32.0592V31.6831C22.5184 31.8187 22.3981 31.9296 22.256 32.0054C22.1139 32.0811 21.9547 32.119 21.7937 32.1156C21.6481 32.1171 21.5038 32.0872 21.3707 32.0278C21.2556 31.9839 21.1547 31.9091 21.0793 31.8116C21.0139 31.7176 20.969 31.6108 20.9477 31.4983C20.925 31.3648 20.9156 31.2294 20.9195 31.094V29.5273H21.3519V30.9436C21.3466 31.0967 21.356 31.2499 21.3801 31.4011C21.4033 31.5088 21.4645 31.6044 21.5525 31.6706C21.6441 31.7351 21.7538 31.7691 21.8658 31.7677C22.002 31.7653 22.1346 31.724 22.2481 31.6487C22.3587 31.5889 22.4451 31.4925 22.4925 31.376C22.5471 31.2137 22.5705 31.0426 22.5615 30.8716V29.5022H22.997V32.0592H22.6053ZM21.6214 32.8394V32.3474H22.1228V32.8394H21.6214Z" fill="white"/>
<path d="M25.7514 32.0592L24.78 29.5022H25.2375L25.7858 31.022C25.8454 31.1881 25.8986 31.3604 25.9488 31.539C25.9864 31.4043 26.0428 31.2257 26.1117 31.0533L26.6789 29.4866H27.1238L26.1556 32.0435L25.7514 32.0592Z" fill="white"/>
<path d="M29.1826 32.0592V31.6831C29.0957 31.8187 28.9754 31.9296 28.8333 32.0054C28.6912 32.0811 28.532 32.119 28.371 32.1156C28.2253 32.1171 28.081 32.0872 27.948 32.0278C27.8328 31.9839 27.732 31.9091 27.6566 31.8116C27.5912 31.7176 27.5463 31.6108 27.525 31.4983C27.5023 31.3648 27.4929 31.2294 27.4968 31.094V29.5273H27.9292V30.9436C27.9238 31.0967 27.9333 31.2499 27.9574 31.4011C27.9805 31.5088 28.0417 31.6044 28.1297 31.6706C28.2214 31.7351 28.331 31.7691 28.4431 31.7677C28.5803 31.7659 28.7141 31.7246 28.8285 31.6487C28.9391 31.5889 29.0255 31.4925 29.0729 31.376C29.1275 31.2137 29.1509 31.0426 29.1419 30.8715V29.5022H29.5774V32.0592H29.1826Z" fill="white"/>
<path d="M30.248 32.0593V29.5023H30.6397V29.8658C30.7274 29.7326 30.8485 29.6246 30.9909 29.5526C31.1332 29.4806 31.2919 29.4471 31.4513 29.4553C31.5977 29.4534 31.7429 29.4822 31.8774 29.5399C31.9922 29.5846 32.0929 29.6592 32.1688 29.7562C32.2331 29.8512 32.2788 29.9575 32.3036 30.0695C32.3224 30.2086 32.3297 30.3491 32.3255 30.4894V32.0562H31.8931V30.4894C31.8995 30.3559 31.8826 30.2223 31.843 30.0946C31.8081 30.0069 31.7453 29.9331 31.6643 29.8846C31.5696 29.8289 31.4608 29.8017 31.351 29.8063C31.1759 29.8036 31.0062 29.8662 30.8747 29.9818C30.7971 30.0732 30.7393 30.1797 30.7048 30.2946C30.6703 30.4094 30.6598 30.5301 30.6741 30.6492V32.0468L30.248 32.0593Z" fill="white"/>
<path d="M34.7603 32.0592H34.3592V28.5151H34.7822V29.7686C34.8636 29.6596 34.9696 29.5716 35.0917 29.5117C35.2137 29.4517 35.3482 29.4216 35.4841 29.4239C35.6378 29.4228 35.7898 29.456 35.9291 29.521C36.0654 29.5795 36.1849 29.6711 36.2769 29.7874C36.3712 29.9119 36.4433 30.0519 36.49 30.201C36.541 30.3696 36.5664 30.545 36.5652 30.7211C36.5915 31.0878 36.4797 31.4511 36.2518 31.7395C36.1552 31.8518 36.0355 31.9418 35.9008 32.0035C35.7661 32.0651 35.6197 32.097 35.4716 32.0968C35.3303 32.101 35.1903 32.0682 35.0655 32.0017C34.9408 31.9352 34.8356 31.8373 34.7603 31.7176V32.0592ZM34.7603 30.7587C34.7444 30.988 34.7864 31.2175 34.8825 31.4262C34.9319 31.518 35.0035 31.5961 35.0907 31.6533C35.1779 31.7105 35.2781 31.745 35.382 31.7537C35.486 31.7624 35.5904 31.7451 35.686 31.7032C35.7815 31.6613 35.8651 31.5963 35.9291 31.5139C36.0817 31.3 36.1548 31.0396 36.1359 30.7775C36.1567 30.5157 36.087 30.2547 35.9385 30.038C35.8817 29.964 35.8087 29.904 35.725 29.8627C35.6413 29.8214 35.5492 29.7999 35.4559 29.7999C35.361 29.8014 35.2677 29.8245 35.183 29.8674C35.0983 29.9103 35.0245 29.9718 34.9671 30.0474C34.8149 30.2521 34.7405 30.5042 34.7571 30.7587H34.7603Z" fill="white"/>
<path d="M36.9412 30.7807C36.9256 30.5869 36.9529 30.3922 37.0211 30.2102C37.0894 30.0282 37.1969 29.8635 37.336 29.7278C37.5597 29.5359 37.8468 29.4342 38.1414 29.4426C38.3013 29.4371 38.4607 29.4652 38.6091 29.5251C38.7576 29.585 38.8918 29.6754 39.0031 29.7905C39.2342 30.0475 39.3547 30.3853 39.3384 30.7305C39.3512 30.9979 39.2996 31.2644 39.188 31.5076C39.0926 31.694 38.9429 31.8469 38.7587 31.9463C38.567 32.0524 38.351 32.1064 38.132 32.103C37.9712 32.1093 37.811 32.0818 37.6615 32.0225C37.512 31.9631 37.3766 31.8731 37.264 31.7583C37.033 31.487 36.9172 31.1362 36.9412 30.7807ZM38.1445 28.7752L37.8719 29.1826H37.3768L37.8969 28.5151H38.3607L38.9028 29.1888H38.4108L38.1445 28.7752ZM37.3862 30.7807C37.3663 31.0433 37.4432 31.3041 37.6024 31.5139C37.6695 31.5905 37.7521 31.6518 37.8448 31.6938C37.9374 31.7358 38.038 31.7576 38.1398 31.7576C38.2416 31.7576 38.3421 31.7358 38.4348 31.6938C38.5275 31.6518 38.6101 31.5905 38.6772 31.5139C38.8366 31.2984 38.9124 31.0322 38.8903 30.765C38.9098 30.5077 38.834 30.2523 38.6772 30.0474C38.6099 29.9713 38.5271 29.9104 38.4345 29.8687C38.3419 29.8269 38.2414 29.8054 38.1398 29.8054C38.0382 29.8054 37.9377 29.8269 37.8451 29.8687C37.7525 29.9104 37.6697 29.9713 37.6024 30.0474C37.4434 30.2573 37.3665 30.5181 37.3862 30.7807ZM38.3607 28.3334H38.0098L37.4551 27.6597H38.0348L38.3607 28.3334Z" fill="white"/>
<path d="M39.846 29.0259V28.5151H40.2816V29.0134L39.846 29.0259ZM39.846 32.0592V29.5022H40.2816V32.0592H39.846Z" fill="white"/>
<path d="M42.1366 31.2947L42.5659 31.2289C42.5825 31.3805 42.6538 31.5209 42.7664 31.6237C42.8994 31.7213 43.0625 31.7691 43.2271 31.7584C43.3837 31.7707 43.5397 31.7287 43.6689 31.6394C43.7133 31.606 43.7496 31.563 43.7751 31.5136C43.8006 31.4642 43.8146 31.4098 43.8162 31.3542C43.8172 31.3077 43.8058 31.2617 43.7833 31.2209C43.7607 31.1802 43.7277 31.1462 43.6877 31.1223C43.5469 31.0556 43.3985 31.0061 43.2459 30.9751C43.0197 30.9246 42.7985 30.8543 42.5847 30.7651C42.4685 30.715 42.3702 30.6309 42.3027 30.5238C42.2464 30.4227 42.2169 30.3089 42.2169 30.1932C42.2169 30.0775 42.2464 29.9638 42.3027 29.8627C42.3544 29.7671 42.4273 29.6845 42.5158 29.6214C42.6 29.5644 42.6932 29.522 42.7915 29.496C42.9136 29.4601 43.0403 29.4422 43.1675 29.4428C43.347 29.4386 43.5256 29.4684 43.694 29.5305C43.827 29.5729 43.944 29.6549 44.0292 29.7655C44.1095 29.8836 44.161 30.0188 44.1797 30.1603L43.7566 30.2199C43.7505 30.1591 43.7323 30.1001 43.7033 30.0463C43.6743 29.9925 43.6349 29.945 43.5874 29.9065C43.4727 29.8274 43.3349 29.7888 43.1957 29.7969C43.048 29.7837 42.8999 29.8177 42.7727 29.894C42.7339 29.9192 42.7019 29.9535 42.6795 29.9939C42.6571 30.0343 42.645 30.0797 42.6442 30.1259C42.6432 30.1818 42.662 30.2362 42.6975 30.2794C42.7417 30.3313 42.7991 30.3702 42.8636 30.3922C42.9074 30.411 43.0328 30.4455 43.2459 30.505C43.4588 30.5584 43.6682 30.6254 43.8726 30.7056C43.9871 30.7538 44.0858 30.833 44.1577 30.9343C44.23 31.0437 44.2662 31.173 44.2611 31.3041C44.2601 31.4497 44.2153 31.5916 44.1327 31.7114C44.0454 31.8498 43.9188 31.9589 43.7692 32.0248C43.5985 32.096 43.4151 32.1312 43.2302 32.1282C42.9604 32.1463 42.6923 32.0735 42.4688 31.9214C42.2822 31.7624 42.1634 31.5383 42.1366 31.2947Z" fill="white"/>
<path d="M47.1378 30.0035V29.5021H47.6015V29.8969C47.6157 30.078 47.5856 30.2597 47.5138 30.4265C47.4468 30.5493 47.35 30.6533 47.2323 30.7289C47.1145 30.8045 46.9796 30.8492 46.8401 30.8589V32.0591H46.4515V31.6831C46.3646 31.8186 46.2443 31.9296 46.1022 32.0053C45.9601 32.081 45.8009 32.1189 45.6399 32.1155C45.4956 32.1165 45.3527 32.0877 45.22 32.0309C45.1047 31.9858 45.0039 31.9099 44.9286 31.8115C44.861 31.7184 44.8149 31.6113 44.7939 31.4982C44.7712 31.3647 44.7618 31.2293 44.7657 31.094V29.5272H45.1981V30.9435C45.1923 31.0966 45.2018 31.2499 45.2263 31.401C45.247 31.5147 45.3106 31.6161 45.4039 31.6843C45.4972 31.7526 45.6131 31.7824 45.7277 31.7677C45.8576 31.7674 45.9852 31.7329 46.0974 31.6674C46.2043 31.6048 46.2879 31.5091 46.3356 31.3948C46.3891 31.2344 46.4124 31.0654 46.4045 30.8965V29.5021H46.8401V30.6772C46.9323 30.6641 47.0208 30.6316 47.0996 30.582C47.1785 30.5323 47.2459 30.4665 47.2976 30.3889C47.3525 30.2683 47.3752 30.1355 47.3634 30.0035H47.1378ZM45.5397 29.1825L45.853 28.5088H46.4202L45.8906 29.1825H45.5397Z" fill="white"/>
<path d="M49.7448 31.1223L50.171 31.1755C50.1407 31.4403 50.0175 31.6857 49.8232 31.8681C49.626 32.0355 49.3736 32.1237 49.115 32.1156C48.9556 32.1246 48.7963 32.0987 48.648 32.0397C48.4997 31.9807 48.366 31.89 48.2564 31.7741C48.0296 31.4984 47.9174 31.1462 47.943 30.7901C47.9382 30.5419 47.9852 30.2954 48.0809 30.0663C48.1624 29.8676 48.3095 29.7028 48.4977 29.5994C48.6847 29.4959 48.895 29.442 49.1087 29.4427C49.3536 29.4332 49.5945 29.5073 49.7918 29.6526C49.9757 29.8036 50.0983 30.0164 50.1365 30.2512L49.7135 30.317C49.6878 30.1673 49.6128 30.0305 49.5004 29.9284C49.397 29.8418 49.2655 29.7961 49.1307 29.7999C49.0304 29.7968 48.9307 29.8163 48.839 29.857C48.7474 29.8977 48.666 29.9585 48.6011 30.0349C48.4453 30.2497 48.3719 30.5132 48.3943 30.7776C48.3718 31.0425 48.4415 31.3071 48.5917 31.5265C48.6536 31.603 48.7327 31.6639 48.8225 31.7042C48.9123 31.7445 49.0104 31.7631 49.1087 31.7584C49.2658 31.7638 49.4187 31.7076 49.5349 31.6017C49.658 31.4708 49.7321 31.3015 49.7448 31.1223Z" fill="white"/>
<path d="M51.7378 31.2946L52.1671 31.2287C52.1813 31.3811 52.253 31.5222 52.3676 31.6236C52.5006 31.7212 52.6637 31.7689 52.8283 31.7583C52.9837 31.7733 53.1397 31.7346 53.2701 31.6486C53.3142 31.6152 53.3502 31.5722 53.3752 31.5228C53.4002 31.4733 53.4135 31.4189 53.4142 31.3635C53.4159 31.3172 53.4051 31.2713 53.3831 31.2305C53.3611 31.1897 53.3285 31.1556 53.2889 31.1316C53.1471 31.0645 52.9977 31.015 52.8439 30.9843C52.6181 30.9328 52.3969 30.8626 52.1828 30.7744C52.0677 30.7237 51.9705 30.6397 51.9039 30.5331C51.8476 30.432 51.8181 30.3182 51.8181 30.2025C51.8181 30.0868 51.8476 29.973 51.9039 29.8719C51.9556 29.7763 52.0285 29.6938 52.117 29.6306C52.2012 29.5737 52.2944 29.5313 52.3927 29.5053C52.5138 29.4696 52.6394 29.4517 52.7656 29.452C52.946 29.4479 53.1257 29.4777 53.2952 29.5398C53.4278 29.583 53.5445 29.6649 53.6304 29.7748C53.7107 29.8929 53.7622 30.0281 53.7809 30.1696L53.3578 30.2291C53.3441 30.1067 53.2834 29.9944 53.1886 29.9158C53.0739 29.8367 52.9361 29.7981 52.7969 29.8061C52.6482 29.7934 52.4993 29.8274 52.3708 29.9033C52.3329 29.9292 52.3018 29.9637 52.28 30.004C52.2582 30.0444 52.2464 30.0893 52.2454 30.1351C52.2444 30.191 52.2632 30.2455 52.2987 30.2887C52.3429 30.3405 52.4003 30.3795 52.4648 30.4015C52.5055 30.4203 52.634 30.4548 52.8471 30.5143C53.0653 30.567 53.2799 30.634 53.4894 30.7148C53.6039 30.7631 53.7027 30.8423 53.7746 30.9436C53.8469 31.053 53.8831 31.1823 53.878 31.3134C53.8769 31.4589 53.8322 31.6009 53.7495 31.7207C53.6623 31.859 53.5357 31.9681 53.386 32.0341C53.2154 32.1052 53.0319 32.1404 52.8471 32.1375C52.5773 32.1556 52.3092 32.0828 52.0856 31.9307C51.8912 31.7721 51.7663 31.5438 51.7378 31.2946Z" fill="white"/>
<path d="M54.2101 30.7808C54.1945 30.587 54.2218 30.3922 54.2901 30.2103C54.3583 30.0283 54.4658 29.8636 54.605 29.7279C54.8273 29.5359 55.1135 29.4342 55.4072 29.4427C55.5671 29.4372 55.7265 29.4653 55.8749 29.5252C56.0234 29.5851 56.1576 29.6755 56.2689 29.7906C56.5 30.0476 56.6205 30.3853 56.6042 30.7306C56.6163 30.9976 56.5659 31.2637 56.4569 31.5077C56.3594 31.6936 56.2089 31.8463 56.0245 31.9464C55.8328 32.0525 55.6168 32.1065 55.3977 32.1031C55.2371 32.1092 55.0769 32.0816 54.9274 32.0223C54.778 31.9629 54.6425 31.8731 54.5298 31.7584C54.3011 31.486 54.1866 31.1357 54.2101 30.7808ZM55.4134 28.7753L55.1408 29.1826H54.6457L55.1721 28.5152H55.6328L56.1749 29.1889H55.6829L55.4134 28.7753ZM54.6551 30.7808C54.6343 31.043 54.7101 31.3038 54.8682 31.514C54.9342 31.5922 55.0169 31.6547 55.1101 31.697C55.2033 31.7393 55.3048 31.7602 55.4072 31.7584C55.5091 31.7607 55.6103 31.7399 55.703 31.6975C55.7958 31.6552 55.8779 31.5925 55.943 31.514C56.1035 31.2989 56.1804 31.0327 56.1592 30.7651C56.1779 30.5074 56.1009 30.2519 55.943 30.0475C55.8774 29.9695 55.7953 29.9072 55.7026 29.8649C55.6099 29.8226 55.509 29.8015 55.4072 29.8031C55.3051 29.8013 55.2039 29.822 55.1108 29.8637C55.0177 29.9054 54.9348 29.9671 54.8682 30.0444C54.7118 30.2564 54.6383 30.5183 54.6614 30.7808H54.6551ZM55.4886 27.6472H56.0903L55.5356 28.3209H55.1878L55.4886 27.6472Z" fill="white"/>
<path d="M57.118 32.0591V29.5022H57.5097V29.8657C57.5973 29.7322 57.7183 29.6241 57.8607 29.552C58.0031 29.48 58.1619 29.4466 58.3213 29.4552C58.4677 29.4535 58.6128 29.4823 58.7475 29.5398C58.8619 29.5835 58.9618 29.6584 59.0358 29.756C59.1024 29.8497 59.1483 29.9565 59.1705 30.0694C59.1925 30.2082 59.2009 30.3488 59.1956 30.4892V32.056H58.7631V30.4892C58.768 30.3558 58.751 30.2224 58.713 30.0944C58.678 30.0059 58.6139 29.9318 58.5313 29.8845C58.437 29.8277 58.3278 29.8004 58.2179 29.8061C58.0428 29.8029 57.8728 29.8655 57.7416 29.9816C57.6635 30.0728 57.6051 30.1792 57.57 30.294C57.535 30.4089 57.524 30.5298 57.5379 30.6491V32.0466L57.118 32.0591Z" fill="white"/>
<path d="M59.7815 32.2755L60.2014 32.3382C60.2057 32.3931 60.221 32.4466 60.2463 32.4956C60.2716 32.5446 60.3064 32.588 60.3487 32.6233C60.4795 32.7091 60.6343 32.7508 60.7905 32.7424C60.9537 32.7519 61.1158 32.7102 61.2543 32.6233C61.3639 32.5382 61.4421 32.4192 61.4768 32.2849C61.5048 32.1014 61.5153 31.9157 61.5081 31.7303C61.4232 31.8361 61.3153 31.9213 61.1926 31.9794C61.0699 32.0375 60.9357 32.0669 60.7999 32.0655C60.6429 32.0728 60.4864 32.0418 60.3439 31.9752C60.2014 31.9086 60.0773 31.8084 59.9821 31.6833C59.7872 31.4198 59.6858 31.099 59.6938 30.7714C59.6911 30.5402 59.7359 30.3109 59.8254 30.0977C59.9054 29.9043 60.0391 29.7379 60.2108 29.6183C60.3836 29.5076 60.5854 29.4509 60.7905 29.4553C60.9349 29.4535 61.0777 29.4857 61.2073 29.5494C61.3369 29.6131 61.4496 29.7065 61.5363 29.8219V29.5086H61.9343V31.7021C61.9514 31.9892 61.9109 32.2769 61.8152 32.5481C61.7313 32.7169 61.5964 32.855 61.4298 32.9429C61.2288 33.0439 61.0059 33.0934 60.7811 33.0871C60.5188 33.0998 60.2593 33.0273 60.0416 32.8803C59.9519 32.8086 59.8813 32.7159 59.8359 32.6104C59.7905 32.5049 59.7719 32.3899 59.7815 32.2755ZM60.1388 30.7401C60.1177 31.0004 60.1887 31.2599 60.3393 31.4733C60.3996 31.5477 60.4762 31.6073 60.5631 31.6475C60.65 31.6877 60.7449 31.7074 60.8407 31.7052C60.9362 31.7078 61.031 31.6885 61.1178 31.6489C61.2047 31.6092 61.2814 31.5503 61.342 31.4764C61.493 31.268 61.5642 31.0122 61.5426 30.7557C61.5616 30.5024 61.4881 30.2508 61.3358 30.0476C61.2752 29.9731 61.1987 29.913 61.112 29.8718C61.0253 29.8306 60.9304 29.8093 60.8344 29.8094C60.74 29.809 60.6467 29.8299 60.5615 29.8706C60.4763 29.9113 60.4014 29.9707 60.3424 30.0444C60.1948 30.2427 60.1226 30.4871 60.1388 30.7338V30.7401Z" fill="white"/>
</g>
<defs>
<clipPath id="clip0_3514_3014">
<rect width="70" height="33.0964" fill="white"/>
</clipPath>
</defs>
</svg>
