<svg width="48" height="30" viewBox="0 0 48 30" fill="none" xmlns="http://www.w3.org/2000/svg">
<path d="M21.0334 18.3835H29.3668C29.7361 18.3835 30.0418 18.0778 30.0418 17.7085C30.0418 17.3392 29.7361 17.0335 29.3668 17.0335H21.0334C20.6642 17.0335 20.3584 17.3392 20.3584 17.7085C20.3584 18.0778 20.6642 18.3835 21.0334 18.3835Z" fill="url(#paint0_linear_3514_3072)" stroke="white" stroke-width="0.1"/>
<path d="M28.7964 6.94289L28.7964 6.94286L32.1296 4.55965C32.1296 4.55962 32.1296 4.5596 32.1297 4.55958C32.8276 4.05611 33.7644 4.75403 33.4642 5.57553C33.4642 5.57559 33.4641 5.57564 33.4641 5.5757L29.9976 15.2837L29.9976 15.2838C29.8738 15.6286 29.5383 15.8669 29.1672 15.8669H21.2255C20.855 15.8669 20.519 15.6375 20.395 15.2835C20.395 15.2835 20.395 15.2834 20.395 15.2834L16.9284 5.57534L16.9284 5.57525C16.6367 4.75331 17.5736 4.05697 18.2792 4.5509L18.2796 4.55119L18.2796 4.55119L21.6129 6.93452L21.6135 6.93492C22.0279 7.23985 22.615 7.06057 22.7953 6.57447L22.7954 6.57419L24.3786 2.38294C24.3786 2.38287 24.3786 2.3828 24.3786 2.38273C24.6615 1.61434 25.7479 1.61435 26.0307 2.38275C26.0307 2.38281 26.0307 2.38287 26.0308 2.38294L27.6056 6.58256L28.7964 6.94289ZM28.7964 6.94289C28.3814 7.24041 27.7858 7.06013 27.6057 6.58264L28.7964 6.94289ZM27.2838 12.2419H23.1172C22.8031 12.2419 22.5422 11.9809 22.5422 11.6669C22.5422 11.3528 22.8031 11.0919 23.1172 11.0919H27.2838C27.5979 11.0919 27.8588 11.3528 27.8588 11.6669C27.8588 11.9809 27.5979 12.2419 27.2838 12.2419Z" fill="url(#paint1_linear_3514_3072)" stroke="white" stroke-width="0.1"/>
<path d="M7 25.0001C7 26.6001 5.8 27.5001 4 27.5001H2.60001V29.4001H1V22.4001H4C5.8 22.5001 7 23.5001 7 25.0001ZM5.39999 25.0001C5.39999 24.2001 4.89999 23.8001 3.89999 23.8001H2.60001V26.2001H3.89999C4.89999 26.2001 5.39999 25.8001 5.39999 25.0001Z" fill="url(#paint2_linear_3514_3072)" stroke="#EFC57F" stroke-width="0.1806" stroke-miterlimit="10"/>
<path d="M8.09998 22.1001H9.69995V29.5001H8.09998V22.1001Z" fill="url(#paint3_linear_3514_3072)" stroke="#EFC57F" stroke-width="0.1806" stroke-miterlimit="10"/>
<path d="M15.9 26.4V29.5H14.4V28.8C14.1 29.3 13.6 29.5 12.8 29.5C11.5 29.5 10.8 28.8 10.8 27.9C10.8 27 11.5 26.3 13.1 26.3H14.3C14.3 25.6 13.9 25.2 13.1 25.2C12.5 25.2 11.9 25.4 11.6 25.7L11 24.6C11.6 24.2 12.5 24 13.3 24C14.9 24 15.9 24.8 15.9 26.4ZM14.3 27.8V27.3H13.2C12.5 27.3 12.2 27.6 12.2 27.9C12.2 28.3 12.5 28.5 13.1 28.5C13.7 28.5 14.1 28.3 14.3 27.8Z" fill="url(#paint4_linear_3514_3072)" stroke="#EFC57F" stroke-width="0.1806" stroke-miterlimit="10"/>
<path d="M20.7 29.2001C20.4 29.4001 19.9 29.5001 19.4 29.5001C18.1 29.5001 17.4 28.9001 17.4 27.6001V25.4001H16.6V24.2001H17.4V22.9001H19V24.2001H20.3V25.4001H19V27.6001C19 28.1001 19.2 28.3001 19.7 28.3001C19.9 28.3001 20.2 28.2001 20.3 28.1001L20.7 29.2001Z" fill="url(#paint5_linear_3514_3072)" stroke="#EFC57F" stroke-width="0.1806" stroke-miterlimit="10"/>
<path d="M21.4 22.5001C21.4 22.0001 21.8 21.6001 22.4 21.6001C23 21.6001 23.4 22.0001 23.4 22.4001C23.4 22.9001 23 23.3001 22.4 23.3001C21.8 23.4001 21.4 23.0001 21.4 22.5001ZM21.6 24.1001H23.2V29.5001H21.6V24.1001Z" fill="url(#paint6_linear_3514_3072)" stroke="#EFC57F" stroke-width="0.1806" stroke-miterlimit="10"/>
<path d="M30.1 26.4V29.5H28.5V26.7C28.5 25.8 28.1 25.4 27.4 25.4C26.7 25.4 26.1 25.9 26.1 26.8V29.5H24.5V24.1H26V24.7C26.4 24.2 27 24 27.8 24C29.1 24 30.1 24.8 30.1 26.4Z" fill="url(#paint7_linear_3514_3072)" stroke="#EFC57F" stroke-width="0.1806" stroke-miterlimit="10"/>
<path d="M36.9 24.1001V29.5001H35.4V28.9001C35 29.4001 34.4 29.6001 33.7 29.6001C32.4 29.6001 31.4 28.8001 31.4 27.2001V24.2001H33V27.0001C33 27.9001 33.4 28.3001 34.1 28.3001C34.8 28.3001 35.3 27.8001 35.3 26.9001V24.2001H36.9V24.1001Z" fill="url(#paint8_linear_3514_3072)" stroke="#EFC57F" stroke-width="0.1806" stroke-miterlimit="10"/>
<path d="M47.4 26.4V29.5H45.8V26.7C45.8 25.8 45.4 25.4 44.8 25.4C44.1 25.4 43.6 25.8 43.6 26.8V29.5H42V26.7C42 25.8 41.6 25.4 41 25.4C40.3 25.4 39.8 25.8 39.8 26.8V29.5H38.4V24.1H39.9V24.7C40.3 24.2 40.9 24 41.6 24C42.3 24 43 24.3 43.4 24.9C43.8 24.4 44.5 24 45.3 24C46.5 24 47.4 24.8 47.4 26.4Z" fill="url(#paint9_linear_3514_3072)" stroke="#EFC57F" stroke-width="0.1806" stroke-miterlimit="10"/>
<defs>
<linearGradient id="paint0_linear_3514_3072" x1="20.4481" y1="17.7209" x2="29.9928" y2="17.7209" gradientUnits="userSpaceOnUse">
<stop stop-color="#CEA156"/>
<stop offset="0.1443" stop-color="#EFCD7A"/>
<stop offset="0.199" stop-color="#F8F1C8"/>
<stop offset="0.2136" stop-color="#F7EFC3"/>
<stop offset="0.2304" stop-color="#F4E7B5"/>
<stop offset="0.2485" stop-color="#EFDC9E"/>
<stop offset="0.2672" stop-color="#E9CB7E"/>
<stop offset="0.2836" stop-color="#E2BA5B"/>
<stop offset="0.4378" stop-color="#A46E20"/>
<stop offset="0.6617" stop-color="#E8C270"/>
<stop offset="0.7761" stop-color="#FBECC9"/>
<stop offset="0.9005" stop-color="#D0A14C"/>
<stop offset="1" stop-color="#D9B674"/>
</linearGradient>
<linearGradient id="paint1_linear_3514_3072" x1="16.9924" y1="8.97532" x2="33.4733" y2="8.97532" gradientUnits="userSpaceOnUse">
<stop stop-color="#CEA156"/>
<stop offset="0.1443" stop-color="#EFCD7A"/>
<stop offset="0.199" stop-color="#F8F1C8"/>
<stop offset="0.2136" stop-color="#F7EFC3"/>
<stop offset="0.2304" stop-color="#F4E7B5"/>
<stop offset="0.2485" stop-color="#EFDC9E"/>
<stop offset="0.2672" stop-color="#E9CB7E"/>
<stop offset="0.2836" stop-color="#E2BA5B"/>
<stop offset="0.4378" stop-color="#A46E20"/>
<stop offset="0.6617" stop-color="#E8C270"/>
<stop offset="0.7761" stop-color="#FBECC9"/>
<stop offset="0.9005" stop-color="#D0A14C"/>
<stop offset="1" stop-color="#D9B674"/>
</linearGradient>
<linearGradient id="paint2_linear_3514_3072" x1="3.9617" y1="16.491" x2="3.9617" y2="47.2893" gradientUnits="userSpaceOnUse">
<stop stop-color="#CEA156"/>
<stop offset="0.1443" stop-color="#EFCD7A"/>
<stop offset="0.199" stop-color="#F8F1C8"/>
<stop offset="0.2136" stop-color="#F7EFC3"/>
<stop offset="0.2304" stop-color="#F4E7B5"/>
<stop offset="0.2485" stop-color="#EFDC9E"/>
<stop offset="0.2672" stop-color="#E9CB7E"/>
<stop offset="0.2836" stop-color="#E2BA5B"/>
<stop offset="0.4378" stop-color="#A46E20"/>
<stop offset="0.6617" stop-color="#E8C270"/>
<stop offset="0.7761" stop-color="#FBECC9"/>
<stop offset="0.9005" stop-color="#D0A14C"/>
<stop offset="1" stop-color="#D9B674"/>
</linearGradient>
<linearGradient id="paint3_linear_3514_3072" x1="8.90226" y1="16.491" x2="8.90226" y2="47.2894" gradientUnits="userSpaceOnUse">
<stop stop-color="#CEA156"/>
<stop offset="0.1443" stop-color="#EFCD7A"/>
<stop offset="0.199" stop-color="#F8F1C8"/>
<stop offset="0.2136" stop-color="#F7EFC3"/>
<stop offset="0.2304" stop-color="#F4E7B5"/>
<stop offset="0.2485" stop-color="#EFDC9E"/>
<stop offset="0.2672" stop-color="#E9CB7E"/>
<stop offset="0.2836" stop-color="#E2BA5B"/>
<stop offset="0.4378" stop-color="#A46E20"/>
<stop offset="0.6617" stop-color="#E8C270"/>
<stop offset="0.7761" stop-color="#FBECC9"/>
<stop offset="0.9005" stop-color="#D0A14C"/>
<stop offset="1" stop-color="#D9B674"/>
</linearGradient>
<linearGradient id="paint4_linear_3514_3072" x1="13.323" y1="16.4909" x2="13.323" y2="47.2892" gradientUnits="userSpaceOnUse">
<stop stop-color="#CEA156"/>
<stop offset="0.1443" stop-color="#EFCD7A"/>
<stop offset="0.199" stop-color="#F8F1C8"/>
<stop offset="0.2136" stop-color="#F7EFC3"/>
<stop offset="0.2304" stop-color="#F4E7B5"/>
<stop offset="0.2485" stop-color="#EFDC9E"/>
<stop offset="0.2672" stop-color="#E9CB7E"/>
<stop offset="0.2836" stop-color="#E2BA5B"/>
<stop offset="0.4378" stop-color="#A46E20"/>
<stop offset="0.6617" stop-color="#E8C270"/>
<stop offset="0.7761" stop-color="#FBECC9"/>
<stop offset="0.9005" stop-color="#D0A14C"/>
<stop offset="1" stop-color="#D9B674"/>
</linearGradient>
<linearGradient id="paint5_linear_3514_3072" x1="18.687" y1="16.4911" x2="18.687" y2="47.2893" gradientUnits="userSpaceOnUse">
<stop stop-color="#CEA156"/>
<stop offset="0.1443" stop-color="#EFCD7A"/>
<stop offset="0.199" stop-color="#F8F1C8"/>
<stop offset="0.2136" stop-color="#F7EFC3"/>
<stop offset="0.2304" stop-color="#F4E7B5"/>
<stop offset="0.2485" stop-color="#EFDC9E"/>
<stop offset="0.2672" stop-color="#E9CB7E"/>
<stop offset="0.2836" stop-color="#E2BA5B"/>
<stop offset="0.4378" stop-color="#A46E20"/>
<stop offset="0.6617" stop-color="#E8C270"/>
<stop offset="0.7761" stop-color="#FBECC9"/>
<stop offset="0.9005" stop-color="#D0A14C"/>
<stop offset="1" stop-color="#D9B674"/>
</linearGradient>
<linearGradient id="paint6_linear_3514_3072" x1="22.391" y1="16.491" x2="22.391" y2="47.2894" gradientUnits="userSpaceOnUse">
<stop stop-color="#CEA156"/>
<stop offset="0.1443" stop-color="#EFCD7A"/>
<stop offset="0.199" stop-color="#F8F1C8"/>
<stop offset="0.2136" stop-color="#F7EFC3"/>
<stop offset="0.2304" stop-color="#F4E7B5"/>
<stop offset="0.2485" stop-color="#EFDC9E"/>
<stop offset="0.2672" stop-color="#E9CB7E"/>
<stop offset="0.2836" stop-color="#E2BA5B"/>
<stop offset="0.4378" stop-color="#A46E20"/>
<stop offset="0.6617" stop-color="#E8C270"/>
<stop offset="0.7761" stop-color="#FBECC9"/>
<stop offset="0.9005" stop-color="#D0A14C"/>
<stop offset="1" stop-color="#D9B674"/>
</linearGradient>
<linearGradient id="paint7_linear_3514_3072" x1="27.3547" y1="16.4909" x2="27.3547" y2="47.2892" gradientUnits="userSpaceOnUse">
<stop stop-color="#CEA156"/>
<stop offset="0.1443" stop-color="#EFCD7A"/>
<stop offset="0.199" stop-color="#F8F1C8"/>
<stop offset="0.2136" stop-color="#F7EFC3"/>
<stop offset="0.2304" stop-color="#F4E7B5"/>
<stop offset="0.2485" stop-color="#EFDC9E"/>
<stop offset="0.2672" stop-color="#E9CB7E"/>
<stop offset="0.2836" stop-color="#E2BA5B"/>
<stop offset="0.4378" stop-color="#A46E20"/>
<stop offset="0.6617" stop-color="#E8C270"/>
<stop offset="0.7761" stop-color="#FBECC9"/>
<stop offset="0.9005" stop-color="#D0A14C"/>
<stop offset="1" stop-color="#D9B674"/>
</linearGradient>
<linearGradient id="paint8_linear_3514_3072" x1="34.1886" y1="16.491" x2="34.1886" y2="47.2893" gradientUnits="userSpaceOnUse">
<stop stop-color="#CEA156"/>
<stop offset="0.1443" stop-color="#EFCD7A"/>
<stop offset="0.199" stop-color="#F8F1C8"/>
<stop offset="0.2136" stop-color="#F7EFC3"/>
<stop offset="0.2304" stop-color="#F4E7B5"/>
<stop offset="0.2485" stop-color="#EFDC9E"/>
<stop offset="0.2672" stop-color="#E9CB7E"/>
<stop offset="0.2836" stop-color="#E2BA5B"/>
<stop offset="0.4378" stop-color="#A46E20"/>
<stop offset="0.6617" stop-color="#E8C270"/>
<stop offset="0.7761" stop-color="#FBECC9"/>
<stop offset="0.9005" stop-color="#D0A14C"/>
<stop offset="1" stop-color="#D9B674"/>
</linearGradient>
<linearGradient id="paint9_linear_3514_3072" x1="42.8812" y1="16.4909" x2="42.8812" y2="47.2892" gradientUnits="userSpaceOnUse">
<stop stop-color="#CEA156"/>
<stop offset="0.1443" stop-color="#EFCD7A"/>
<stop offset="0.199" stop-color="#F8F1C8"/>
<stop offset="0.2136" stop-color="#F7EFC3"/>
<stop offset="0.2304" stop-color="#F4E7B5"/>
<stop offset="0.2485" stop-color="#EFDC9E"/>
<stop offset="0.2672" stop-color="#E9CB7E"/>
<stop offset="0.2836" stop-color="#E2BA5B"/>
<stop offset="0.4378" stop-color="#A46E20"/>
<stop offset="0.6617" stop-color="#E8C270"/>
<stop offset="0.7761" stop-color="#FBECC9"/>
<stop offset="0.9005" stop-color="#D0A14C"/>
<stop offset="1" stop-color="#D9B674"/>
</linearGradient>
</defs>
</svg>
